<svg width="204" height="40" viewBox="0 0 204 40" fill="none" xmlns="http://www.w3.org/2000/svg">
<path opacity="0.97" d="M182.555 37.4015C193.294 37.4015 202 29.5171 202 19.7912C202 10.0653 193.294 2.18091 182.555 2.18091C171.816 2.18091 163.11 10.0653 163.11 19.7912C163.11 29.5171 171.816 37.4015 182.555 37.4015Z" stroke="white" stroke-width="2.88054" stroke-linecap="round" stroke-linejoin="round"/>
<path opacity="0.97" d="M182.555 22.4339C184.167 22.4339 185.473 21.2507 185.473 19.7912C185.473 18.3317 184.167 17.1485 182.555 17.1485C180.944 17.1485 179.637 18.3317 179.637 19.7912C179.637 21.2507 180.944 22.4339 182.555 22.4339Z" fill="white" stroke="white" stroke-width="2.88054" stroke-linecap="round" stroke-linejoin="round"/>
<path opacity="0.999" d="M181.376 22.4058L183.413 22.4486L186.486 36.6372C184.506 37.5383 182.494 37.9315 178.634 36.6372L181.376 22.4058Z" fill="white" stroke="white" stroke-width="2.41486" stroke-linecap="round" stroke-linejoin="round"/>
<path opacity="0.999" d="M183.745 17.0612L181.708 17.0184L178.634 2.82976C180.615 1.92864 182.627 1.53552 186.486 2.82976L183.745 17.0612Z" fill="white" stroke="white" stroke-width="2.41486" stroke-linecap="round" stroke-linejoin="round"/>
<path opacity="0.999" d="M185.537 19.3939L184.522 17.5507L195.717 7.43989C197.554 8.74278 198.949 10.3371 199.78 14.4587L185.537 19.3939Z" fill="white" stroke="white" stroke-width="2.50256" stroke-linecap="round" stroke-linejoin="round"/>
<path opacity="0.999" d="M179.555 20.0778L180.594 21.9058L169.146 31.9327C167.267 30.6406 165.841 29.0595 164.992 24.9721L179.555 20.0778Z" fill="white" stroke="white" stroke-width="2.52012" stroke-linecap="round" stroke-linejoin="round"/>
<path opacity="0.999" d="M184.324 22.1949L185.426 20.3855L199.925 25.0288C199.71 27.2802 199.018 29.2944 195.828 32.0891L184.324 22.1949Z" fill="white" stroke="white" stroke-width="2.52073" stroke-linecap="round" stroke-linejoin="round"/>
<path opacity="0.999" d="M180.223 16.9879L179.167 18.721L165.274 14.2736C165.48 12.1172 166.143 10.1881 169.2 7.51132L180.223 16.9879Z" fill="white" stroke="white" stroke-width="2.41486" stroke-linecap="round" stroke-linejoin="round"/>
<path opacity="0.999" d="M146.394 10.0189C149.482 10.0189 151.757 10.6851 153.219 12.0176C154.705 13.3239 155.448 15.3095 155.448 17.9743C155.448 19.4635 155.204 20.7045 154.717 21.6973C154.229 22.6901 153.602 23.4869 152.836 24.0878C152.093 24.6626 151.304 25.1198 150.468 25.4595L157.294 38H153.637L147.613 26.4392H142.668V38H139.534V10.0189H146.394ZM146.22 13.0757H142.668V23.4608H146.394C148.414 23.4608 149.888 23.0167 150.817 22.1284C151.745 21.214 152.21 19.8815 152.21 18.1311C152.21 16.3022 151.722 15.009 150.747 14.2513C149.772 13.4676 148.263 13.0757 146.22 13.0757Z" fill="white" stroke="white" stroke-width="2.10364" stroke-linecap="round" stroke-linejoin="round"/>
<path opacity="0.999" d="M123.115 38H114.131V35.9622L117.056 35.2176V12.8405L114.131 12.0567V10.0189H123.115V12.0567L120.19 12.8405V35.2176L123.115 35.9622V38Z" fill="white" stroke="white" stroke-width="2.10364" stroke-linecap="round" stroke-linejoin="round"/>
<path opacity="0.999" d="M90.5563 22.8338H99.1577V36.55C97.8112 37.0464 96.4531 37.4122 95.0834 37.6473C93.7137 37.8824 92.1582 38 90.417 38C87.8401 38 85.6694 37.4252 83.905 36.2757C82.1406 35.1 80.7941 33.441 79.8654 31.2986C78.96 29.1302 78.5073 26.5698 78.5073 23.6176C78.5073 20.6914 79.0181 18.1572 80.0396 16.0149C81.0611 13.8725 82.5236 12.2135 84.4273 11.0378C86.3542 9.83602 88.6758 9.23512 91.3921 9.23512C92.785 9.23512 94.0967 9.37882 95.3271 9.6662C96.5808 9.95359 97.7416 10.3585 98.8095 10.8811L97.6255 13.9378C96.7433 13.4937 95.745 13.1149 94.6307 12.8013C93.5395 12.4878 92.402 12.3311 91.218 12.3311C88.2463 12.3311 85.9248 13.3369 84.2532 15.3486C82.6049 17.3604 81.7808 20.1167 81.7808 23.6176C81.7808 25.8383 82.0942 27.8108 82.721 29.5351C83.371 31.2333 84.3809 32.5658 85.7506 33.5324C87.1204 34.473 88.9196 34.9432 91.1483 34.9432C92.2394 34.9432 93.1681 34.8779 93.9342 34.7473C94.7003 34.6167 95.3968 34.4599 96.0236 34.277V25.9689H90.5563V22.8338Z" fill="white" stroke="white" stroke-width="2.10364" stroke-linecap="round" stroke-linejoin="round"/>
<path opacity="0.999" d="M49.9034 23.745L56.3806 9.98955H59.7585L51.4705 27.1152V37.9706H48.3364V27.272L40.0483 9.98955H43.4611L49.9034 23.745Z" fill="white" stroke="white" stroke-width="2.10364" stroke-linecap="round" stroke-linejoin="round"/>
<path opacity="0.999" d="M12.9695 37.9706L4.7859 13.4382H4.64661C4.71625 14.2481 4.77429 15.3454 4.82072 16.7301C4.86715 18.0887 4.89037 19.5125 4.89037 21.0017V37.9706H2V9.98955H6.63154L14.2927 32.9152H14.432L22.2325 9.98955H26.8293V37.9706H23.73V20.7666C23.73 19.408 23.7532 18.0625 23.7996 16.7301C23.8693 15.3977 23.9273 14.3134 23.9737 13.4774H23.8344L15.5464 37.9706H12.9695Z" fill="white" stroke="white" stroke-width="2.10364" stroke-linecap="round" stroke-linejoin="round"/>
</svg>
