<?xml version="1.0" encoding="UTF-8" standalone="no"?>
<svg
   xmlns:dc="http://purl.org/dc/elements/1.1/"
   xmlns:cc="http://creativecommons.org/ns#"
   xmlns:rdf="http://www.w3.org/1999/02/22-rdf-syntax-ns#"
   xmlns:svg="http://www.w3.org/2000/svg"
   xmlns="http://www.w3.org/2000/svg"
   xmlns:sodipodi="http://sodipodi.sourceforge.net/DTD/sodipodi-0.dtd"
   xmlns:inkscape="http://www.inkscape.org/namespaces/inkscape"
   width="370.2236"
   height="68.787453"
   viewBox="0 0 97.954994 18.200013"
   version="1.1"
   id="svg8"
   sodipodi:docname="my-giro-color.svg"
   inkscape:version="1.0.2 (e86c870879, 2021-01-15, custom)">
  <defs
     id="defs2">
    <inkscape:path-effect
       effect="powerstroke"
       id="path-effect969"
       is_visible="true"
       lpeversion="1"
       offset_points="0,0.1322915"
       sort_points="true"
       interpolator_type="CubicBezierJohan"
       interpolator_beta="0.2"
       start_linecap_type="zerowidth"
       linejoin_type="extrp_arc"
       miter_limit="4"
       scale_width="1"
       end_linecap_type="zerowidth" />
  </defs>
  <sodipodi:namedview
     id="base"
     pagecolor="#ffffff"
     bordercolor="#666666"
     borderopacity="1.0"
     inkscape:pageopacity="0.0"
     inkscape:pageshadow="2"
     inkscape:zoom="1.4142136"
     inkscape:cx="125.26622"
     inkscape:cy="104.7601"
     inkscape:document-units="px"
     inkscape:current-layer="g997"
     inkscape:document-rotation="0"
     showgrid="true"
     units="px"
     inkscape:window-width="1920"
     inkscape:window-height="1019"
     inkscape:window-x="0"
     inkscape:window-y="35"
     inkscape:window-maximized="1"
     showguides="true"
     inkscape:guide-bbox="true">
    <inkscape:grid
       type="xygrid"
       id="grid833"
       originx="-0.05533021"
       originy="2.8879154"
       enabled="false"
       empspacing="5" />
  </sodipodi:namedview>
  <metadata
     id="metadata5">
    <rdf:RDF>
      <cc:Work
         rdf:about="">
        <dc:format>image/svg+xml</dc:format>
        <dc:type
           rdf:resource="http://purl.org/dc/dcmitype/StillImage" />
        <dc:title />
      </cc:Work>
    </rdf:RDF>
  </metadata>
  <g
     inkscape:groupmode="layer"
     id="layer4"
     inkscape:label="Текст"
     transform="translate(-0.0553302,2.8879156)"
     style="display:inline">
    <g
       inkscape:groupmode="layer"
       id="layer7"
       inkscape:label="O"
       style="display:inline">
      <g
         id="g997"
         transform="translate(0.74743211,-0.23312207)"
         style="display:inline">
        <ellipse
           style="font-style:normal;font-variant:normal;font-weight:normal;font-stretch:normal;font-size:12.1708px;line-height:1.25;font-family:'Noto Sans';-inkscape-font-specification:'Noto Sans';letter-spacing:3.43958px;word-spacing:-4.23333px;display:inline;opacity:0.97;fill:none;fill-opacity:1;stroke:none;stroke-width:0.762144;stroke-linecap:round;stroke-linejoin:round;stroke-miterlimit:4;stroke-dasharray:none;stroke-opacity:1;paint-order:normal"
           id="path935"
           cx="87.422638"
           cy="6.3593745"
           rx="9.4591799"
           ry="8.6147614" />
        <ellipse
           style="font-style:normal;font-variant:normal;font-weight:normal;font-stretch:normal;font-size:12.1708px;line-height:1.25;font-family:'Noto Sans';-inkscape-font-specification:'Noto Sans';letter-spacing:3.43958px;word-spacing:-4.23333px;display:inline;opacity:0.97;fill:none;fill-opacity:1;stroke:#010a1c;stroke-width:0.762144;stroke-linecap:round;stroke-linejoin:round;stroke-miterlimit:4;stroke-dasharray:none;stroke-opacity:1;paint-order:normal"
           id="circle938"
           cx="87.491913"
           cy="6.3133416"
           rx="9.4591799"
           ry="8.6147614"
           transform="translate(-0.06927208,0.04603343)" />
        <ellipse
           style="font-style:normal;font-variant:normal;font-weight:normal;font-stretch:normal;font-size:12.1708px;line-height:1.25;font-family:'Noto Sans';-inkscape-font-specification:'Noto Sans';letter-spacing:3.43958px;word-spacing:-4.23333px;display:inline;opacity:0.97;fill:#010a1c;fill-opacity:1;stroke:#010a1c;stroke-width:0.762144;stroke-linecap:round;stroke-linejoin:round;stroke-miterlimit:4;stroke-dasharray:none;stroke-opacity:1;paint-order:normal"
           id="path971"
           cx="87.422638"
           cy="6.3593745"
           rx="1.4194809"
           ry="1.2927636" />
        <path
           id="rect1035"
           style="opacity:0.999;fill:#bc4558;fill-opacity:1;stroke:#010a1c;stroke-width:0.638932;stroke-linecap:round;stroke-linejoin:round;stroke-opacity:1"
           d="m 86.848778,7.6384096 0.991041,0.020917 1.495172,6.9409344 c -0.963569,0.440821 -1.942252,0.633131 -3.819788,0 z"
           sodipodi:nodetypes="ccccc" />
        <path
           id="path1051"
           style="opacity:0.999;fill:#bc4558;fill-opacity:1;stroke:#010a1c;stroke-width:0.638932;stroke-linecap:round;stroke-linejoin:round;stroke-opacity:1"
           d="m 88.001416,5.0238779 -0.991041,-0.02092 -1.495172,-6.9409352 c 0.963569,-0.440821 1.942252,-0.633131 3.819788,0 z"
           sodipodi:nodetypes="ccccc" />
        <path
           id="path1053"
           style="opacity:0.999;fill:#bc4558;fill-opacity:1;stroke:#010a1c;stroke-width:0.662135;stroke-linecap:round;stroke-linejoin:round;stroke-opacity:1"
           d="M 88.87355,6.1650134 88.379579,5.2633347 93.825653,0.31724647 c 0.893511,0.63735797 1.572157,1.41727073 1.976166,3.43351803 z"
           sodipodi:nodetypes="ccccc" />
        <path
           id="path1055"
           style="opacity:0.999;fill:#bc4558;fill-opacity:1;stroke:#010a1c;stroke-width:0.666782;stroke-linecap:round;stroke-linejoin:round;stroke-opacity:1"
           d="m 85.963177,6.4995912 0.505116,0.8942024 -5.568972,4.9050684 C 79.985647,11.666789 79.291687,10.893345 78.878562,8.8938196 Z"
           sodipodi:nodetypes="ccccc" />
        <path
           id="path1057"
           style="opacity:0.999;fill:#bc4558;fill-opacity:1;stroke:#010a1c;stroke-width:0.666942;stroke-linecap:round;stroke-linejoin:round;stroke-opacity:1"
           d="m 88.28307,7.5352478 0.536035,-0.8851686 7.053359,2.2714824 C 95.76808,10.022933 95.431207,11.008239 93.879278,12.37537 Z"
           sodipodi:nodetypes="ccccc" />
        <path
           id="path1059"
           style="opacity:0.999;fill:#bc4558;fill-opacity:1;stroke:#010a1c;stroke-width:0.638932;stroke-linecap:round;stroke-linejoin:round;stroke-opacity:1"
           d="M 86.288139,4.9880293 85.774501,5.8358359 79.015889,3.6602253 c 0.100022,-1.0548861 0.422818,-1.9986054 1.909894,-3.30803343 z"
           sodipodi:nodetypes="ccccc" />
      </g>
    </g>
    <g
       inkscape:groupmode="layer"
       id="layer6"
       inkscape:label="R">
      <path
         d="m 70.578907,1.3457543 q 2.253077,0 3.320323,0.9777165 1.084188,0.9585483 1.084188,2.9139829 0,1.092744 -0.355748,1.8212389 -0.355748,0.7284965 -0.914786,1.1694276 -0.542092,0.4217609 -1.151947,0.6709826 l 3.320325,6.1347002 H 74.102518 L 71.17182,9.3783763 H 68.76628 V 15.033803 H 67.241642 V 1.3457543 Z m -0.08468,1.4953324 h -1.727922 v 5.0802981 h 1.812626 q 1.473816,0 2.151435,-0.6518115 0.677616,-0.6709831 0.677616,-1.9554361 0,-1.3419656 -0.711499,-1.8979226 -0.711496,-0.5751279 -2.202256,-0.5751279 z"
         style="font-style:normal;font-variant:normal;font-weight:normal;font-stretch:normal;font-size:12.1708px;line-height:1.25;font-family:'Noto Sans';-inkscape-font-specification:'Noto Sans';letter-spacing:3.43958px;word-spacing:-4.23333px;display:inline;opacity:0.999;fill:#010a1c;fill-opacity:1;stroke:#010a1c;stroke-width:0.556588;stroke-linecap:round;stroke-linejoin:round;stroke-miterlimit:4;stroke-dasharray:none;stroke-opacity:1"
         id="path924" />
    </g>
    <g
       inkscape:groupmode="layer"
       id="layer5"
       inkscape:label="I">
      <path
         d="m 59.254804,15.033803 h -4.370632 v -0.99689 l 1.422997,-0.364247 V 2.7260605 L 54.884172,2.3426421 V 1.3457543 h 4.370632 V 2.3426421 L 57.831808,2.7260605 V 13.672666 l 1.422996,0.364247 z"
         style="font-style:normal;font-variant:normal;font-weight:normal;font-stretch:normal;font-size:12.1708px;line-height:1.25;font-family:'Noto Sans';-inkscape-font-specification:'Noto Sans';letter-spacing:3.43958px;word-spacing:-4.23333px;display:inline;opacity:0.999;fill:#010a1c;fill-opacity:1;stroke:#010a1c;stroke-width:0.556588;stroke-linecap:round;stroke-linejoin:round;stroke-miterlimit:4;stroke-dasharray:none;stroke-opacity:1"
         id="path922" />
    </g>
    <g
       inkscape:groupmode="layer"
       id="layer3"
       inkscape:label="G">
      <path
         d="m 43.416082,7.6146497 h 4.184284 v 6.7098283 q -0.982546,0.364248 -1.982031,0.536786 -0.999484,0.172539 -2.270016,0.172539 -1.880387,0 -3.167862,-0.843521 -1.287473,-0.862692 -1.965089,-2.43471 -0.660678,-1.591187 -0.660678,-3.7575034 0,-2.1471441 0.745379,-3.7191615 0.74538,-1.5720176 2.134494,-2.4347095 1.406056,-0.88186184 3.388088,-0.88186184 1.016425,0 1.914269,0.21087904 0.914784,0.2108806 1.694043,0.5942993 L 46.854989,3.262848 Q 46.211251,2.9369418 45.398112,2.7068895 44.601909,2.4768394 43.73795,2.4768394 q -2.168376,0 -3.38809,1.4761628 -1.202767,1.4761613 -1.202767,4.0450664 0,1.6295297 0.457391,2.8948114 0.474332,1.246111 1.473816,1.955436 0.999485,0.690155 2.625768,0.690155 0.796201,0 1.355233,-0.09585 0.559034,-0.09585 1.016427,-0.230052 V 9.148331 h -2.659646 z"
         style="font-style:normal;font-variant:normal;font-weight:normal;font-stretch:normal;font-size:12.1708px;line-height:1.25;font-family:'Noto Sans';-inkscape-font-specification:'Noto Sans';letter-spacing:3.43958px;word-spacing:-4.23333px;display:inline;opacity:0.999;fill:#010a1c;fill-opacity:1;stroke:#010a1c;stroke-width:0.556588;stroke-linecap:round;stroke-linejoin:round;stroke-miterlimit:4;stroke-dasharray:none;stroke-opacity:1"
         id="path920" />
    </g>
    <g
       inkscape:groupmode="layer"
       id="layer2"
       inkscape:label="Y">
      <path
         d="m 23.639989,8.0603898 3.150918,-6.7289992 h 1.643225 L 24.402308,9.7090891 V 15.019439 H 22.877671 V 9.7857742 L 18.845846,1.3313906 h 1.660162 z"
         style="font-style:normal;font-variant:normal;font-weight:normal;font-stretch:normal;font-size:12.1708px;line-height:1.25;font-family:'Noto Sans';-inkscape-font-specification:'Noto Sans';letter-spacing:3.43958px;word-spacing:-4.23333px;display:inline;opacity:0.999;fill:#010a1c;fill-opacity:1;stroke:#010a1c;stroke-width:0.556589;stroke-linecap:round;stroke-linejoin:round;stroke-miterlimit:4;stroke-dasharray:none;stroke-opacity:1"
         id="path918" />
    </g>
    <g
       inkscape:groupmode="layer"
       id="layer1"
       inkscape:label="M"
       style="display:inline"
       transform="matrix(1.3988211,0,0,1.3696062,43.933861,-22.590721)">
      <path
         d="m -27.352351,27.460565 -2.845969,-8.762378 h -0.04844 q 0.03633,0.43392 0.06055,1.175782 0.02422,0.727866 0.02422,1.525719 v 6.060877 h -1.005172 v -9.994149 h 1.610697 l 2.664311,8.188484 h 0.04844 l 2.712754,-8.188484 h 1.598586 v 9.994149 h -1.07783 v -6.144862 q 0,-0.727866 0.02422,-1.441734 0.03633,-0.713867 0.06055,-1.161784 h -0.04844 l -2.8823,8.74838 z"
         style="font-style:normal;font-variant:normal;font-weight:normal;font-stretch:normal;font-size:12.1708px;line-height:1.25;font-family:'Noto Sans';-inkscape-font-specification:'Noto Sans';letter-spacing:3.43958px;word-spacing:-4.23333px;display:inline;opacity:0.999;fill:#010a1c;fill-opacity:1;stroke:#010a1c;stroke-width:0.40212;stroke-linecap:round;stroke-linejoin:round;stroke-miterlimit:4;stroke-dasharray:none;stroke-opacity:1"
         id="path916" />
    </g>
  </g>
</svg>
