<?xml version="1.0" standalone="no"?>
<!DOCTYPE svg PUBLIC "-//W3C//DTD SVG 1.1//EN" "http://www.w3.org/Graphics/SVG/1.1/DTD/svg11.dtd" >
<svg xmlns="http://www.w3.org/2000/svg" xmlns:xlink="http://www.w3.org/1999/xlink" version="1.1">
<metadata>
Created by FontForge 20200511 at Thu Feb 16 16:11:52 2017
 By convertio
Copyright (c) 2015-2016 Mooniak (hello@mooniak.com) Copyright (c) 2015 Sol Matas (sol@sonnenshine.com.ar) 
</metadata>
<defs>
<font id="YaldeviColombo-Bold" horiz-adv-x="581" >
  <font-face 
    font-family="Yaldevi Colombo"
    font-weight="700"
    font-stretch="normal"
    units-per-em="1024"
    panose-1="2 0 8 3 0 0 0 0 0 0"
    ascent="819"
    descent="-205"
    x-height="500"
    cap-height="675"
    bbox="-614 -329 2008 973"
    underline-thickness="0"
    underline-position="0"
    unicode-range="U+0020-FB02"
  />
<missing-glyph horiz-adv-x="374" 
d="M34 0v682h272v-682h-272zM68 34h204v614h-204v-614z" />
    <glyph glyph-name="fi" unicode="fi" horiz-adv-x="559" 
d="M215 0v405h156v-405h130v500h-286v68q3 64 50 66q9 0 30 -6l37 87q-57 25 -104 25q-91 0 -126 -76q-17 -37 -17 -85v-79h-58v-95h58v-405h130zM518 646q0 60 -50 79q-15 6 -31 6q-52 0 -72 -44q-9 -18 -9 -41q0 -63 50 -83q15 -5 30 -5q50 0 72 43q10 20 10 45z" />
    <glyph glyph-name="fl" unicode="fl" horiz-adv-x="607" 
d="M303 405v95h-88v68q3 64 50 66q9 0 30 -6l37 87q-57 25 -104 25q-91 0 -126 -76q-17 -37 -17 -85v-79h-58v-95h58v-405h130v405h88zM599 -2l-23 97q-20 -5 -32 -5q-37 0 -40 45v10v580h-130v-592q0 -140 123 -148h14q40 0 88 13z" />
    <glyph glyph-name=".notdef" horiz-adv-x="374" 
d="M34 0v682h272v-682h-272zM68 34h204v614h-204v-614z" />
    <glyph glyph-name=".null" horiz-adv-x="0" 
 />
    <glyph glyph-name="nonmarkingreturn" horiz-adv-x="341" 
 />
    <glyph glyph-name="A" unicode="A" horiz-adv-x="557" 
d="M129 0l38 136h220l37 -136h136l-199 675h-160l-204 -675h132zM234 372q10 34 45 182q7 -27 20 -85q16 -70 22 -91l39 -142h-164z" />
    <glyph glyph-name="AE" unicode="&#xc6;" horiz-adv-x="832" 
d="M134 0l73 146h219v-146h366v110h-234v183h196v108h-196v164h225v110h-437l-349 -675h137zM365 464q33 66 61 131v-349h-170z" />
    <glyph glyph-name="Aacute" unicode="&#xc1;" horiz-adv-x="557" 
d="M129 0l38 136h220l37 -136h136l-199 675h-160l-204 -675h132zM234 372q10 34 45 182q7 -27 20 -85q16 -70 22 -91l39 -142h-164zM455 829l-63 94l-191 -134l50 -77z" />
    <glyph glyph-name="Abreve" unicode="&#x102;" horiz-adv-x="557" 
d="M129 0l38 136h220l37 -136h136l-199 675h-160l-204 -675h132zM234 372q10 34 45 182q7 -27 20 -85q16 -70 22 -91l39 -142h-164zM132 883q-1 -95 74 -137q38 -21 81 -21q78 0 122 57q32 42 32 102l-84 4q-5 -51 -48 -65q-11 -3 -21 -3q-41 0 -61 37q-8 16 -10 34z" />
    <glyph glyph-name="Acircumflex" unicode="&#xc2;" horiz-adv-x="557" 
d="M129 0l38 136h220l37 -136h136l-199 675h-160l-204 -675h132zM234 372q10 34 45 182q7 -27 20 -85q16 -70 22 -91l39 -142h-164zM292 904l-166 -123l52 -65l111 75l111 -77l56 67z" />
    <glyph glyph-name="Adieresis" unicode="&#xc4;" horiz-adv-x="557" 
d="M129 0l38 136h220l37 -136h136l-199 675h-160l-204 -675h132zM234 372q10 34 45 182q7 -27 20 -85q16 -70 22 -91l39 -142h-164zM251 806q0 53 -44 68q-12 4 -23 4q-45 0 -62 -39q-6 -15 -6 -33q0 -56 44 -71q11 -4 23 -4q42 0 60 37q8 17 8 38zM458 806q0 53 -44 68
q-12 4 -24 4q-43 0 -60 -37q-7 -16 -7 -35q0 -56 44 -71q11 -4 22 -4q44 0 62 38q7 17 7 37z" />
    <glyph glyph-name="Agrave" unicode="&#xc0;" horiz-adv-x="557" 
d="M129 0l38 136h220l37 -136h136l-199 675h-160l-204 -675h132zM234 372q10 34 45 182q7 -27 20 -85q16 -70 22 -91l39 -142h-164zM152 829l63 94l191 -134l-50 -77z" />
    <glyph glyph-name="Amacron" unicode="&#x100;" horiz-adv-x="557" 
d="M129 0l38 136h220l37 -136h136l-199 675h-160l-204 -675h132zM234 372q10 34 45 182q7 -27 20 -85q16 -70 22 -91l39 -142h-164zM147 854v-100h280v100h-280z" />
    <glyph glyph-name="Aogonek" unicode="&#x104;" horiz-adv-x="557" 
d="M129 0l38 136h220l37 -136h6q-66 -56 -67 -113q0 -76 79 -96q23 -6 49 -6q41 0 80 12l-6 86q-20 -6 -38 -6q-48 0 -53 34q-1 4 -1 7q2 51 87 82l-199 675h-160l-204 -675h132zM234 372q10 34 45 182q7 -27 20 -85q16 -70 22 -91l39 -142h-164z" />
    <glyph glyph-name="Aring" unicode="&#xc5;" horiz-adv-x="557" 
d="M129 0l38 136h220l37 -136h136l-198 672q43 36 44 98q0 77 -63 107q-26 13 -55 13q-63 0 -99 -48q-23 -32 -23 -74q1 -60 38 -93h-3l-204 -675h132zM234 372q10 34 45 182q7 -27 20 -85q16 -70 22 -91l39 -142h-164zM243 768q0 38 31 47q7 2 12 2q30 0 40 -29
q3 -10 3 -20q0 -38 -31 -47q-7 -2 -12 -2q-30 0 -40 29q-3 10 -3 20z" />
    <glyph glyph-name="Atilde" unicode="&#xc3;" horiz-adv-x="557" 
d="M129 0l38 136h220l37 -136h136l-199 675h-160l-204 -675h132zM234 372q10 34 45 182q7 -27 20 -85q16 -70 22 -91l39 -142h-164zM350 832q-21 0 -70 23q-37 17 -62 17q-51 0 -111 -57l-6 -6l53 -62q40 30 69 30q21 0 75 -23q39 -17 64 -17q63 1 112 67l-53 58
q-29 -29 -71 -30z" />
    <glyph glyph-name="B" unicode="B" horiz-adv-x="537" 
d="M507 198q0 84 -70 131q-30 20 -67 28q72 21 101 91q12 30 12 60q0 118 -121 156q-48 15 -108 15q-81 0 -194 -4v-675q88 -5 148 -5q232 0 283 116q16 38 16 87zM251 569q81 0 97 -56q3 -12 3 -24q0 -65 -53 -85q-17 -6 -36 -6h-70v169q42 2 59 2zM255 105q-33 0 -63 4
v187h79q83 0 100 -66q3 -14 3 -29q0 -81 -88 -94q-15 -2 -31 -2z" />
    <glyph glyph-name="C" unicode="C" horiz-adv-x="545" 
d="M327 103q-107 0 -142 117q-15 50 -15 116q0 182 84 227q23 12 50 12q75 -2 105 -91l129 30q-40 147 -179 171q-26 5 -54 5q-124 0 -201 -98q-74 -97 -74 -257q0 -191 106 -286q72 -64 172 -64q107 1 216 69l-49 96q-81 -47 -148 -47z" />
    <glyph glyph-name="Cacute" unicode="&#x106;" horiz-adv-x="545" 
d="M327 103q-107 0 -142 117q-15 50 -15 116q0 182 84 227q23 12 50 12q75 -2 105 -91l129 30q-40 147 -179 171q-26 5 -54 5q-124 0 -201 -98q-74 -97 -74 -257q0 -191 106 -286q72 -64 172 -64q107 1 216 69l-49 96q-81 -47 -148 -47zM470 829l-63 94l-191 -134l50 -77z
" />
    <glyph glyph-name="Ccaron" unicode="&#x10c;" horiz-adv-x="545" 
d="M327 103q-107 0 -142 117q-15 50 -15 116q0 182 84 227q23 12 50 12q75 -2 105 -91l129 30q-40 147 -179 171q-26 5 -54 5q-124 0 -201 -98q-74 -97 -74 -257q0 -191 106 -286q72 -64 172 -64q107 1 216 69l-49 96q-81 -47 -148 -47zM301 712l167 130l-50 63l-113 -80
l-115 82l-55 -65z" />
    <glyph glyph-name="Ccedilla" unicode="&#xc7;" horiz-adv-x="545" 
d="M270 -220q95 0 135 59q16 24 16 52q0 59 -62 93q-4 2 -7 4q86 12 172 66l-49 96q-81 -47 -148 -47q-107 0 -142 117q-15 50 -15 116q0 182 84 227q23 12 50 12q75 -2 105 -91l129 30q-40 147 -179 171q-26 5 -54 5q-124 0 -201 -98q-74 -97 -74 -257q0 -190 106 -286
q55 -48 127 -60q57 -29 60 -67q-2 -48 -69 -49q-18 0 -36 3l-2 -90q27 -6 54 -6z" />
    <glyph glyph-name="D" unicode="D" 
d="M60 675v-675q1 0 139 -2q32 -1 54 -1q205 -4 272 169q28 73 28 170q0 240 -149 313q-63 30 -148 29q-30 0 -98 -2q-68 -1 -98 -1zM254 109h-62v457h64q139 0 155 -184q2 -23 2 -47q0 -186 -104 -218q-25 -8 -55 -8z" />
    <glyph glyph-name="Dcaron" unicode="&#x10e;" 
d="M60 675v-675q1 0 139 -2q32 -1 54 -1q205 -4 272 169q28 73 28 170q0 240 -149 313q-63 30 -148 29q-30 0 -98 -2q-68 -1 -98 -1zM254 109h-62v457h64q139 0 155 -184q2 -23 2 -47q0 -186 -104 -218q-25 -8 -55 -8zM270 712l167 130l-50 63l-113 -80l-115 82l-55 -65z
" />
    <glyph glyph-name="Dcroat" unicode="&#x110;" horiz-adv-x="592" 
d="M3 397v-100h68v-297q1 0 139 -2q32 -1 54 -1q205 -4 272 169q28 73 28 170q0 240 -149 313q-63 30 -148 29q-30 0 -98 -2q-68 -1 -98 -1v-278h-68zM265 109h-62v188h108v100h-108v169h64q139 0 155 -184q2 -23 2 -47q0 -186 -104 -218q-25 -8 -55 -8z" />
    <glyph glyph-name="E" unicode="E" horiz-adv-x="466" 
d="M426 110h-234v183h196v108h-196v164h225v110h-357v-675h366v110z" />
    <glyph glyph-name="Eacute" unicode="&#xc9;" horiz-adv-x="466" 
d="M426 110h-234v183h196v108h-196v164h225v110h-357v-675h366v110zM401 829l-63 94l-191 -134l50 -77z" />
    <glyph glyph-name="Ecaron" unicode="&#x11a;" horiz-adv-x="466" 
d="M426 110h-234v183h196v108h-196v164h225v110h-357v-675h366v110zM232 712l167 130l-50 63l-113 -80l-115 82l-55 -65z" />
    <glyph glyph-name="Ecircumflex" unicode="&#xca;" horiz-adv-x="466" 
d="M426 110h-234v183h196v108h-196v164h225v110h-357v-675h366v110zM238 904l-166 -123l52 -65l111 75l111 -77l56 67z" />
    <glyph glyph-name="Edieresis" unicode="&#xcb;" horiz-adv-x="466" 
d="M426 110h-234v183h196v108h-196v164h225v110h-357v-675h366v110zM197 806q0 53 -44 68q-12 4 -23 4q-45 0 -62 -39q-6 -15 -6 -33q0 -56 44 -71q11 -4 23 -4q42 0 60 37q8 17 8 38zM404 806q0 53 -44 68q-12 4 -24 4q-43 0 -60 -37q-7 -16 -7 -35q0 -56 44 -71
q11 -4 22 -4q44 0 62 38q7 17 7 37z" />
    <glyph glyph-name="Edotaccent" unicode="&#x116;" horiz-adv-x="466" 
d="M426 110h-234v183h196v108h-196v164h225v110h-357v-675h366v110zM232 721q49 0 71 42q10 20 10 45q0 59 -49 78q-15 6 -31 6q-50 0 -71 -41q-9 -20 -9 -43q0 -62 49 -81q15 -6 30 -6z" />
    <glyph glyph-name="Egrave" unicode="&#xc8;" horiz-adv-x="466" 
d="M426 110h-234v183h196v108h-196v164h225v110h-357v-675h366v110zM98 829l63 94l191 -134l-50 -77z" />
    <glyph glyph-name="Emacron" unicode="&#x112;" horiz-adv-x="466" 
d="M426 110h-234v183h196v108h-196v164h225v110h-357v-675h366v110zM93 854v-100h280v100h-280z" />
    <glyph glyph-name="Eogonek" unicode="&#x118;" horiz-adv-x="466" 
d="M426 110h-234v183h196v108h-196v164h225v110h-357v-675h236q-66 -56 -67 -113q0 -76 79 -96q23 -6 49 -6q41 0 80 12l-6 86q-20 -6 -38 -6q-48 0 -53 34q-1 4 -1 7q2 51 87 82v110z" />
    <glyph glyph-name="Eth" unicode="&#xd0;" horiz-adv-x="592" 
d="M3 397v-100h68v-297q1 0 139 -2q32 -1 54 -1q205 -4 272 169q28 73 28 170q0 240 -149 313q-63 30 -148 29q-30 0 -98 -2q-68 -1 -98 -1v-278h-68zM265 109h-62v188h108v100h-108v169h64q139 0 155 -184q2 -23 2 -47q0 -186 -104 -218q-25 -8 -55 -8z" />
    <glyph glyph-name="Euro" unicode="&#x20ac;" horiz-adv-x="569" 
d="M549 42l-56 95q-61 -32 -123 -32q-96 2 -127 112h171l18 90h-202q-1 10 -1 29v23h221l18 90h-228q25 113 105 122q7 1 13 1q60 -1 103 -66l93 78q-52 87 -154 104q-20 3 -40 3q-135 0 -210 -123q-32 -53 -47 -119h-73v-90h62q-1 -9 -1 -24q0 -19 1 -28h-62v-90h74
q36 -153 142 -207q47 -24 105 -24q104 1 198 56z" />
    <glyph glyph-name="F" unicode="F" horiz-adv-x="435" 
d="M415 675h-355v-675h132v282h194v108h-194v175h223v110z" />
    <glyph glyph-name="G" unicode="G" horiz-adv-x="584" 
d="M541 39v315h-241v-110h109v-130q-45 -14 -81 -14q-134 0 -154 172q-4 30 -4 64q0 195 95 232q20 8 43 8q77 -2 109 -92l125 30q-33 122 -143 162q-41 15 -90 15q-128 0 -205 -100q-74 -97 -74 -256q0 -232 136 -313q62 -37 146 -37q117 1 229 54z" />
    <glyph glyph-name="Gbreve" unicode="&#x11e;" horiz-adv-x="584" 
d="M541 39v315h-241v-110h109v-130q-45 -14 -81 -14q-134 0 -154 172q-4 30 -4 64q0 195 95 232q20 8 43 8q77 -2 109 -92l125 30q-33 122 -143 162q-41 15 -90 15q-128 0 -205 -100q-74 -97 -74 -256q0 -232 136 -313q62 -37 146 -37q117 1 229 54zM151 883q-1 -95 74 -137
q38 -21 81 -21q78 0 122 57q32 42 32 102l-84 4q-5 -51 -48 -65q-11 -3 -21 -3q-41 0 -61 37q-8 16 -10 34z" />
    <glyph glyph-name="H" unicode="H" horiz-adv-x="605" 
d="M413 0h132v675h-132v-272h-221v272h-132v-675h132v293h221v-293z" />
    <glyph glyph-name="I" unicode="I" horiz-adv-x="252" 
d="M60 675v-675h132v675h-132z" />
    <glyph glyph-name="Iacute" unicode="&#xcd;" horiz-adv-x="252" 
d="M60 675v-675h132v675h-132zM294 829l-63 94l-191 -134l50 -77z" />
    <glyph glyph-name="Icircumflex" unicode="&#xce;" horiz-adv-x="252" 
d="M129 904l-151 -123l52 -65l96 74l96 -76l56 67zM60 675v-675h132v675h-132z" />
    <glyph glyph-name="Idieresis" unicode="&#xcf;" horiz-adv-x="252" 
d="M100 806q0 53 -44 68q-12 4 -23 4q-45 0 -62 -39q-6 -15 -6 -33q0 -56 44 -71q12 -4 23 -4q42 0 60 37q8 17 8 38zM287 806q0 53 -44 68q-12 4 -24 4q-43 0 -60 -37q-7 -16 -7 -35q0 -56 44 -71q11 -4 22 -4q44 0 62 38q7 17 7 37zM60 675v-675h132v675h-132z" />
    <glyph glyph-name="Idotaccent" unicode="&#x130;" horiz-adv-x="252" 
d="M60 675v-675h132v675h-132zM125 726q49 0 71 42q10 20 10 45q0 59 -49 78q-15 6 -31 6q-50 0 -71 -41q-9 -20 -9 -43q0 -62 49 -81q15 -6 30 -6z" />
    <glyph glyph-name="Igrave" unicode="&#xcc;" horiz-adv-x="252" 
d="M60 675v-675h132v675h-132zM-9 829l63 94l191 -134l-50 -77z" />
    <glyph glyph-name="Imacron" unicode="&#x12a;" horiz-adv-x="252" 
d="M1 854v-100h250v100h-250zM60 675v-675h132v675h-132z" />
    <glyph glyph-name="Iogonek" unicode="&#x12e;" horiz-adv-x="252" 
d="M60 675v-675h2q-66 -56 -67 -113q0 -76 79 -96q23 -6 49 -6q41 0 80 12l-6 86q-20 -6 -38 -6q-48 0 -53 34q-1 4 -1 7q2 51 87 82v675h-132z" />
    <glyph glyph-name="J" unicode="J" horiz-adv-x="309" 
d="M102 -15q96 0 139 72q23 40 23 94v524h-132v-507q-1 -71 -55 -72q-29 1 -67 18l-27 -101q62 -28 119 -28z" />
    <glyph glyph-name="K" unicode="K" horiz-adv-x="558" 
d="M553 90q-40 -2 -57 32l-109 236l158 317h-132l-126 -267h-95v267h-132v-675h132v298h90l99 -227q38 -85 119 -86q25 0 58 8z" />
    <glyph glyph-name="L" unicode="L" horiz-adv-x="413" 
d="M403 0v110h-216v565h-132v-675h348z" />
    <glyph glyph-name="Lacute" unicode="&#x139;" horiz-adv-x="413" 
d="M403 0v110h-216v565h-132v-675h348zM288 829l-63 94l-191 -134l50 -77z" />
    <glyph glyph-name="Lcaron" unicode="&#x13d;" horiz-adv-x="413" 
d="M403 0v110h-216v565h-132v-675h348zM407 610q0 57 -45 75q-14 5 -27 5q-43 0 -62 -38q-7 -17 -8 -38q0 -43 38 -60q6 -3 11 -4q-7 -33 -46 -100q-1 -2 -1 -3l43 -27q77 81 94 162q3 15 3 28z" />
    <glyph glyph-name="Lslash" unicode="&#x141;" horiz-adv-x="418" 
d="M403 0v110h-216v194l123 50l-36 88l-87 -36v269h-132v-323l-84 -34l36 -88l48 20v-250h348z" />
    <glyph glyph-name="M" unicode="M" horiz-adv-x="750" 
d="M144 0l35 387q7 79 10 101q15 -72 22 -98l95 -369l123 4l100 360q13 48 26 108q4 -76 7 -105l33 -388h130l-78 675h-148l-105 -407q-8 -28 -19 -86q-12 70 -15 81l-104 412h-153l-80 -675h121z" />
    <glyph glyph-name="N" unicode="N" horiz-adv-x="612" 
d="M552 0v675h-121v-431l-258 440l-113 -9v-675h121v433l263 -443z" />
    <glyph glyph-name="Nacute" unicode="&#x143;" horiz-adv-x="612" 
d="M552 0v675h-121v-431l-258 440l-113 -9v-675h121v433l263 -443zM469 829l-63 94l-191 -134l50 -77z" />
    <glyph glyph-name="Ncaron" unicode="&#x147;" horiz-adv-x="612" 
d="M552 0v675h-121v-431l-258 440l-113 -9v-675h121v433l263 -443zM300 712l167 130l-50 63l-113 -80l-115 82l-55 -65z" />
    <glyph glyph-name="Ntilde" unicode="&#xd1;" horiz-adv-x="612" 
d="M552 0v675h-121v-431l-258 440l-113 -9v-675h121v433l263 -443zM364 832q-21 0 -70 23q-37 17 -62 17q-51 0 -111 -57l-6 -6l53 -62q40 30 69 30q21 0 75 -23q39 -17 64 -17q63 1 112 67l-53 58q-29 -29 -71 -30z" />
    <glyph glyph-name="O" unicode="O" horiz-adv-x="622" 
d="M590 336q0 213 -114 302q-66 52 -163 52q-159 0 -233 -138q-48 -90 -48 -217q0 -206 111 -296q68 -54 168 -54q165 0 237 144q42 87 42 207zM172 336q0 160 71 216q31 23 70 23q99 0 127 -136q10 -47 10 -104q0 -163 -74 -216q-29 -19 -65 -19q-101 0 -130 135
q-9 46 -9 101z" />
    <glyph glyph-name="OE" unicode="&#x152;" horiz-adv-x="805" 
d="M332 -10q7 0 115 8q22 2 38 2h280v110h-234v183h196v108h-196v164h225v110h-289q-15 0 -55 4q-52 6 -76 6q-231 0 -287 -208q-17 -63 -17 -142q0 -320 260 -343q19 -2 40 -2zM331 105q-158 4 -159 231q3 232 159 234q33 0 68 -9v-449q-35 -7 -68 -7z" />
    <glyph glyph-name="Oacute" unicode="&#xd3;" horiz-adv-x="622" 
d="M590 336q0 213 -114 302q-66 52 -163 52q-159 0 -233 -138q-48 -90 -48 -217q0 -206 111 -296q68 -54 168 -54q165 0 237 144q42 87 42 207zM172 336q0 160 71 216q31 23 70 23q99 0 127 -136q10 -47 10 -104q0 -163 -74 -216q-29 -19 -65 -19q-101 0 -130 135
q-9 46 -9 101zM481 824l-63 94l-191 -134l50 -77z" />
    <glyph glyph-name="Ocircumflex" unicode="&#xd4;" horiz-adv-x="622" 
d="M590 336q0 213 -114 302q-66 52 -163 52q-159 0 -233 -138q-48 -90 -48 -217q0 -206 111 -296q68 -54 168 -54q165 0 237 144q42 87 42 207zM172 336q0 160 71 216q31 23 70 23q99 0 127 -136q10 -47 10 -104q0 -163 -74 -216q-29 -19 -65 -19q-101 0 -130 135
q-9 46 -9 101zM318 899l-166 -123l52 -65l111 75l111 -77l56 67z" />
    <glyph glyph-name="Odieresis" unicode="&#xd6;" horiz-adv-x="622" 
d="M590 336q0 213 -114 302q-66 52 -163 52q-159 0 -233 -138q-48 -90 -48 -217q0 -206 111 -296q68 -54 168 -54q165 0 237 144q42 87 42 207zM172 336q0 160 71 216q31 23 70 23q99 0 127 -136q10 -47 10 -104q0 -163 -74 -216q-29 -19 -65 -19q-101 0 -130 135
q-9 46 -9 101zM277 801q0 53 -44 68q-12 4 -23 4q-45 0 -62 -39q-6 -15 -6 -33q0 -56 44 -71q11 -4 23 -4q42 0 60 37q8 17 8 38zM484 801q0 53 -44 68q-12 4 -24 4q-43 0 -60 -37q-7 -16 -7 -35q0 -56 44 -71q11 -4 22 -4q44 0 62 38q7 17 7 37z" />
    <glyph glyph-name="Ograve" unicode="&#xd2;" horiz-adv-x="622" 
d="M590 336q0 213 -114 302q-66 52 -163 52q-159 0 -233 -138q-48 -90 -48 -217q0 -206 111 -296q68 -54 168 -54q165 0 237 144q42 87 42 207zM172 336q0 160 71 216q31 23 70 23q99 0 127 -136q10 -47 10 -104q0 -163 -74 -216q-29 -19 -65 -19q-101 0 -130 135
q-9 46 -9 101zM178 824l63 94l191 -134l-50 -77z" />
    <glyph glyph-name="Ohungarumlaut" unicode="&#x150;" horiz-adv-x="622" 
d="M590 336q0 213 -114 302q-66 52 -163 52q-159 0 -233 -138q-48 -90 -48 -217q0 -206 111 -296q68 -54 168 -54q165 0 237 144q42 87 42 207zM172 336q0 160 71 216q31 23 70 23q99 0 127 -136q10 -47 10 -104q0 -163 -74 -216q-29 -19 -65 -19q-101 0 -130 135
q-9 46 -9 101zM379 834l-66 80l-168 -143l53 -64zM593 834l-66 80l-168 -143l53 -64z" />
    <glyph glyph-name="Omacron" unicode="&#x14c;" horiz-adv-x="622" 
d="M590 336q0 213 -114 302q-66 52 -163 52q-159 0 -233 -138q-48 -90 -48 -217q0 -206 111 -296q68 -54 168 -54q165 0 237 144q42 87 42 207zM172 336q0 160 71 216q31 23 70 23q99 0 127 -136q10 -47 10 -104q0 -163 -74 -216q-29 -19 -65 -19q-101 0 -130 135
q-9 46 -9 101zM173 849v-100h280v100h-280z" />
    <glyph glyph-name="Oslash" unicode="&#xd8;" horiz-adv-x="622" 
d="M417 766l-31 -84q-36 8 -73 8q-159 0 -233 -138q-48 -90 -48 -217q0 -203 108 -293q7 -5 12 -9l-35 -96l83 -25l30 83q42 -10 81 -10q165 0 237 144q42 87 42 207q0 210 -111 301q-8 6 -14 10l34 94zM172 336q0 160 71 216q31 23 70 23q17 0 33 -5l-144 -398
q-30 62 -30 164zM311 100q-23 0 -41 7l146 403q34 -62 34 -175q0 -163 -74 -216q-29 -19 -65 -19z" />
    <glyph glyph-name="Otilde" unicode="&#xd5;" horiz-adv-x="622" 
d="M590 336q0 213 -114 302q-66 52 -163 52q-159 0 -233 -138q-48 -90 -48 -217q0 -206 111 -296q68 -54 168 -54q165 0 237 144q42 87 42 207zM172 336q0 160 71 216q31 23 70 23q99 0 127 -136q10 -47 10 -104q0 -163 -74 -216q-29 -19 -65 -19q-101 0 -130 135
q-9 46 -9 101zM376 827q-21 0 -70 23q-37 17 -62 17q-51 0 -111 -57l-6 -6l53 -62q40 30 69 30q21 0 75 -23q39 -17 64 -17q63 1 112 67l-53 58q-29 -29 -71 -30z" />
    <glyph glyph-name="P" unicode="P" horiz-adv-x="514" 
d="M197 0v246h62q149 0 210 106q30 52 30 119q0 122 -104 177q-60 31 -137 31q-80 0 -193 -4v-675h132zM260 569q103 -2 104 -112q0 -78 -62 -96q-15 -5 -33 -5h-72v211q42 2 63 2z" />
    <glyph glyph-name="Q" unicode="Q" horiz-adv-x="613" 
d="M590 336q0 213 -114 302q-66 52 -163 52q-159 0 -233 -138q-48 -90 -48 -217q0 -208 113 -297q63 -50 154 -53q7 -107 105 -131q71 -19 170 14l-24 106q-111 -38 -128 23q-1 5 -2 9q126 53 160 220q10 52 10 110zM172 336q0 160 71 216q31 23 70 23q99 0 127 -136
q10 -47 10 -104q0 -163 -74 -216q-29 -19 -65 -19q-101 0 -130 135q-9 46 -9 101z" />
    <glyph glyph-name="R" unicode="R" horiz-adv-x="540" 
d="M197 0v254h62h4l85 -183q36 -77 104 -84q8 -1 16 -1q31 0 57 7l-5 97q-6 -1 -14 -1q-27 1 -40 27l-81 165q92 45 112 150q5 24 5 48q0 143 -136 185q-49 15 -110 15q-78 0 -191 -4v-675h132zM260 569q96 0 106 -81q1 -11 1 -23q0 -70 -54 -93q-20 -8 -44 -8h-72v203
q42 2 63 2z" />
    <glyph glyph-name="Racute" unicode="&#x154;" horiz-adv-x="540" 
d="M197 0v254h66l85 -183q36 -77 104 -84q8 -1 16 -1q31 0 57 7l-5 97q-6 -1 -14 -1q-27 1 -40 27l-81 165q92 45 112 150q5 24 5 48q0 143 -136 185q-49 15 -110 15q-78 0 -191 -4v-675h132zM260 569q96 0 106 -81q1 -11 1 -23q0 -70 -54 -93q-20 -8 -44 -8h-72v203
q42 2 63 2zM424 829l-63 94l-191 -134l50 -77z" />
    <glyph glyph-name="Rcaron" unicode="&#x158;" horiz-adv-x="540" 
d="M197 0v254h66l85 -183q36 -77 104 -84q8 -1 16 -1q31 0 57 7l-5 97q-6 -1 -14 -1q-27 1 -40 27l-81 165q92 45 112 150q5 24 5 48q0 143 -136 185q-49 15 -110 15q-78 0 -191 -4v-675h132zM260 569q96 0 106 -81q1 -11 1 -23q0 -70 -54 -93q-20 -8 -44 -8h-72v203
q42 2 63 2zM255 712l167 130l-50 63l-113 -80l-115 82l-55 -65z" />
    <glyph glyph-name="S" unicode="S" horiz-adv-x="491" 
d="M463 197q0 107 -99 164q-15 9 -101 46q-69 30 -83 64q-5 13 -5 26q0 57 49 76q16 6 33 6q62 0 98 -52q4 -5 7 -10l97 52q-32 86 -131 112q-33 9 -67 9q-100 0 -164 -64q-54 -55 -54 -137q0 -112 98 -170q16 -10 100 -47q69 -30 83 -63q5 -14 5 -28q0 -54 -47 -74
q-18 -7 -38 -7q-84 1 -159 48l-50 -93q96 -70 207 -70q113 0 176 76q45 56 45 136z" />
    <glyph glyph-name="Sacute" unicode="&#x15a;" horiz-adv-x="491" 
d="M463 197q0 107 -99 164q-15 9 -101 46q-69 30 -83 64q-5 13 -5 26q0 57 49 76q16 6 33 6q62 0 98 -52q4 -5 7 -10l97 52q-32 86 -131 112q-33 9 -67 9q-100 0 -164 -64q-54 -55 -54 -137q0 -112 98 -170q16 -10 100 -47q69 -30 83 -63q5 -14 5 -28q0 -54 -47 -74
q-18 -7 -38 -7q-84 1 -159 48l-50 -93q96 -70 207 -70q113 0 176 76q45 56 45 136zM426 829l-63 94l-191 -134l50 -77z" />
    <glyph glyph-name="Scaron" unicode="&#x160;" horiz-adv-x="491" 
d="M463 197q0 107 -99 164q-15 9 -101 46q-69 30 -83 64q-5 13 -5 26q0 57 49 76q16 6 33 6q62 0 98 -52q4 -5 7 -10l97 52q-32 86 -131 112q-33 9 -67 9q-100 0 -164 -64q-54 -55 -54 -137q0 -112 98 -170q16 -10 100 -47q69 -30 83 -63q5 -14 5 -28q0 -54 -47 -74
q-18 -7 -38 -7q-84 1 -159 48l-50 -93q96 -70 207 -70q113 0 176 76q45 56 45 136zM257 712l167 130l-50 63l-113 -80l-115 82l-55 -65z" />
    <glyph glyph-name="T" unicode="T" horiz-adv-x="423" 
d="M5 675v-110h138v-565h132v565h143v110h-413z" />
    <glyph glyph-name="Tcaron" unicode="&#x164;" horiz-adv-x="423" 
d="M5 675v-110h138v-565h132v565h143v110h-413zM211 712l167 130l-50 63l-113 -80l-115 82l-55 -65z" />
    <glyph glyph-name="Thorn" unicode="&#xde;" horiz-adv-x="519" 
d="M259 124q149 0 210 106q30 52 30 119q0 122 -104 177q-60 31 -137 31h-61v118h-132v-675h132v124h62zM260 447q103 -2 104 -112q0 -78 -62 -96q-15 -5 -33 -5h-72v213h63z" />
    <glyph glyph-name="U" unicode="U" 
d="M536 258v417h-132v-410q0 -150 -94 -164q-10 -1 -21 -1q-90 0 -107 93q-5 26 -5 59v423h-132v-418q0 -257 216 -271q12 -1 24 -1q162 0 222 124q29 62 29 149z" />
    <glyph glyph-name="Uacute" unicode="&#xda;" 
d="M536 258v417h-132v-410q0 -150 -94 -164q-10 -1 -21 -1q-90 0 -107 93q-5 26 -5 59v423h-132v-418q0 -257 216 -271q12 -1 24 -1q162 0 222 124q29 62 29 149zM459 829l-63 94l-191 -134l50 -77z" />
    <glyph glyph-name="Ucircumflex" unicode="&#xdb;" 
d="M536 258v417h-132v-410q0 -150 -94 -164q-10 -1 -21 -1q-90 0 -107 93q-5 26 -5 59v423h-132v-418q0 -257 216 -271q12 -1 24 -1q162 0 222 124q29 62 29 149zM296 904l-166 -123l52 -65l111 75l111 -77l56 67z" />
    <glyph glyph-name="Udieresis" unicode="&#xdc;" 
d="M536 258v417h-132v-410q0 -150 -94 -164q-10 -1 -21 -1q-90 0 -107 93q-5 26 -5 59v423h-132v-418q0 -257 216 -271q12 -1 24 -1q162 0 222 124q29 62 29 149zM255 806q0 53 -44 68q-12 4 -23 4q-45 0 -62 -39q-6 -15 -6 -33q0 -56 44 -71q11 -4 23 -4q42 0 60 37
q8 17 8 38zM462 806q0 53 -44 68q-12 4 -24 4q-43 0 -60 -37q-7 -16 -7 -35q0 -56 44 -71q11 -4 22 -4q44 0 62 38q7 17 7 37z" />
    <glyph glyph-name="Ugrave" unicode="&#xd9;" 
d="M536 258v417h-132v-410q0 -150 -94 -164q-10 -1 -21 -1q-90 0 -107 93q-5 26 -5 59v423h-132v-418q0 -257 216 -271q12 -1 24 -1q162 0 222 124q29 62 29 149zM156 829l63 94l191 -134l-50 -77z" />
    <glyph glyph-name="Uhungarumlaut" unicode="&#x170;" 
d="M536 258v417h-132v-410q0 -150 -94 -164q-10 -1 -21 -1q-90 0 -107 93q-5 26 -5 59v423h-132v-418q0 -257 216 -271q12 -1 24 -1q162 0 222 124q29 62 29 149zM357 839l-66 80l-168 -143l53 -64zM571 839l-66 80l-168 -143l53 -64z" />
    <glyph glyph-name="Umacron" unicode="&#x16a;" 
d="M536 258v417h-132v-410q0 -150 -94 -164q-10 -1 -21 -1q-90 0 -107 93q-5 26 -5 59v423h-132v-418q0 -257 216 -271q12 -1 24 -1q162 0 222 124q29 62 29 149zM151 854v-100h280v100h-280z" />
    <glyph glyph-name="Uogonek" unicode="&#x172;" 
d="M536 258v417h-132v-410q0 -150 -94 -164q-10 -1 -21 -1q-90 0 -107 93q-5 26 -5 59v423h-132v-418q1 -240 190 -269q-53 -50 -54 -101q0 -76 79 -96q23 -6 49 -6q41 0 80 12l-6 86q-20 -6 -38 -6q-48 0 -53 34q-1 4 -1 7q2 47 71 76q141 35 168 191q6 35 6 73z" />
    <glyph glyph-name="Uring" unicode="&#x16e;" 
d="M536 258v417h-132v-410q0 -150 -94 -164q-10 -1 -21 -1q-90 0 -107 93q-5 26 -5 59v423h-132v-418q0 -257 216 -271q12 -1 24 -1q162 0 222 124q29 62 29 149zM411 811q0 77 -63 107q-26 13 -55 13q-63 0 -99 -48q-23 -32 -23 -74q0 -78 62 -110q26 -13 55 -13
q64 0 100 49q23 33 23 76zM248 809q0 38 31 47q7 2 12 2q30 0 40 -29q3 -10 3 -20q0 -38 -31 -47q-7 -2 -12 -2q-30 0 -40 29q-3 10 -3 20z" />
    <glyph glyph-name="V" unicode="V" horiz-adv-x="558" 
d="M364 0l194 675h-139l-98 -363q-16 -56 -39 -179q-24 114 -40 174l-99 368h-143l192 -675h172z" />
    <glyph glyph-name="W" unicode="W" horiz-adv-x="840" 
d="M302 0l99 363q11 41 19 83q11 -54 18 -80l96 -366h113l173 675h-129l-76 -365q-6 -31 -19 -119q-13 85 -21 116l-88 347l-127 -4l-86 -340q-5 -19 -22 -121q-9 86 -16 118l-79 368h-137l165 -675h117z" />
    <glyph glyph-name="W.001" horiz-adv-x="840" 
d="M302 0l99 363q11 41 19 83q11 -54 18 -80l96 -366h113l173 675h-129l-76 -365q-6 -31 -19 -119q-13 85 -21 116l-88 347l-127 -4l-86 -340q-5 -19 -22 -121q-9 86 -16 118l-79 368h-137l165 -675h117z" />
    <glyph glyph-name="X" unicode="X" horiz-adv-x="569" 
d="M564 95q-36 -1 -54 23q-3 4 -5 7l-136 211l192 339h-130l-132 -227l-136 227h-153l207 -327l-212 -348h148l133 238l106 -168q48 -76 108 -84q9 -1 19 -1q24 0 50 6z" />
    <glyph glyph-name="Y" unicode="Y" horiz-adv-x="548" 
d="M338 0v253l209 422h-141l-88 -197q-17 -38 -43 -111q-33 87 -44 111l-89 197h-141l205 -421v-254h132z" />
    <glyph glyph-name="Yacute" unicode="&#xdd;" horiz-adv-x="548" 
d="M338 0v253l209 422h-141l-88 -197q-17 -38 -43 -111q-33 87 -44 111l-89 197h-141l205 -421v-254h132zM443 829l-63 94l-191 -134l50 -77z" />
    <glyph glyph-name="Ydieresis" unicode="&#x178;" horiz-adv-x="548" 
d="M338 0v253l209 422h-141l-88 -197q-17 -38 -43 -111q-33 87 -44 111l-89 197h-141l205 -421v-254h132zM239 806q0 53 -44 68q-12 4 -23 4q-45 0 -62 -39q-6 -15 -6 -33q0 -56 44 -71q12 -4 23 -4q42 0 60 37q8 17 8 38zM446 806q0 53 -44 68q-12 4 -24 4q-43 0 -60 -37
q-7 -16 -7 -35q0 -56 44 -71q11 -4 22 -4q44 0 62 38q7 17 7 37z" />
    <glyph glyph-name="Z" unicode="Z" horiz-adv-x="481" 
d="M174 116l281 448l1 111h-421v-114h273l-283 -454v-107h431v116h-282z" />
    <glyph glyph-name="Zacute" unicode="&#x179;" horiz-adv-x="481" 
d="M174 116l281 448l1 111h-421v-114h273l-283 -454v-107h431v116h-282zM413 829l-63 94l-191 -134l50 -77z" />
    <glyph glyph-name="Zcaron" unicode="&#x17d;" horiz-adv-x="481" 
d="M174 116l281 448l1 111h-421v-114h273l-283 -454v-107h431v116h-282zM244 712l167 130l-50 63l-113 -80l-115 82l-55 -65z" />
    <glyph glyph-name="Zdotaccent" unicode="&#x17b;" horiz-adv-x="481" 
d="M174 116l281 448l1 111h-421v-114h273l-283 -454v-107h431v116h-282zM244 721q49 0 71 42q10 20 10 45q0 59 -49 78q-15 6 -31 6q-50 0 -71 -41q-9 -20 -9 -43q0 -62 49 -81q15 -6 30 -6z" />
    <glyph glyph-name="a" unicode="a" horiz-adv-x="457" 
d="M396 -15q29 0 56 7l-4 95q-6 -1 -14 -1q-30 0 -34 32q-1 7 -1 15v203q0 130 -100 166q-33 12 -73 12q-101 0 -190 -50l-6 -4l43 -94q75 40 122 40q73 -2 74 -75v-26q-15 1 -37 1q-141 0 -194 -81q-23 -36 -23 -83q0 -93 72 -135q37 -22 81 -22q74 0 116 55q7 8 11 16
q20 -70 101 -71zM198 89q-38 0 -49 35q-3 9 -3 18q6 77 94 79q20 0 29 -1v-24q0 -89 -44 -103q-12 -4 -27 -4z" />
    <glyph glyph-name="aacute" unicode="&#xe1;" horiz-adv-x="457" 
d="M396 -15q29 0 56 7l-4 95q-6 -1 -14 -1q-30 0 -34 32q-1 7 -1 15v203q0 130 -100 166q-33 12 -73 12q-101 0 -190 -50l-6 -4l43 -94q75 40 122 40q73 -2 74 -75v-26q-15 1 -37 1q-141 0 -194 -81q-23 -36 -23 -83q0 -93 72 -135q37 -22 81 -22q74 0 116 55q7 8 11 16
q20 -70 101 -71zM198 89q-38 0 -49 35q-3 9 -3 18q6 77 94 79q20 0 29 -1v-24q0 -89 -44 -103q-12 -4 -27 -4zM390 669l-63 94l-191 -134l50 -77z" />
    <glyph glyph-name="abreve" unicode="&#x103;" horiz-adv-x="457" 
d="M396 -15q29 0 56 7l-4 95q-6 -1 -14 -1q-30 0 -34 32q-1 7 -1 15v203q0 130 -100 166q-33 12 -73 12q-101 0 -190 -50l-6 -4l43 -94q75 40 122 40q73 -2 74 -75v-26q-15 1 -37 1q-141 0 -194 -81q-23 -36 -23 -83q0 -93 72 -135q37 -22 81 -22q74 0 116 55q7 8 11 16
q20 -70 101 -71zM198 89q-38 0 -49 35q-3 9 -3 18q6 77 94 79q20 0 29 -1v-24q0 -89 -44 -103q-12 -4 -27 -4zM67 723q-1 -95 74 -137q38 -21 81 -21q78 0 122 57q32 42 32 102l-84 4q-5 -51 -48 -65q-11 -3 -21 -3q-41 0 -61 37q-8 16 -10 34z" />
    <glyph glyph-name="acircumflex" unicode="&#xe2;" horiz-adv-x="457" 
d="M396 -15q29 0 56 7l-4 95q-6 -1 -14 -1q-30 0 -34 32q-1 7 -1 15v203q0 130 -100 166q-33 12 -73 12q-101 0 -190 -50l-6 -4l43 -94q75 40 122 40q73 -2 74 -75v-26q-15 1 -37 1q-141 0 -194 -81q-23 -36 -23 -83q0 -93 72 -135q37 -22 81 -22q74 0 116 55q7 8 11 16
q20 -70 101 -71zM198 89q-38 0 -49 35q-3 9 -3 18q6 77 94 79q20 0 29 -1v-24q0 -89 -44 -103q-12 -4 -27 -4zM227 744l-166 -123l52 -65l111 75l111 -77l56 67z" />
    <glyph glyph-name="acute" unicode="&#xb4;" horiz-adv-x="321" 
d="M298 669l-63 94l-191 -134l50 -77z" />
    <glyph glyph-name="adieresis" unicode="&#xe4;" horiz-adv-x="457" 
d="M396 -15q29 0 56 7l-4 95q-6 -1 -14 -1q-30 0 -34 32q-1 7 -1 15v203q0 130 -100 166q-33 12 -73 12q-101 0 -190 -50l-6 -4l43 -94q75 40 122 40q73 -2 74 -75v-26q-15 1 -37 1q-141 0 -194 -81q-23 -36 -23 -83q0 -93 72 -135q37 -22 81 -22q74 0 116 55q7 8 11 16
q20 -70 101 -71zM198 89q-38 0 -49 35q-3 9 -3 18q6 77 94 79q20 0 29 -1v-24q0 -89 -44 -103q-12 -4 -27 -4zM186 646q0 53 -44 68q-12 4 -23 4q-45 0 -62 -39q-6 -15 -6 -33q0 -56 44 -71q12 -4 23 -4q42 0 60 37q8 17 8 38zM393 646q0 53 -44 68q-12 4 -24 4
q-43 0 -60 -37q-7 -16 -7 -35q0 -56 44 -71q11 -4 22 -4q44 0 62 38q7 17 7 37z" />
    <glyph glyph-name="ae" unicode="&#xe6;" horiz-adv-x="716" 
d="M490 415q60 0 72 -72q3 -16 3 -34l-162 -1q14 93 72 105q8 2 15 2zM686 42l-38 86q-70 -38 -131 -38q-82 0 -108 87q-5 18 -8 38h295v35q0 237 -158 262q-20 3 -42 3q-85 -1 -143 -54q-42 53 -127 53q-101 0 -190 -50l-6 -4l43 -94q75 40 122 40q73 -2 74 -75v-26
q-15 1 -37 1q-141 0 -194 -81q-23 -36 -23 -83q0 -93 72 -135q37 -22 81 -22q71 0 118 47q21 22 31 50q63 -96 189 -97q99 1 180 57zM198 89q-38 0 -49 35q-3 9 -3 18q0 71 77 77q8 1 17 1q20 0 29 -1v-23q0 -89 -44 -103q-12 -4 -27 -4z" />
    <glyph glyph-name="agrave" unicode="&#xe0;" horiz-adv-x="457" 
d="M396 -15q29 0 56 7l-4 95q-6 -1 -14 -1q-30 0 -34 32q-1 7 -1 15v203q0 130 -100 166q-33 12 -73 12q-101 0 -190 -50l-6 -4l43 -94q75 40 122 40q73 -2 74 -75v-26q-15 1 -37 1q-141 0 -194 -81q-23 -36 -23 -83q0 -93 72 -135q37 -22 81 -22q74 0 116 55q7 8 11 16
q20 -70 101 -71zM198 89q-38 0 -49 35q-3 9 -3 18q6 77 94 79q20 0 29 -1v-24q0 -89 -44 -103q-12 -4 -27 -4zM87 669l63 94l191 -134l-50 -77z" />
    <glyph glyph-name="amacron" unicode="&#x101;" horiz-adv-x="457" 
d="M396 -15q29 0 56 7l-4 95q-6 -1 -14 -1q-30 0 -34 32q-1 7 -1 15v203q0 130 -100 166q-33 12 -73 12q-101 0 -190 -50l-6 -4l43 -94q75 40 122 40q73 -2 74 -75v-26q-15 1 -37 1q-141 0 -194 -81q-23 -36 -23 -83q0 -93 72 -135q37 -22 81 -22q74 0 116 55q7 8 11 16
q20 -70 101 -71zM198 89q-38 0 -49 35q-3 9 -3 18q6 77 94 79q20 0 29 -1v-24q0 -89 -44 -103q-12 -4 -27 -4zM82 694v-100h280v100h-280z" />
    <glyph glyph-name="ampersand" unicode="&#x26;" horiz-adv-x="669" 
d="M213 592q0 45 43 53q6 1 13 1q48 -4 50 -53q-1 -56 -57 -113q-49 71 -49 112zM283 85q-89 1 -113 68q-8 21 -8 46q1 50 70 114q42 -47 175 -178q-48 -50 -124 -50zM603 371h-128q0 -70 -12 -121q-83 85 -135 145q100 88 118 159q5 20 5 39q0 90 -85 128q-43 19 -96 19
q-103 0 -155 -60q-33 -38 -33 -90q1 -86 82 -196q-88 -74 -114 -123q-20 -38 -20 -75q0 -109 90 -168q67 -43 161 -43q127 2 207 73q23 -23 68 -66l83 85q-54 52 -79 77q43 90 43 217z" />
    <glyph glyph-name="anusvara" unicode="&#xd82;" horiz-adv-x="342" 
d="M120 266q2 -96 51 -98q51 2 52 98q-2 95 -52 97q-48 -8 -51 -97zM22 266q0 117 65 169q36 29 84 29q92 0 130 -92q20 -47 20 -106q0 -152 -92 -189q-27 -10 -58 -10q-114 0 -141 124q-8 35 -8 75z" />
    <glyph glyph-name="aogonek" unicode="&#x105;" horiz-adv-x="460" 
d="M463 -203l-6 86q-20 -6 -38 -6q-48 0 -53 34q-1 4 -1 7q2 49 87 74l-4 95q-6 -1 -14 -1q-30 0 -34 32q-1 7 -1 15v203q0 130 -100 166q-33 12 -73 12q-101 0 -190 -50l-6 -4l43 -94q75 40 122 40q73 -2 74 -75v-26q-15 1 -37 1q-141 0 -194 -81q-23 -36 -23 -83
q0 -93 72 -135q37 -22 81 -22q74 0 116 55q7 8 11 16q12 -44 49 -61q-74 -39 -86 -99q-2 -10 -2 -18q0 -56 59 -80q31 -13 71 -13q39 0 77 12zM198 89q-38 0 -49 35q-3 9 -3 18q6 77 94 79q20 0 29 -1v-24q0 -89 -44 -103q-12 -4 -27 -4z" />
    <glyph glyph-name="approxequal" unicode="&#x2248;" horiz-adv-x="536" 
d="M364 390q-30 0 -98 28q-61 24 -98 24q-76 -1 -145 -81l62 -71q43 37 85 37q29 0 96 -27q61 -25 99 -25q72 0 139 78q3 3 5 6l-62 68q-38 -37 -83 -37zM366 201q-30 0 -98 28q-61 24 -98 24q-76 -1 -145 -81l62 -71q43 37 85 37q29 0 96 -27q61 -25 99 -25q72 0 139 78
q3 3 5 6l-62 68q-38 -37 -83 -37z" />
    <glyph glyph-name="aring" unicode="&#xe5;" horiz-adv-x="457" 
d="M396 -15q29 0 56 7l-4 95q-6 -1 -14 -1q-30 0 -34 32q-1 7 -1 15v203q0 130 -100 166q-33 12 -73 12q-101 0 -190 -50l-6 -4l43 -94q75 40 122 40q73 -2 74 -75v-26q-15 1 -37 1q-141 0 -194 -81q-23 -36 -23 -83q0 -93 72 -135q37 -22 81 -22q74 0 116 55q7 8 11 16
q20 -70 101 -71zM198 89q-38 0 -49 35q-3 9 -3 18q6 77 94 79q20 0 29 -1v-24q0 -89 -44 -103q-12 -4 -27 -4zM342 651q0 77 -63 107q-26 13 -55 13q-63 0 -99 -48q-23 -32 -23 -74q0 -78 62 -110q26 -13 55 -13q64 0 100 49q23 33 23 76zM179 649q0 38 31 47q7 2 12 2
q30 0 40 -29q3 -10 3 -20q0 -38 -31 -47q-7 -2 -12 -2q-30 0 -40 29q-3 10 -3 20z" />
    <glyph glyph-name="asciicircum" unicode="^" horiz-adv-x="525" 
d="M263 690l-223 -310l77 -50l145 208l143 -208l80 53z" />
    <glyph glyph-name="asciitilde" unicode="~" horiz-adv-x="536" 
d="M511 266l-62 72q-38 -37 -83 -37q-30 0 -98 28q-61 24 -98 24q-76 -1 -145 -81l62 -75q43 37 85 37q29 0 96 -27q61 -25 99 -25q72 0 139 78q3 3 5 6z" />
    <glyph glyph-name="asterisk" unicode="*" horiz-adv-x="359" 
d="M198 601l20 72q12 44 -21 57q-29 10 -67 -12l31 -117h37zM156 597l-62 42q-37 26 -60 -1q-19 -24 -10 -68l121 -6zM147 557l-60 -46q-36 -28 -17 -58q18 -25 62 -30l43 113zM182 535l26 -71q14 -42 47 -35q31 9 50 50l-95 76zM212 562l76 2q43 1 47 33t-31 64l-102 -66z
" />
    <glyph glyph-name="at" unicode="@" horiz-adv-x="784" 
d="M579 -38l-29 83q-82 -30 -157 -30q-140 0 -208 116q-42 73 -42 169q0 142 81 226q72 73 184 73q127 0 190 -92q46 -67 46 -170q0 -128 -49 -150q-13 -5 -29 -5q-21 0 -23 24q-1 6 -1 13v159q0 108 -85 137q-26 8 -55 8q-87 -1 -155 -42l34 -81q61 32 96 32q56 -2 57 -57
v-18q-12 1 -28 1q-121 0 -161 -73q-15 -27 -15 -60q0 -84 67 -115q27 -12 59 -12q64 0 97 52l3 6q17 -57 100 -58q106 0 161 90q37 63 37 150q0 199 -137 292q-87 60 -210 60q-191 0 -294 -137q-80 -106 -80 -252q0 -163 92 -268q95 -109 254 -109q91 0 200 38zM379 185
q-28 0 -37 27q-2 7 -2 13q2 60 72 61q15 0 22 -1v-17q0 -69 -32 -80q-10 -3 -23 -3z" />
    <glyph glyph-name="atilde" unicode="&#xe3;" horiz-adv-x="457" 
d="M396 -15q29 0 56 7l-4 95q-6 -1 -14 -1q-30 0 -34 32q-1 7 -1 15v203q0 130 -100 166q-33 12 -73 12q-101 0 -190 -50l-6 -4l43 -94q75 40 122 40q73 -2 74 -75v-26q-15 1 -37 1q-141 0 -194 -81q-23 -36 -23 -83q0 -93 72 -135q37 -22 81 -22q74 0 116 55q7 8 11 16
q20 -70 101 -71zM198 89q-38 0 -49 35q-3 9 -3 18q6 77 94 79q20 0 29 -1v-24q0 -89 -44 -103q-12 -4 -27 -4zM285 672q-21 0 -70 23q-37 17 -62 17q-51 0 -111 -57l-6 -6l53 -62q40 30 69 30q21 0 75 -23q39 -17 64 -17q63 1 112 67l-53 58q-29 -29 -71 -30z" />
    <glyph glyph-name="b" unicode="b" horiz-adv-x="511" 
d="M488 276q0 145 -83 207q-43 32 -100 32q-68 -1 -112 -49l-2 259h-130l-1 -695q98 -45 185 -45q138 0 202 111q41 72 41 180zM190 104l1 180q0 107 59 125q11 3 22 3q53 0 74 -68q9 -31 9 -70q0 -166 -86 -182q-9 -2 -18 -2q-27 0 -61 14z" />
    <glyph glyph-name="backslash" unicode="\" horiz-adv-x="415" 
d="M294 -70l119 1l-293 794h-117z" />
    <glyph glyph-name="bar" unicode="|" horiz-adv-x="262" 
d="M82 725l-2 -795h102v795h-100z" />
    <glyph glyph-name="braceleft" unicode="{" horiz-adv-x="363" 
d="M341 -193l-4 99q-9 -1 -23 -1q-55 0 -62 37q-1 8 -1 16v213q0 94 -90 123q-2 1 -4 1q92 28 93 125v208q0 44 40 51q11 2 25 2q13 0 21 -1l4 99q-44 9 -80 9q-129 -2 -130 -128v-231q0 -63 -54 -81q-15 -5 -31 -6v-94q64 -2 81 -56q5 -15 5 -31v-235q2 -127 130 -128
q37 0 80 9z" />
    <glyph glyph-name="braceright" unicode="}" horiz-adv-x="355" 
d="M14 779l4 -99q9 1 23 1q55 0 62 -37q1 -8 1 -16v-213q0 -94 90 -123q2 -1 4 -1q-92 -28 -93 -125v-208q0 -44 -40 -51q-11 -2 -25 -2q-13 0 -21 1l-4 -99q44 -9 80 -9q129 2 130 128v231q0 63 54 81q15 5 31 6v94q-64 2 -81 56q-5 15 -5 31v235q-2 127 -130 128
q-37 0 -80 -9z" />
    <glyph glyph-name="bracketleft" unicode="[" horiz-adv-x="328" 
d="M303 -186v120h-107v719h107v120h-228v-959h228z" />
    <glyph glyph-name="bracketright" unicode="]" horiz-adv-x="318" 
d="M15 778v-120h107v-719h-107v-120h228v959h-228z" />
    <glyph glyph-name="breve" unicode="&#x2d8;" horiz-adv-x="409" 
d="M50 723q-1 -95 74 -137q38 -21 81 -21q78 0 122 57q32 42 32 102l-84 4q-5 -51 -48 -65q-11 -3 -21 -3q-41 0 -61 37q-8 16 -10 34z" />
    <glyph glyph-name="brokenbar" unicode="&#xa6;" horiz-adv-x="262" 
d="M82 235l-2 -305h102v305h-100zM82 725l-2 -305h102v305h-100z" />
    <glyph glyph-name="bullet" unicode="&#x2022;" horiz-adv-x="346" 
d="M301 294q0 69 -54 108q-32 24 -74 24q-68 0 -106 -56q-22 -34 -22 -76q0 -69 54 -108q33 -24 74 -24q68 0 106 56q22 34 22 76z" />
    <glyph glyph-name="c" unicode="c" horiz-adv-x="423" 
d="M413 39l-36 88q-66 -33 -109 -33q-110 2 -111 157q1 157 86 158q41 0 65 -55q3 -9 7 -19l107 40q-43 125 -152 137q-14 2 -28 2q-120 0 -179 -98q-39 -67 -39 -163q0 -181 109 -242q47 -26 107 -26q82 1 173 54z" />
    <glyph glyph-name="cacute" unicode="&#x107;" horiz-adv-x="423" 
d="M413 39l-36 88q-66 -33 -109 -33q-110 2 -111 157q1 157 86 158q41 0 65 -55q3 -9 7 -19l107 40q-43 125 -152 137q-14 2 -28 2q-120 0 -179 -98q-39 -67 -39 -163q0 -181 109 -242q47 -26 107 -26q82 1 173 54zM413 669l-63 94l-191 -134l50 -77z" />
    <glyph glyph-name="caron" unicode="&#x2c7;" horiz-adv-x="453" 
d="M226 552l167 130l-50 63l-113 -80l-115 82l-55 -65z" />
    <glyph glyph-name="ccaron" unicode="&#x10d;" horiz-adv-x="423" 
d="M413 39l-36 88q-66 -33 -109 -33q-110 2 -111 157q1 157 86 158q41 0 65 -55q3 -9 7 -19l107 40q-43 125 -152 137q-14 2 -28 2q-120 0 -179 -98q-39 -67 -39 -163q0 -181 109 -242q47 -26 107 -26q82 1 173 54zM244 552l167 130l-50 63l-113 -80l-115 82l-55 -65z" />
    <glyph glyph-name="ccedilla" unicode="&#xe7;" horiz-adv-x="423" 
d="M198 -220q95 0 135 59q16 24 16 52q0 59 -62 93q-4 2 -7 4q61 9 133 51l-36 88q-66 -33 -109 -33q-110 2 -111 157q1 157 86 158q41 0 65 -55q3 -9 7 -19l107 40q-43 125 -152 137q-14 2 -28 2q-120 0 -179 -98q-39 -67 -39 -163q0 -185 114 -245q6 -3 11 -5h-2l4 -1
q18 -8 35 -11q59 -30 65 -69q-2 -48 -69 -49q-18 0 -36 3l-2 -90q27 -6 54 -6z" />
    <glyph glyph-name="cedilla" unicode="&#xb8;" horiz-adv-x="425" 
d="M171 -220q95 0 135 59q16 24 16 52q0 58 -60 93q-28 15 -62 21l-80 -2q81 -19 100 -63q4 -10 4 -18q-2 -48 -69 -49q-18 0 -36 3l-2 -90q27 -6 54 -6z" />
    <glyph glyph-name="cent" unicode="&#xa2;" horiz-adv-x="434" 
d="M410 59l-36 88q-66 -33 -109 -33q-104 0 -111 129v18q0 133 71 147q8 1 15 1q41 0 65 -55q3 -9 7 -19l107 40q-41 118 -141 136v76h-88v-78q-102 -21 -145 -121q-24 -56 -24 -125q0 -165 101 -228q31 -19 68 -26v-81h88v80q63 11 132 51z" />
    <glyph glyph-name="circumflex" unicode="&#x2c6;" horiz-adv-x="453" 
d="M227 744l-166 -123l52 -65l111 75l111 -77l56 67z" />
    <glyph glyph-name="colon" unicode=":" horiz-adv-x="248" 
d="M203 336q0 61 -49 80q-15 6 -30 6q-50 0 -70 -43q-9 -19 -9 -43q0 -66 50 -84q14 -5 28 -5q49 0 70 43q10 21 10 46zM203 74q0 61 -49 80q-15 6 -30 6q-50 0 -70 -43q-9 -19 -9 -43q0 -66 50 -84q14 -5 28 -5q49 0 70 43q10 21 10 46z" />
    <glyph glyph-name="comma" unicode="," horiz-adv-x="232" 
d="M199 66q0 66 -51 88q-18 8 -36 8q-49 0 -73 -43q-11 -21 -11 -48q0 -51 42 -72q9 -4 17 -6q-9 -37 -54 -119q-2 -3 -3 -5l52 -33q88 92 111 187q6 24 6 43z" />
    <glyph glyph-name="copyright" unicode="&#xa9;" horiz-adv-x="775" 
d="M745 339q0 178 -126 276q-97 75 -226 75q-143 0 -244 -87q-115 -100 -115 -267q0 -179 127 -277q97 -74 226 -74q143 0 243 87q115 100 115 267zM535 168l-40 72q-53 -31 -94 -31q-70 0 -85 83q-3 19 -3 41q1 128 78 129q40 0 60 -45q2 -6 4 -11l89 24q-28 108 -140 115
h-14q-88 0 -140 -70q-43 -58 -43 -143q0 -116 80 -174q47 -34 109 -34q71 1 139 44zM139 338q0 151 104 223q64 44 145 44q116 0 188 -80q64 -74 64 -188q0 -154 -106 -225q-62 -42 -142 -42q-118 0 -189 81q-64 73 -64 187z" />
    <glyph glyph-name="currency" unicode="&#xa4;" horiz-adv-x="513" 
d="M482 250q-1 94 -48 157l61 80l-71 54l-58 -79q-47 23 -107 23q-62 0 -112 -25l-60 81l-72 -54l63 -82q-50 -64 -50 -157q1 -94 48 -155l-61 -80l72 -53l58 78q45 -23 105 -23q63 0 114 24l61 -80l70 54l-62 81q49 64 49 156zM161 250q0 83 49 116q21 14 46 14
q59 0 83 -64q11 -30 11 -68q0 -84 -50 -115q-21 -13 -45 -13q-59 0 -83 64q-11 30 -11 66z" />
    <glyph glyph-name="d" unicode="d" horiz-adv-x="514" 
d="M330 725v-217q-31 7 -64 7q-141 0 -202 -121q-35 -68 -35 -158q0 -137 71 -206q47 -45 113 -45q83 1 131 72q22 -88 133 -70q10 2 19 4l-5 95q-30 -2 -31 28v611h-130zM246 88q-59 0 -77 90q-7 32 -7 70q0 127 69 155q17 7 36 7q33 0 63 -12v-182q0 -104 -59 -124
q-12 -4 -25 -4z" />
    <glyph glyph-name="dagger" unicode="&#x2020;" horiz-adv-x="458" 
d="M282 -55l17 298l-15 180l149 -6v105l-150 -6l16 180h-140l16 -180l-150 6v-105l149 6l-15 -180l17 -298h106z" />
    <glyph glyph-name="daggerdbl" unicode="&#x2021;" horiz-adv-x="458" 
d="M433 119v105l-149 -6l15 105l-15 100l149 -6v105l-150 -6l16 180h-140l16 -180l-150 6v-105l149 6l-15 -100l15 -105l-149 6v-105l150 6l-16 -180h140l-16 180z" />
    <glyph glyph-name="dcaron" unicode="&#x10f;" horiz-adv-x="611" 
d="M330 725v-217q-31 7 -64 7q-141 0 -202 -121q-35 -68 -35 -158q0 -137 71 -206q47 -45 113 -45q83 1 131 72q22 -88 133 -70q10 2 19 4l-5 95q-30 -2 -31 28v611h-130zM246 88q-59 0 -77 90q-7 32 -7 70q0 127 69 155q17 7 36 7q33 0 63 -12v-182q0 -104 -59 -124
q-12 -4 -25 -4zM630 630q0 57 -45 75q-14 5 -27 5q-43 0 -62 -38q-7 -17 -8 -38q0 -43 38 -60q6 -3 11 -4q-7 -33 -46 -100q-1 -2 -1 -3l43 -27q77 81 94 162q3 15 3 28z" />
    <glyph glyph-name="dcroat" unicode="&#x111;" horiz-adv-x="504" 
d="M201 653v-85h129v-60q-31 7 -64 7q-141 0 -202 -121q-35 -68 -35 -158q0 -137 71 -206q47 -45 113 -45q83 1 131 72q22 -88 133 -70q10 2 19 4l-5 95q-30 -2 -31 28v454h53v85h-53v72h-130v-72h-129zM246 88q-59 0 -77 90q-7 32 -7 70q0 127 69 155q17 7 36 7
q33 0 63 -12v-182q0 -104 -59 -124q-12 -4 -25 -4z" />
    <glyph glyph-name="degree" unicode="&#xb0;" horiz-adv-x="381" 
d="M192 754q-80 0 -127 -58q-35 -45 -35 -108q0 -93 75 -136q37 -21 82 -21q79 0 128 56q36 44 36 104q0 98 -76 141q-38 22 -83 22zM190 520q-42 0 -59 39q-6 16 -6 35q0 50 41 66q13 5 25 5q40 0 58 -38q7 -17 7 -38q0 -48 -41 -64q-12 -5 -25 -5z" />
    <glyph glyph-name="dieresis" unicode="&#xa8;" horiz-adv-x="508" 
d="M218 646q0 53 -44 68q-12 4 -23 4q-45 0 -62 -39q-6 -15 -6 -33q0 -56 44 -71q11 -4 23 -4q42 0 60 37q8 17 8 38zM425 646q0 53 -44 68q-12 4 -24 4q-43 0 -60 -37q-7 -16 -7 -35q0 -56 44 -71q11 -4 22 -4q44 0 62 38q7 17 7 37z" />
    <glyph glyph-name="divide" unicode="&#xf7;" horiz-adv-x="574" 
d="M534 213v110h-494v-110h494zM362 85q0 58 -47 77q-14 5 -28 5q-47 0 -66 -41q-9 -19 -9 -41q0 -63 48 -80q13 -5 26 -5q46 0 66 41q10 20 10 44zM362 454q0 58 -47 77q-13 5 -28 5q-47 0 -66 -41q-9 -19 -9 -41q0 -63 48 -80q13 -5 26 -5q46 0 66 41q10 20 10 44z" />
    <glyph glyph-name="dollar" unicode="$" horiz-adv-x="551" 
d="M328 -97v88q101 23 142 109q21 44 21 97q0 107 -99 164q-15 9 -101 46q-69 30 -83 64q-5 13 -5 26q0 57 49 76q16 6 33 6q62 0 98 -52q4 -5 7 -10l97 52q-32 85 -128 111q-16 5 -31 7v85h-90v-87q-97 -20 -142 -97q-25 -44 -25 -99q0 -112 98 -170q16 -10 100 -47
q69 -30 83 -63q5 -14 5 -28q0 -54 -47 -74q-18 -7 -38 -7q-77 0 -156 49q-2 1 -3 2l-53 -93q86 -61 178 -71v-84h90z" />
    <glyph glyph-name="dotaccent" unicode="&#x2d9;" horiz-adv-x="246" 
d="M122 561q49 0 71 42q10 20 10 45q0 59 -49 78q-15 6 -31 6q-50 0 -71 -41q-9 -20 -9 -43q0 -62 49 -81q15 -6 30 -6z" />
    <glyph glyph-name="dotlessi" unicode="&#x131;" horiz-adv-x="245" 
d="M187 0v500h-130v-500h130z" />
    <glyph glyph-name="dottedcircle" unicode="&#x25cc;" horiz-adv-x="689" 
d="M57 166q0 36 32 53q14 7 28 7q39 0 55 -34q6 -13 6 -26q0 -37 -33 -54q-14 -7 -28 -7q-37 0 -53 34q-7 13 -7 27zM153 70q0 37 34 53q13 7 27 7q36 0 53 -32q7 -14 7 -28q0 -37 -33 -54q-13 -7 -27 -7q-36 0 -54 32q-7 14 -7 29zM511 166q0 37 33 53q14 7 28 7
q36 0 53 -32q7 -14 7 -28q0 -37 -33 -54q-13 -7 -27 -7q-37 0 -54 34q-7 13 -7 27zM415 70q0 36 32 53q14 7 28 7q37 0 54 -33q7 -13 7 -27q0 -36 -32 -54q-14 -7 -29 -7q-37 0 -53 34q-7 13 -7 27zM57 428q0 37 33 54q13 7 27 7q37 0 54 -34q7 -13 7 -27q0 -37 -33 -53
q-14 -7 -28 -7q-36 0 -53 32q-7 14 -7 28zM153 524q0 36 32 54q14 7 29 7q37 0 53 -34q7 -13 7 -27q0 -36 -32 -53q-14 -7 -28 -7q-37 0 -54 33q-7 13 -7 27zM511 428q0 37 33 54q14 7 28 7q37 0 53 -34q7 -13 7 -27q0 -36 -32 -53q-14 -7 -28 -7q-39 0 -55 34q-6 13 -6 26z
M415 524q0 37 33 54q13 7 27 7q36 0 54 -32q7 -14 7 -29q0 -37 -34 -53q-13 -7 -27 -7q-36 0 -53 32q-7 14 -7 28zM22 297q0 37 33 54q14 7 28 7q37 0 53 -34q7 -13 7 -27q0 -36 -32 -53q-14 -7 -28 -7q-39 0 -55 34q-6 13 -6 26zM546 297q0 37 33 54q14 7 28 7q37 0 53 -34
q7 -13 7 -27q0 -36 -32 -53q-14 -7 -28 -7q-39 0 -55 34q-6 13 -6 26zM284 559q0 37 33 54q14 7 28 7q37 0 53 -34q7 -13 7 -27q0 -36 -32 -53q-14 -7 -28 -7q-39 0 -55 34q-6 13 -6 26zM284 35q0 37 33 54q14 7 28 7q37 0 53 -34q7 -13 7 -27q0 -37 -33 -54q-13 -7 -27 -7
q-37 0 -54 34q-7 13 -7 27z" />
    <glyph glyph-name="e" unicode="e" horiz-adv-x="479" 
d="M449 42l-38 86q-70 -38 -131 -38q-79 0 -107 81q-6 20 -9 42h295v37q0 222 -140 258q-30 7 -65 7q-113 0 -175 -85q-50 -68 -50 -174q0 -160 102 -231q59 -40 138 -40q99 1 180 57zM253 415q60 0 72 -72q3 -16 3 -34l-162 -1q14 93 72 105q8 2 15 2z" />
    <glyph glyph-name="eacute" unicode="&#xe9;" horiz-adv-x="479" 
d="M449 42l-38 86q-70 -38 -131 -38q-79 0 -107 81q-6 20 -9 42h295v37q0 222 -140 258q-30 7 -65 7q-113 0 -175 -85q-50 -68 -50 -174q0 -160 102 -231q59 -40 138 -40q99 1 180 57zM253 415q60 0 72 -72q3 -16 3 -34l-162 -1q14 93 72 105q8 2 15 2zM422 669l-63 94
l-191 -134l50 -77z" />
    <glyph glyph-name="ecaron" unicode="&#x11b;" horiz-adv-x="479" 
d="M449 42l-38 86q-70 -38 -131 -38q-79 0 -107 81q-6 20 -9 42h295v37q0 222 -140 258q-30 7 -65 7q-113 0 -175 -85q-50 -68 -50 -174q0 -160 102 -231q59 -40 138 -40q99 1 180 57zM253 415q60 0 72 -72q3 -16 3 -34l-162 -1q14 93 72 105q8 2 15 2zM253 552l167 130
l-50 63l-113 -80l-115 82l-55 -65z" />
    <glyph glyph-name="ecircumflex" unicode="&#xea;" horiz-adv-x="479" 
d="M449 42l-38 86q-70 -38 -131 -38q-79 0 -107 81q-6 20 -9 42h295v37q0 222 -140 258q-30 7 -65 7q-113 0 -175 -85q-50 -68 -50 -174q0 -160 102 -231q59 -40 138 -40q99 1 180 57zM253 415q60 0 72 -72q3 -16 3 -34l-162 -1q14 93 72 105q8 2 15 2zM259 744l-166 -123
l52 -65l111 75l111 -77l56 67z" />
    <glyph glyph-name="edieresis" unicode="&#xeb;" horiz-adv-x="479" 
d="M449 42l-38 86q-70 -38 -131 -38q-79 0 -107 81q-6 20 -9 42h295v37q0 222 -140 258q-30 7 -65 7q-113 0 -175 -85q-50 -68 -50 -174q0 -160 102 -231q59 -40 138 -40q99 1 180 57zM253 415q60 0 72 -72q3 -16 3 -34l-162 -1q14 93 72 105q8 2 15 2zM218 646q0 53 -44 68
q-12 4 -23 4q-45 0 -62 -39q-6 -15 -6 -33q0 -56 44 -71q11 -4 23 -4q42 0 60 37q8 17 8 38zM425 646q0 53 -44 68q-12 4 -24 4q-43 0 -60 -37q-7 -16 -7 -35q0 -56 44 -71q11 -4 22 -4q44 0 62 38q7 17 7 37z" />
    <glyph glyph-name="edotaccent" unicode="&#x117;" horiz-adv-x="479" 
d="M449 42l-38 86q-70 -38 -131 -38q-79 0 -107 81q-6 20 -9 42h295v37q0 222 -140 258q-30 7 -65 7q-113 0 -175 -85q-50 -68 -50 -174q0 -160 102 -231q59 -40 138 -40q99 1 180 57zM253 415q60 0 72 -72q3 -16 3 -34l-162 -1q14 93 72 105q8 2 15 2zM253 561q49 0 71 42
q10 20 10 45q0 59 -49 78q-15 6 -31 6q-50 0 -71 -41q-9 -20 -9 -43q0 -62 49 -81q15 -6 30 -6z" />
    <glyph glyph-name="egrave" unicode="&#xe8;" horiz-adv-x="479" 
d="M449 42l-38 86q-70 -38 -131 -38q-79 0 -107 81q-6 20 -9 42h295v37q0 222 -140 258q-30 7 -65 7q-113 0 -175 -85q-50 -68 -50 -174q0 -160 102 -231q59 -40 138 -40q99 1 180 57zM253 415q60 0 72 -72q3 -16 3 -34l-162 -1q14 93 72 105q8 2 15 2zM119 669l63 94
l191 -134l-50 -77z" />
    <glyph glyph-name="eight" unicode="8" horiz-adv-x="533" 
d="M504 184q0 102 -84 156q-17 10 -35 18q89 56 93 152q0 87 -67 138q-56 42 -139 42q-124 0 -183 -83q-33 -47 -33 -103q1 -92 82 -148q-99 -54 -108 -159q-1 -9 -1 -18q0 -94 76 -149q63 -45 159 -45q142 0 206 91q34 48 34 108zM159 197q0 63 49 90q25 14 57 14
q74 0 98 -63q8 -21 8 -44q0 -68 -55 -90q-21 -9 -48 -9q-81 0 -103 65q-6 18 -6 37zM185 492q0 64 51 82q17 6 36 6q67 0 79 -65q2 -11 2 -22q0 -62 -44 -85q-17 -9 -40 -9q-61 0 -79 58q-5 17 -5 35z" />
    <glyph glyph-name="ellipsis" unicode="&#x2026;" horiz-adv-x="710" 
d="M434 74q0 61 -49 80q-15 6 -30 6q-50 0 -70 -43q-9 -19 -9 -43q0 -66 50 -84q14 -5 28 -5q49 0 70 43q10 21 10 46zM664 74q0 61 -49 80q-15 6 -30 6q-50 0 -70 -43q-9 -19 -9 -43q0 -66 50 -84q14 -5 28 -5q49 0 70 43q10 21 10 46zM204 74q0 61 -49 80q-15 6 -30 6
q-50 0 -70 -43q-9 -19 -9 -43q0 -66 50 -84q14 -5 28 -5q49 0 70 43q10 21 10 46z" />
    <glyph glyph-name="emacron" unicode="&#x113;" horiz-adv-x="479" 
d="M449 42l-38 86q-70 -38 -131 -38q-79 0 -107 81q-6 20 -9 42h295v37q0 222 -140 258q-30 7 -65 7q-113 0 -175 -85q-50 -68 -50 -174q0 -160 102 -231q59 -40 138 -40q99 1 180 57zM253 415q60 0 72 -72q3 -16 3 -34l-162 -1q14 93 72 105q8 2 15 2zM114 694v-100h280
v100h-280z" />
    <glyph glyph-name="emdash" unicode="&#x2014;" horiz-adv-x="1000" 
d="M-1 354v-113h1002v113h-1002z" />
    <glyph glyph-name="endash" unicode="&#x2013;" horiz-adv-x="500" 
d="M-1 354v-113h502v113h-502z" />
    <glyph glyph-name="eogonek" unicode="&#x119;" horiz-adv-x="475" 
d="M443 -203l-6 86q-20 -6 -39 -6q-52 2 -53 46q1 46 70 98q17 9 34 21l-38 86q-70 -38 -131 -38q-79 0 -107 81q-6 20 -9 42h295v37q0 222 -140 258q-30 7 -65 7q-113 0 -175 -85q-50 -68 -50 -174q0 -160 102 -231q59 -40 138 -40q14 0 20 1q-53 -49 -54 -102
q0 -59 57 -85q31 -14 71 -14q41 0 80 12zM253 415q60 0 72 -72q3 -16 3 -34l-162 -1q14 93 72 105q8 2 15 2z" />
    <glyph glyph-name="equal" unicode="=" horiz-adv-x="574" 
d="M514 293v105h-454v-105h454zM514 112v105h-454v-105h454z" />
    <glyph glyph-name="estimated" unicode="&#x212e;" horiz-adv-x="703" 
d="M205 73v283h468q0 177 -118 269q-82 63 -189 63q-166 0 -257 -127q-69 -96 -69 -224q0 -146 84 -244q89 -103 233 -103q116 0 214 68q34 23 57 50l-25 25q-63 -74 -171 -99q-38 -9 -75 -9q-87 1 -152 48zM505 616v-225h-300v211q69 51 163 51q83 -1 137 -37z" />
    <glyph glyph-name="eth" unicode="&#xf0;" horiz-adv-x="512" 
d="M485 318q-1 214 -101 329l63 44l-51 67l-78 -55q-64 37 -141 37q-56 0 -111 -18l27 -90q39 8 69 8q33 0 56 -7l-72 -51l50 -67l100 70q44 -51 56 -146q-38 45 -112 45q-104 0 -166 -84q-49 -68 -49 -165q0 -136 85 -204q58 -46 141 -46q226 0 234 310v23zM158 235
q0 97 54 132q21 13 45 13q75 0 93 -92q5 -25 5 -55q0 -98 -56 -131q-20 -12 -43 -12q-58 0 -84 64q-14 35 -14 81z" />
    <glyph glyph-name="exclam" unicode="!" horiz-adv-x="250" 
d="M199 712h-150l20 -507h110zM204 74q0 61 -49 80q-15 6 -30 6q-50 0 -70 -43q-9 -19 -9 -43q0 -66 50 -84q14 -5 28 -5q49 0 70 43q10 21 10 46z" />
    <glyph glyph-name="exclamdown" unicode="&#xa1;" horiz-adv-x="250" 
d="M51 -212h150l-20 507h-110zM46 426q0 -61 49 -80q15 -6 30 -6q50 0 70 43q9 19 9 43q0 66 -50 84q-14 5 -28 5q-49 0 -70 -43q-10 -20 -10 -46z" />
    <glyph glyph-name="f" unicode="f" horiz-adv-x="337" 
d="M317 405v95h-102v68q3 64 50 66q25 -1 53 -16l39 89q-65 33 -125 33q-94 0 -130 -76q-17 -37 -17 -85v-79h-58v-95h58v-405h130v405h102z" />
    <glyph glyph-name="five" unicode="5" horiz-adv-x="476" 
d="M218 -150q138 0 200 107q33 58 33 130q0 98 -69 158q-60 51 -151 52h-23v133l204 1v110l-336 -1v-354q41 10 89 10q107 0 137 -69q9 -21 9 -43q0 -86 -67 -111q-21 -8 -45 -8q-56 1 -112 36l-55 -96q93 -55 186 -55z" />
    <glyph glyph-name="florin" unicode="&#x192;" horiz-adv-x="444" 
d="M207 -54l48 386h119v95h-107l17 134q11 72 69 73q22 0 55 -13l36 97q-55 22 -107 22q-105 0 -153 -82q-22 -37 -28 -86l-18 -145h-99v-95h87l-47 -373q-10 -65 -57 -66q-20 0 -42 10l-40 -93q54 -24 103 -24q97 0 141 83q17 34 23 77z" />
    <glyph glyph-name="four" unicode="4" horiz-adv-x="505" 
d="M418 -135v140h77v110h-77v425h-123l-281 -441l17 -94h255v-140h132zM286 115h-153l153 238v-238z" />
    <glyph glyph-name="fraction" unicode="&#x2044;" horiz-adv-x="576" 
d="M141 -11l-121 1l417 745h119z" />
    <glyph glyph-name="g" unicode="g" horiz-adv-x="503" 
d="M240 231q-51 0 -67 51q-5 17 -5 37q0 75 52 88q9 2 18 2q52 0 67 -52q5 -17 5 -37q0 -73 -51 -87q-9 -2 -19 -2zM240 509q-116 0 -170 -80q-32 -48 -32 -112q1 -81 56 -134q-51 -39 -52 -96q1 -52 45 -85q-66 -47 -67 -101q0 -69 91 -100q49 -16 110 -16q160 0 229 82
q33 40 33 87q0 75 -73 110q-46 22 -111 21l-97 -2q-56 0 -57 30q1 16 19 30q35 -12 76 -12q111 0 166 76q34 48 34 112q-1 51 -25 93l78 -3v99l-192 -8q-29 9 -61 9zM239 -114q-96 3 -99 49q1 21 26 42h15l100 2q75 1 76 -36q0 -35 -58 -50q-27 -7 -60 -7z" />
    <glyph glyph-name="gbreve" unicode="&#x11f;" horiz-adv-x="503" 
d="M240 231q-51 0 -67 51q-5 17 -5 37q0 75 52 88q9 2 18 2q52 0 67 -52q5 -17 5 -37q0 -73 -51 -87q-9 -2 -19 -2zM240 509q-116 0 -170 -80q-32 -48 -32 -112q1 -81 56 -134q-51 -39 -52 -96q1 -52 45 -85q-66 -47 -67 -101q0 -69 91 -100q49 -16 110 -16q160 0 229 82
q33 40 33 87q0 75 -73 110q-46 22 -111 21l-97 -2q-56 0 -57 30q1 16 19 30q35 -12 76 -12q111 0 166 76q34 48 34 112q-1 51 -25 93l78 -3v99l-192 -8q-29 9 -61 9zM239 -114q-96 3 -99 49q1 21 26 42h15l100 2q75 1 76 -36q0 -35 -58 -50q-27 -7 -60 -7zM81 723
q-1 -95 74 -137q37 -21 81 -21q78 0 122 57q32 42 32 102l-84 4q-5 -51 -48 -65q-11 -3 -21 -3q-41 0 -61 37q-8 16 -10 34z" />
    <glyph glyph-name="germandbls" unicode="&#xdf;" horiz-adv-x="610" 
d="M584 149q0 85 -85 162q-10 10 -30 26q-48 41 -55 60q-2 5 -2 11q0 22 37 55q46 40 59 63q17 29 17 62q0 85 -87 127q-53 25 -118 25q-110 0 -178 -61q-57 -51 -57 -125v-54h-58v-95h58v-405h130v548q0 67 54 89q17 7 35 7q59 0 84 -34q11 -14 11 -31q0 -29 -38 -59
q-42 -34 -54 -50q-24 -32 -24 -77q0 -65 68 -125q9 -9 29 -25q54 -44 67 -70q8 -17 8 -34q0 -40 -36 -52q-7 -2 -15 -2q-39 1 -92 32l-37 -85q70 -47 136 -47q81 0 133 56q40 45 40 108z" />
    <glyph glyph-name="grave" unicode="`" horiz-adv-x="326" 
d="M43 669l63 94l191 -134l-50 -77z" />
    <glyph glyph-name="greater" unicode="&#x3e;" horiz-adv-x="442" 
d="M412 253l-280 287l-92 -77l214 -211l-213 -215l96 -75z" />
    <glyph glyph-name="greaterequal" unicode="&#x2265;" horiz-adv-x="392" 
d="M362 333l-239 206l-78 -83l155 -123l-155 -126l71 -86zM353 -10v110h-301v-110h301z" />
    <glyph glyph-name="guillemotleft" unicode="&#xab;" horiz-adv-x="529" 
d="M256 414l-92 63l-139 -212l136 -215l93 64l-93 152zM488 413l-90 64l-149 -212l146 -215l91 65l-101 151z" />
    <glyph glyph-name="guillemotright" unicode="&#xbb;" horiz-adv-x="524" 
d="M258 113l92 -63l139 212l-136 215l-93 -64l93 -152zM26 114l90 -64l149 212l-146 215l-91 -65l101 -151z" />
    <glyph glyph-name="guilsinglleft" unicode="&#x2039;" horiz-adv-x="307" 
d="M267 409l-97 68l-144 -212l141 -215l97 69l-99 147z" />
    <glyph glyph-name="guilsinglright" unicode="&#x203a;" horiz-adv-x="307" 
d="M40 115l97 -68l144 212l-141 215l-97 -69l99 -147z" />
    <glyph glyph-name="h" unicode="h" horiz-adv-x="529" 
d="M504 86q-35 -2 -36 31v219q0 123 -81 164q-30 15 -65 15q-81 -1 -134 -67v277h-130v-725h130v257q0 119 59 148q14 7 29 7q46 0 58 -54q4 -17 4 -35v-213q0 -119 108 -125q29 -1 63 6z" />
    <glyph glyph-name="hungarumlaut" unicode="&#x2dd;" horiz-adv-x="530" 
d="M283 679l-66 80l-168 -143l53 -64zM497 679l-66 80l-168 -143l53 -64z" />
    <glyph glyph-name="hyphen" unicode="-" horiz-adv-x="331" 
d="M40 320v-100h251v100h-251z" />
    <glyph glyph-name="i" unicode="i" horiz-adv-x="245" 
d="M187 0v500h-130v-500h130zM204 646q0 60 -50 79q-15 6 -31 6q-52 0 -72 -44q-9 -18 -9 -41q0 -63 50 -83q15 -5 30 -5q50 0 72 43q10 20 10 45z" />
    <glyph glyph-name="iacute" unicode="&#xed;" horiz-adv-x="245" 
d="M187 0v500h-130v-500h130zM281 669l-63 94l-191 -134l50 -77z" />
    <glyph glyph-name="icircumflex" unicode="&#xee;" horiz-adv-x="245" 
d="M126 744l-149 -123l54 -65l92 74l92 -76l58 67zM187 0v500h-130v-500h130z" />
    <glyph glyph-name="idieresis" unicode="&#xef;" horiz-adv-x="245" 
d="M100 646q0 53 -44 68q-12 4 -23 4q-45 0 -62 -39q-6 -15 -6 -33q0 -56 44 -71q12 -4 23 -4q42 0 60 37q8 17 8 38zM280 646q0 53 -44 68q-12 4 -24 4q-43 0 -60 -37q-7 -16 -7 -35q0 -56 44 -71q11 -4 22 -4q44 0 62 38q7 17 7 37zM187 0v500h-130v-500h130z" />
    <glyph glyph-name="igrave" unicode="&#xec;" horiz-adv-x="245" 
d="M187 0v500h-130v-500h130zM-22 669l63 94l191 -134l-50 -77z" />
    <glyph glyph-name="imacron" unicode="&#x12b;" horiz-adv-x="245" 
d="M1 694v-100h243v100h-243zM187 0v500h-130v-500h130z" />
    <glyph glyph-name="infinity" unicode="&#x221e;" horiz-adv-x="867" 
d="M642 84q106 0 160 77q35 50 35 114q0 94 -66 147q-50 39 -125 39q-85 -1 -207 -107q-115 106 -214 107q-106 0 -160 -77q-35 -50 -35 -114q0 -92 65 -145q51 -41 127 -41q84 0 206 103l3 3q115 -106 211 -106zM636 196q-38 0 -105 67q-9 8 -19 19q79 66 119 67
q52 0 70 -47q6 -16 6 -33q0 -49 -39 -67q-15 -6 -32 -6zM236 196q-52 0 -70 47q-6 16 -6 33q0 49 41 66q14 6 30 6q36 0 106 -67q8 -7 18 -17q-75 -68 -119 -68z" />
    <glyph glyph-name="integral" unicode="&#x222b;" horiz-adv-x="341" 
d="M238 -14q0 68 -19 511q-1 36 -2 61q-3 58 28 84q13 10 29 10q9 0 18 -3l19 101q-38 11 -68 11q-101 0 -140 -95q-18 -46 -18 -107q0 -68 19 -511q1 -36 2 -61q4 -93 -51 -94q-13 0 -25 4l-14 -103q33 -10 64 -10q97 0 137 90q21 48 21 112z" />
    <glyph glyph-name="iogonek" unicode="&#x12f;" horiz-adv-x="245" 
d="M187 0v500h-130v-500q-66 -56 -67 -113q0 -76 79 -96q23 -6 49 -6q41 0 80 12l-6 86q-20 -6 -38 -6q-48 0 -53 34q-1 4 -1 7q2 51 87 82zM122 561q49 0 71 42q10 20 10 45q0 59 -49 78q-15 6 -31 6q-50 0 -71 -41q-9 -20 -9 -43q0 -62 49 -81q15 -6 30 -6z" />
    <glyph glyph-name="j" unicode="j" horiz-adv-x="252" 
d="M194 -48v548h-130v-551q0 -52 -30 -58q-6 -1 -12 -1q-18 1 -51 16l-36 -98q47 -23 109 -23q94 0 132 78q18 39 18 89zM211 646q0 60 -50 79q-15 6 -31 6q-52 0 -72 -44q-9 -18 -9 -41q0 -63 50 -83q15 -5 30 -5q50 0 72 43q10 20 10 45z" />
    <glyph glyph-name="k" unicode="k" horiz-adv-x="508" 
d="M457 -15q23 0 51 6l-5 95q-8 -1 -15 -1q-24 2 -39 26l-95 167l135 222h-128l-93 -161l-78 -1v387h-130v-725h130v234h62l91 -168q33 -61 73 -75q19 -6 41 -6z" />
    <glyph glyph-name="l" unicode="l" horiz-adv-x="282" 
d="M194 -15q40 0 88 13l-23 97q-20 -5 -32 -5q-37 0 -40 45v10v580h-130v-592q0 -140 123 -148h14z" />
    <glyph glyph-name="lacute" unicode="&#x13a;" horiz-adv-x="282" 
d="M194 -15q40 0 88 13l-23 97q-20 -5 -32 -5q-37 0 -40 45v10v580h-130v-592q0 -140 123 -148h14zM283 879l-63 94l-191 -134l50 -77z" />
    <glyph glyph-name="lcaron" unicode="&#x13e;" horiz-adv-x="339" 
d="M194 -15q40 0 88 13l-23 97q-20 -5 -32 -5q-37 0 -40 45v10v580h-130v-592q0 -140 123 -148h14zM358 630q0 57 -45 75q-14 5 -27 5q-43 0 -62 -38q-7 -17 -8 -38q0 -43 38 -60q6 -3 11 -4q-7 -33 -46 -100q-1 -2 -1 -3l43 -27q77 81 94 162q3 15 3 28z" />
    <glyph glyph-name="less" unicode="&#x3c;" horiz-adv-x="422" 
d="M10 247l280 -287l92 77l-214 211l213 215l-96 75z" />
    <glyph glyph-name="lessequal" unicode="&#x2264;" horiz-adv-x="392" 
d="M340 -10v110h-301v-110h301zM30 327l239 -206l78 83l-155 123l155 126l-71 86z" />
    <glyph glyph-name="logicalnot" unicode="&#xac;" horiz-adv-x="504" 
d="M464 102v222h-434v-105h309v-117h125z" />
    <glyph glyph-name="lozenge" unicode="&#x25ca;" horiz-adv-x="558" 
d="M324 -4l224 340l-223 343h-91l-224 -348l227 -335h87zM283 136l-133 201l123 200l138 -204z" />
    <glyph glyph-name="lslash" unicode="&#x142;" horiz-adv-x="288" 
d="M194 -15q40 0 88 13l-23 97q-20 -5 -32 -5q-37 0 -40 45v10v158l97 40l-36 88l-61 -25v319h-130v-372l-86 -35l36 -88l50 20v-117q0 -140 123 -148h14z" />
    <glyph glyph-name="m" unicode="m" horiz-adv-x="793" 
d="M731 339q0 115 -73 159q-31 18 -67 18q-78 0 -131 -72q-7 -10 -13 -20q-31 80 -109 91q-10 1 -20 1q-73 0 -126 -64q-6 -7 -10 -13l-2 61h-125v-500h130v258q0 122 61 149q14 6 28 6q46 0 55 -61q2 -12 2 -25v-327h130v258q0 127 63 151q11 4 23 4q40 0 51 -53
q3 -15 3 -33v-217q0 -119 108 -125q29 -1 63 6l-5 95q-35 -2 -36 31v222z" />
    <glyph glyph-name="macron" unicode="&#xaf;" horiz-adv-x="380" 
d="M50 694v-100h280v100h-280z" />
    <glyph glyph-name="minus" unicode="&#x2212;" horiz-adv-x="544" 
d="M60 209h424v115h-424v-115z" />
    <glyph glyph-name="mooniak" horiz-adv-x="952" 
d="M693 566q0 60 50 94q29 20 64 20q60 0 94 -50q20 -29 20 -64q0 -60 -50 -94q-29 -20 -64 -20q-60 0 -94 50q-20 29 -20 64zM30 361q0 131 93 223t222 92q131 0 223 -93t92 -222q0 -131 -93 -223t-222 -92q-131 0 -223 93t-92 222z" />
    <glyph glyph-name="multiply" unicode="&#xd7;" horiz-adv-x="504" 
d="M60 384l116 -116l-115 -115l75 -75l115 115l116 -116l77 77l-116 116l115 115l-75 75l-115 -115l-116 116z" />
    <glyph glyph-name="n" unicode="n" horiz-adv-x="527" 
d="M501 86q-35 -2 -36 31v222q0 117 -77 159q-32 17 -69 17q-85 -1 -137 -78l-2 63h-125v-500h130v255q0 122 62 151q14 6 29 6q44 0 56 -55q3 -15 3 -31v-216q3 -122 118 -124q25 0 53 6z" />
    <glyph glyph-name="nacute" unicode="&#x144;" horiz-adv-x="527" 
d="M501 86q-35 -2 -36 31v222q0 117 -77 159q-32 17 -69 17q-85 -1 -137 -78l-2 63h-125v-500h130v255q0 122 62 151q14 6 29 6q44 0 56 -55q3 -15 3 -31v-216q3 -122 118 -124q25 0 53 6zM432 669l-63 94l-191 -134l50 -77z" />
    <glyph glyph-name="ncaron" unicode="&#x148;" horiz-adv-x="527" 
d="M501 86q-35 -2 -36 31v222q0 117 -77 159q-32 17 -69 17q-85 -1 -137 -78l-2 63h-125v-500h130v255q0 122 62 151q14 6 29 6q44 0 56 -55q3 -15 3 -31v-216q3 -122 118 -124q25 0 53 6zM263 552l167 130l-50 63l-113 -80l-115 82l-55 -65z" />
    <glyph glyph-name="nine" unicode="9" horiz-adv-x="508" 
d="M30 307q0 -115 77 -177q49 -38 107 -38q76 1 125 61q-7 -175 -95 -191q-10 -2 -21 -2q-61 0 -109 53q-2 3 -3 4l-78 -62q62 -90 165 -103q15 -2 29 -2q142 0 207 146q41 93 41 221q0 309 -188 336q-18 2 -36 2q-128 0 -187 -106q-34 -63 -34 -142zM250 445q68 0 83 -81
q3 -20 3 -42q0 -107 -67 -122q-9 -2 -19 -2q-67 0 -82 79q-4 21 -4 45q0 109 70 122q8 1 16 1z" />
    <glyph glyph-name="notequal" unicode="&#x2260;" horiz-adv-x="574" 
d="M514 112v105h-184l28 76h156v105h-119l37 102h-116l-37 -102h-219v-105h181l-28 -76h-153v-105h115l-37 -102h118l37 102h221z" />
    <glyph glyph-name="ntilde" unicode="&#xf1;" horiz-adv-x="527" 
d="M501 86q-35 -2 -36 31v222q0 117 -77 159q-32 17 -69 17q-85 -1 -137 -78l-2 63h-125v-500h130v255q0 122 62 151q14 6 29 6q44 0 56 -55q3 -15 3 -31v-216q3 -122 118 -124q25 0 53 6zM327 672q-21 0 -70 23q-37 17 -62 17q-51 0 -111 -57l-6 -6l53 -62q40 30 69 30
q21 0 75 -23q39 -17 64 -17q63 1 112 67l-53 58q-29 -29 -71 -30z" />
    <glyph glyph-name="numbersign" unicode="#" horiz-adv-x="654" 
d="M257 675l-47 -163h-123v-91h96l-43 -150h-120v-91h93l-52 -180h109l52 180l113 1l-52 -181h109l52 181h122v90h-96l43 150h121v91h-95l47 163h-108l-47 -163h-113l47 163h-108zM361 271h-113l44 150h113z" />
    <glyph glyph-name="o" unicode="o" horiz-adv-x="512" 
d="M256 90q-67 0 -87 87q-7 32 -7 73q0 129 66 155q14 5 29 5q69 0 88 -93q6 -31 6 -69q0 -132 -70 -154q-12 -4 -25 -4zM260 515q-139 0 -198 -114q-33 -64 -33 -153q0 -167 101 -231q51 -32 121 -32q150 0 206 124q26 60 26 141q0 177 -109 238q-49 27 -114 27z" />
    <glyph glyph-name="oacute" unicode="&#xf3;" horiz-adv-x="512" 
d="M256 90q-67 0 -87 87q-7 32 -7 73q0 129 66 155q14 5 29 5q69 0 88 -93q6 -31 6 -69q0 -132 -70 -154q-12 -4 -25 -4zM260 515q-139 0 -198 -114q-33 -64 -33 -153q0 -167 101 -231q51 -32 121 -32q150 0 206 124q26 60 26 141q0 177 -109 238q-49 27 -114 27zM426 669
l-63 94l-191 -134l50 -77z" />
    <glyph glyph-name="ocircumflex" unicode="&#xf4;" horiz-adv-x="512" 
d="M256 90q-67 0 -87 87q-7 32 -7 73q0 129 66 155q14 5 29 5q69 0 88 -93q6 -31 6 -69q0 -132 -70 -154q-12 -4 -25 -4zM260 515q-139 0 -198 -114q-33 -64 -33 -153q0 -167 101 -231q51 -32 121 -32q150 0 206 124q26 60 26 141q0 177 -109 238q-49 27 -114 27zM263 744
l-166 -123l52 -65l111 75l111 -77l56 67z" />
    <glyph glyph-name="odieresis" unicode="&#xf6;" horiz-adv-x="512" 
d="M256 90q-67 0 -87 87q-7 32 -7 73q0 129 66 155q14 5 29 5q69 0 88 -93q6 -31 6 -69q0 -132 -70 -154q-12 -4 -25 -4zM260 515q-139 0 -198 -114q-33 -64 -33 -153q0 -167 101 -231q51 -32 121 -32q150 0 206 124q26 60 26 141q0 177 -109 238q-49 27 -114 27zM222 646
q0 53 -44 68q-12 4 -23 4q-45 0 -62 -39q-6 -15 -6 -33q0 -56 44 -71q12 -4 23 -4q42 0 60 37q8 17 8 38zM429 646q0 53 -44 68q-12 4 -24 4q-43 0 -60 -37q-7 -16 -7 -35q0 -56 44 -71q11 -4 22 -4q44 0 62 38q7 17 7 37z" />
    <glyph glyph-name="oe" unicode="&#x153;" horiz-adv-x="801" 
d="M771 42l-38 86q-70 -38 -131 -38q-79 0 -107 81q-6 20 -9 42h295v37q-2 264 -200 265q-98 0 -159 -69l-3 -3q-57 72 -159 72q-139 0 -198 -114q-33 -64 -33 -153q0 -167 101 -231q51 -32 121 -32q111 1 169 79q65 -79 172 -79q96 1 179 57zM575 415q60 0 72 -72
q3 -16 3 -34l-162 -1q14 93 72 105q8 2 15 2zM162 250q0 129 66 155q14 5 29 5q69 0 88 -93q6 -31 6 -69q0 -132 -70 -154q-12 -4 -25 -4q-67 0 -87 87q-7 32 -7 73z" />
    <glyph glyph-name="ogonek" unicode="&#x2db;" horiz-adv-x="276" 
d="M250 -203l-6 86q-20 -6 -38 -6q-48 0 -53 34q-1 4 -1 7q2 51 87 82h-130q-66 -56 -67 -113q0 -76 79 -96q23 -6 49 -6q41 0 80 12z" />
    <glyph glyph-name="ograve" unicode="&#xf2;" horiz-adv-x="512" 
d="M256 90q-67 0 -87 87q-7 32 -7 73q0 129 66 155q14 5 29 5q69 0 88 -93q6 -31 6 -69q0 -132 -70 -154q-12 -4 -25 -4zM260 515q-139 0 -198 -114q-33 -64 -33 -153q0 -167 101 -231q51 -32 121 -32q150 0 206 124q26 60 26 141q0 177 -109 238q-49 27 -114 27zM123 669
l63 94l191 -134l-50 -77z" />
    <glyph glyph-name="ohungarumlaut" unicode="&#x151;" horiz-adv-x="512" 
d="M256 90q-67 0 -87 87q-7 32 -7 73q0 129 66 155q14 5 29 5q69 0 88 -93q6 -31 6 -69q0 -132 -70 -154q-12 -4 -25 -4zM260 515q-139 0 -198 -114q-33 -64 -33 -153q0 -167 101 -231q51 -32 121 -32q150 0 206 124q26 60 26 141q0 177 -109 238q-49 27 -114 27zM324 679
l-66 80l-168 -143l53 -64zM538 679l-66 80l-168 -143l53 -64z" />
    <glyph glyph-name="omacron" unicode="&#x14d;" horiz-adv-x="512" 
d="M256 90q-67 0 -87 87q-7 32 -7 73q0 129 66 155q14 5 29 5q69 0 88 -93q6 -31 6 -69q0 -132 -70 -154q-12 -4 -25 -4zM260 515q-139 0 -198 -114q-33 -64 -33 -153q0 -167 101 -231q51 -32 121 -32q150 0 206 124q26 60 26 141q0 177 -109 238q-49 27 -114 27zM118 694
v-100h280v100h-280z" />
    <glyph glyph-name="one" unicode="1" horiz-adv-x="422" 
d="M68 367l107 43v-310h-101v-100h318v100h-85v440h-123l-156 -69z" />
    <glyph glyph-name="onehalf" unicode="&#xbd;" horiz-adv-x="880" 
d="M285 -11l415 746h-119l-417 -745zM860 0v95h-133l11 13q9 11 31 34q61 63 75 102q9 22 9 44q0 72 -66 110q-39 22 -84 22q-90 0 -140 -70q-6 -8 -10 -15l72 -45q27 38 62 39q41 0 51 -31q2 -7 2 -14q0 -33 -45 -84q-6 -6 -18 -20q-15 -16 -23 -25l-88 -100v-55h294z
M42 534l78 30v-206h-78v-88h249v88h-61v317h-99l-124 -53z" />
    <glyph glyph-name="onequarter" unicode="&#xbc;" horiz-adv-x="888" 
d="M822 1v69h51v90h-51v248h-139l-164 -266l11 -72h181v-69h111zM285 -11l415 746h-119l-417 -745zM42 534l78 30v-206h-78v-88h249v88h-61v317h-99l-124 -53zM711 160h-81l81 142v-142z" />
    <glyph glyph-name="onesuperior" unicode="&#xb9;" horiz-adv-x="342" 
d="M63 534l78 30v-206h-78v-88h249v88h-61v317h-99l-124 -53z" />
    <glyph glyph-name="ordfeminine" unicode="&#xaa;" horiz-adv-x="352" 
d="M298 298q26 0 44 5l-3 79h-10q-20 2 -21 34v141q0 96 -79 124q-26 9 -55 9q-75 -1 -153 -42l35 -77q55 29 94 29q44 -7 49 -47v-16h-22q-120 0 -153 -74q-9 -22 -9 -48q0 -74 60 -104q26 -13 56 -13q59 0 90 49l3 6q14 -54 74 -55zM155 384q-25 0 -30 28q-1 5 -1 9
q0 35 34 45q9 2 19 2h22v-13q-1 -70 -44 -71z" />
    <glyph glyph-name="ordmasculine" unicode="&#xba;" horiz-adv-x="398" 
d="M199 385q-46 0 -58 69q-3 18 -3 40q0 87 45 105q8 3 17 3q45 0 57 -68q3 -19 3 -42q0 -91 -47 -105q-7 -2 -14 -2zM202 690q-122 0 -162 -105q-15 -41 -15 -93q0 -141 96 -182q33 -13 74 -13q133 0 168 117q10 35 10 80q0 152 -108 187q-29 9 -63 9z" />
    <glyph glyph-name="oslash" unicode="&#xf8;" horiz-adv-x="512" 
d="M337 601l-32 -89q-21 3 -45 3q-139 0 -198 -114q-33 -64 -33 -153q1 -164 98 -229l-30 -82l77 -25l28 77q21 -4 49 -4q150 0 206 124q26 60 26 141q-1 170 -103 234l33 92zM162 250q0 129 66 155q14 5 29 5q8 0 11 -1l-92 -254q-14 39 -14 95zM256 90q-8 0 -17 2l94 263
q18 -41 18 -107q0 -132 -70 -154q-12 -4 -25 -4z" />
    <glyph glyph-name="otilde" unicode="&#xf5;" horiz-adv-x="512" 
d="M256 90q-67 0 -87 87q-7 32 -7 73q0 129 66 155q14 5 29 5q69 0 88 -93q6 -31 6 -69q0 -132 -70 -154q-12 -4 -25 -4zM260 515q-139 0 -198 -114q-33 -64 -33 -153q0 -167 101 -231q51 -32 121 -32q150 0 206 124q26 60 26 141q0 177 -109 238q-49 27 -114 27zM321 672
q-21 0 -70 23q-37 17 -62 17q-51 0 -111 -57l-6 -6l53 -62q40 30 69 30q21 0 75 -23q39 -17 64 -17q63 1 112 67l-53 58q-29 -29 -71 -30z" />
    <glyph glyph-name="p" unicode="p" horiz-adv-x="516" 
d="M251 90q-31 0 -60 12v182q0 98 54 122q13 6 27 6q53 0 74 -67q9 -31 9 -71q-7 -177 -104 -184zM190 -200v192q30 -7 62 -7q136 0 197 114q39 72 39 177q0 139 -81 204q-44 35 -101 35q-76 -1 -122 -62l-3 47h-120l-1 -700h130z" />
    <glyph glyph-name="paragraph" unicode="&#xb6;" horiz-adv-x="576" 
d="M321 0v675h-122q-115 -3 -160 -85q-19 -36 -19 -79q0 -84 67 -132q46 -33 112 -37v-342h122zM511 0v675h-122v-675h122z" />
    <glyph glyph-name="parenleft" unicode="(" horiz-adv-x="327" 
d="M198 298q1 237 113 427l-100 51q-136 -223 -136 -483q1 -257 135 -480l102 54q-114 193 -114 431z" />
    <glyph glyph-name="parenright" unicode=")" horiz-adv-x="323" 
d="M125 301q-1 -237 -113 -427l100 -51q136 223 136 483q-1 257 -135 480l-102 -54q114 -193 114 -431z" />
    <glyph glyph-name="partialdiff" unicode="&#x2202;" horiz-adv-x="519" 
d="M488 350q0 233 -167 343q-37 24 -81 43l-51 -95q149 -73 171 -200q3 -21 4 -42q-48 49 -122 49q-106 0 -166 -97q-41 -67 -41 -150q0 -113 71 -173q51 -43 127 -43q144 0 211 143q44 93 44 222zM168 209q0 112 69 130q11 3 22 3q67 0 80 -77q3 -17 3 -36q0 -111 -67 -131
q-12 -3 -24 -3q-64 0 -79 73q-4 19 -4 41z" />
    <glyph glyph-name="percent" unicode="%" horiz-adv-x="910" 
d="M205 417q-54 0 -70 70q-5 23 -5 51q0 95 54 113q11 4 22 4q60 0 72 -84q2 -16 2 -35q0 -95 -52 -115q-11 -4 -23 -4zM209 740q-116 0 -164 -92q-25 -49 -25 -112q0 -137 93 -184q40 -19 91 -19q111 0 160 91q26 50 26 115q0 140 -96 184q-38 17 -85 17zM705 69
q-54 0 -70 70q-5 23 -5 51q0 95 54 113q11 4 22 4q60 0 72 -84q2 -16 2 -35q0 -95 -52 -115q-12 -4 -23 -4zM709 392q-116 0 -164 -92q-25 -49 -25 -112q0 -137 93 -184q40 -19 91 -19q111 0 160 91q26 50 26 115q0 140 -96 184q-38 17 -85 17zM306 -11l-121 1l417 745h119z
" />
    <glyph glyph-name="period" unicode="." horiz-adv-x="250" 
d="M204 74q0 61 -49 80q-15 6 -30 6q-50 0 -70 -43q-9 -19 -9 -43q0 -66 50 -84q14 -5 28 -5q49 0 70 43q10 21 10 46z" />
    <glyph glyph-name="periodcentered" unicode="&#xb7;" horiz-adv-x="268" 
d="M133 178q49 0 75 42q14 25 14 56q0 65 -52 87q-18 7 -36 7q-52 0 -76 -43q-12 -23 -12 -51q0 -67 52 -91q17 -7 35 -7z" />
    <glyph glyph-name="perthousand" unicode="&#x2030;" horiz-adv-x="1320" 
d="M1120 69q-54 0 -70 70q-5 22 -5 51q0 95 54 113q11 4 22 4q60 0 72 -84q2 -17 2 -35q0 -95 -52 -115q-12 -4 -23 -4zM1124 392q-116 0 -164 -92q-25 -49 -25 -112q0 -137 93 -184q40 -19 91 -19q111 0 160 91q26 50 26 115q0 140 -96 184q-38 17 -85 17zM205 417
q-54 0 -70 70q-5 23 -5 51q0 95 54 113q11 4 22 4q60 0 72 -84q2 -16 2 -35q0 -95 -52 -115q-11 -4 -23 -4zM209 740q-116 0 -164 -92q-25 -49 -25 -112q0 -137 93 -184q40 -19 91 -19q111 0 160 91q26 50 26 115q0 140 -96 184q-38 17 -85 17zM705 69q-54 0 -70 70
q-5 23 -5 51q0 95 54 113q11 4 22 4q60 0 72 -84q2 -16 2 -35q0 -95 -52 -115q-12 -4 -23 -4zM709 392q-116 0 -164 -92q-25 -49 -25 -112q0 -137 93 -184q40 -19 91 -19q111 0 160 91q26 50 26 115q0 140 -96 184q-38 17 -85 17zM306 -11l-121 1l417 745h119z" />
    <glyph glyph-name="pi" unicode="&#x3c0;" horiz-adv-x="596" 
d="M576 405v95h-556v-95h75v-405h130v405h146v-272q0 -140 123 -148h14q40 0 88 13l-23 97q-20 -5 -32 -5q-37 0 -40 45v10v260h75z" />
    <glyph glyph-name="plus" unicode="+" horiz-adv-x="494" 
d="M469 209v108h-159v154h-125v-154h-160v-108h160v-154h125v154h159z" />
    <glyph glyph-name="plusminus" unicode="&#xb1;" horiz-adv-x="494" 
d="M459 -10v110h-424v-110h424zM459 281v108h-149v134h-125v-134h-150v-108h150v-134h125v134h149z" />
    <glyph glyph-name="product" unicode="&#x220f;" horiz-adv-x="683" 
d="M438 -175h132v740h93v110h-643v-110h98v-740h132v740h188v-740z" />
    <glyph glyph-name="q" unicode="q" horiz-adv-x="511" 
d="M28 224q0 -143 82 -205q44 -34 101 -34q70 1 112 51l2 -261h130l1 695q-94 45 -192 45q-131 0 -194 -109q-42 -74 -42 -182zM326 396l-1 -185q-7 -117 -81 -123q-58 0 -77 77q-6 27 -6 61q0 166 86 182q9 2 18 2q27 0 61 -14z" />
    <glyph glyph-name="question" unicode="?" horiz-adv-x="484" 
d="M219 199q-1 9 -1 22q0 69 63 126q11 10 36 29q61 50 82 84q25 41 25 92q0 108 -91 163q-55 33 -123 33q-102 0 -163 -69q-29 -33 -42 -75l113 -38q15 58 67 71q10 2 20 2q50 0 76 -42q13 -23 13 -50q0 -45 -51 -87q-8 -7 -26 -20q-64 -48 -88 -86q-35 -55 -35 -130
q0 -12 2 -31zM250 74q0 61 -49 80q-15 6 -30 6q-50 0 -70 -43q-9 -19 -9 -43q0 -66 50 -84q14 -5 28 -5q49 0 70 43q10 21 10 46z" />
    <glyph glyph-name="questiondown" unicode="&#xbf;" horiz-adv-x="484" 
d="M265 303q1 -9 1 -22q0 -69 -63 -126q-11 -10 -36 -29q-61 -50 -82 -84q-25 -41 -25 -92q0 -108 91 -163q55 -33 123 -33q102 0 163 69q29 33 42 75l-113 38q-15 -58 -67 -71q-10 -2 -20 -2q-50 0 -76 42q-13 23 -13 50q0 45 51 87q8 7 26 20q64 48 88 86q35 55 35 130
q0 12 -2 31zM234 428q0 -61 49 -80q15 -6 30 -6q50 0 70 43q9 19 9 43q0 66 -50 84q-14 5 -28 5q-49 0 -70 -43q-10 -21 -10 -46z" />
    <glyph glyph-name="quotedbl" unicode="&#x22;" horiz-adv-x="353" 
d="M153 740h-123l18 -255h87zM323 740h-123l18 -255h87z" />
    <glyph glyph-name="quotedblbase" unicode="&#x201e;" horiz-adv-x="425" 
d="M383 71q0 63 -49 84q-16 7 -33 7q-48 0 -70 -41q-10 -21 -10 -45q0 -49 40 -69q8 -4 16 -6q-8 -36 -52 -113q-1 -3 -2 -5l49 -31q85 89 107 180q4 21 4 39zM199 71q0 63 -49 84q-16 7 -33 7q-48 0 -70 -41q-10 -21 -10 -45q0 -49 40 -69q8 -4 16 -6q-8 -36 -52 -113
q-1 -3 -2 -5l49 -31q111 116 111 219z" />
    <glyph glyph-name="quotedblleft" unicode="&#x201c;" horiz-adv-x="415" 
d="M41 525q0 -63 49 -84q16 -7 33 -7q48 0 70 41q10 21 10 45q0 49 -40 69q-8 4 -16 6q8 36 52 113q1 3 2 5l-49 31q-85 -89 -107 -180q-4 -21 -4 -39zM228 526q0 -63 49 -84q16 -7 33 -7q48 0 70 41q10 21 10 45q0 49 -40 69q-8 4 -16 6q8 36 52 113q1 3 2 5l-49 31
q-85 -89 -107 -180q-4 -21 -4 -39z" />
    <glyph glyph-name="quotedblright" unicode="&#x201d;" horiz-adv-x="428" 
d="M388 635q0 63 -49 84q-16 7 -33 7q-48 0 -70 -41q-10 -21 -10 -45q0 -49 40 -69q8 -4 16 -6q-8 -36 -52 -113q-1 -3 -2 -5l49 -31q85 89 107 180q4 21 4 39zM202 635q0 63 -49 84q-16 7 -33 7q-48 0 -70 -41q-10 -21 -10 -45q0 -49 40 -69q8 -4 16 -6q-8 -36 -52 -113
q-1 -3 -2 -5l49 -31q85 89 107 180q4 21 4 39z" />
    <glyph glyph-name="quoteleft" unicode="&#x2018;" horiz-adv-x="221" 
d="M41 525q0 -63 49 -84q16 -7 33 -7q48 0 70 41q10 21 10 45q0 49 -40 69q-8 4 -16 6q8 36 52 113q1 3 2 5l-49 31q-85 -89 -107 -180q-4 -21 -4 -39z" />
    <glyph glyph-name="quoteright" unicode="&#x2019;" horiz-adv-x="224" 
d="M188 635q0 63 -49 84q-16 7 -33 7q-48 0 -70 -41q-10 -21 -10 -45q0 -49 40 -69q8 -4 16 -6q-8 -36 -52 -113q-1 -3 -2 -5l49 -31q85 89 107 180q4 21 4 39z" />
    <glyph glyph-name="quotesinglbase" unicode="&#x201a;" horiz-adv-x="240" 
d="M197 71q0 63 -49 84q-16 7 -33 7q-48 0 -70 -41q-10 -21 -10 -45q0 -49 40 -69q8 -4 16 -6q-8 -36 -52 -113q-1 -3 -2 -5l49 -31q111 116 111 219z" />
    <glyph glyph-name="quotesingle" unicode="'" horiz-adv-x="173" 
d="M148 740h-123l18 -255h87z" />
    <glyph glyph-name="r" unicode="r" horiz-adv-x="340" 
d="M187 0v254q0 102 57 131q18 9 37 9q22 0 48 -11l14 131q-9 1 -24 1q-94 -1 -136 -95l-4 85h-122v-505h130z" />
    <glyph glyph-name="racute" unicode="&#x155;" horiz-adv-x="340" 
d="M187 0v254q0 102 57 131q18 9 37 9q22 0 48 -11l14 131q-9 1 -24 1q-94 -1 -136 -95l-4 85h-122v-505h130zM309 669l-63 94l-191 -134l50 -77z" />
    <glyph glyph-name="radical" unicode="&#x221a;" horiz-adv-x="666" 
d="M368 -120l192 755h106v105h-207l-157 -677l-115 351l-187 -63l31 -102l71 26l139 -395h127z" />
    <glyph glyph-name="rcaron" unicode="&#x159;" horiz-adv-x="338" 
d="M187 0v254q0 102 57 131q18 9 37 9q22 0 48 -11l14 131q-9 1 -24 1q-94 -1 -136 -95l-4 85h-122v-505h130zM183 552l167 130l-50 63l-113 -80l-115 82l-55 -65z" />
    <glyph glyph-name="registered" unicode="&#xae;" horiz-adv-x="779" 
d="M347 134v146h35h3l49 -105q23 -48 72 -49q23 0 39 4l-2 62h-8q-15 1 -23 15l-47 90q68 35 69 120q-2 121 -154 122q-58 0 -123 -2v-403h90zM382 466q58 -2 59 -57q0 -43 -36 -54q-9 -3 -18 -3h-40v114h35zM745 339q0 178 -126 276q-97 75 -226 75q-143 0 -244 -87
q-115 -100 -115 -267q0 -179 127 -277q97 -74 226 -74q143 0 243 87q115 100 115 267zM139 338q0 151 104 223q64 44 145 44q116 0 188 -80q64 -74 64 -188q0 -154 -106 -225q-62 -42 -142 -42q-118 0 -189 81q-64 73 -64 187z" />
    <glyph glyph-name="ring" unicode="&#x2da;" horiz-adv-x="402" 
d="M321 651q0 77 -63 107q-26 13 -55 13q-63 0 -99 -48q-23 -32 -23 -74q0 -78 62 -110q26 -13 55 -13q64 0 100 49q23 33 23 76zM158 649q0 38 31 47q7 2 12 2q30 0 40 -29q3 -10 3 -20q0 -38 -31 -47q-7 -2 -12 -2q-30 0 -40 29q-3 10 -3 20z" />
    <glyph glyph-name="s" unicode="s" horiz-adv-x="405" 
d="M376 149q0 84 -85 130q-16 9 -49 24q-59 26 -71 44q-7 11 -7 22q0 39 40 47q8 2 15 2q45 0 71 -36q3 -5 5 -8l82 49q-37 81 -139 91q-12 1 -24 1q-86 0 -139 -53q-40 -41 -40 -95q0 -89 84 -136q17 -9 50 -24q58 -25 71 -44q7 -12 7 -24q0 -48 -55 -53q-6 -1 -11 -1
q-63 1 -117 36l-47 -76q74 -60 171 -60q99 0 152 62q36 43 36 102z" />
    <glyph glyph-name="sacute" unicode="&#x15b;" horiz-adv-x="405" 
d="M376 149q0 84 -85 130q-16 9 -49 24q-59 26 -71 44q-7 11 -7 22q0 39 40 47q8 2 15 2q45 0 71 -36q3 -5 5 -8l82 49q-37 81 -139 91q-12 1 -24 1q-86 0 -139 -53q-40 -41 -40 -95q0 -89 84 -136q17 -9 50 -24q58 -25 71 -44q7 -12 7 -24q0 -48 -55 -53q-6 -1 -11 -1
q-63 1 -117 36l-47 -76q74 -60 171 -60q99 0 152 62q36 43 36 102zM364 669l-63 94l-191 -134l50 -77z" />
    <glyph glyph-name="scaron" unicode="&#x161;" horiz-adv-x="417" 
d="M376 149q0 84 -85 130q-16 9 -49 24q-59 26 -71 44q-7 11 -7 22q0 39 40 47q8 2 15 2q45 0 71 -36q3 -5 5 -8l82 49q-37 81 -139 91q-12 1 -24 1q-86 0 -139 -53q-40 -41 -40 -95q0 -89 84 -136q17 -9 50 -24q58 -25 71 -44q7 -12 7 -24q0 -48 -55 -53q-6 -1 -11 -1
q-63 1 -117 36l-47 -76q74 -60 171 -60q99 0 152 62q36 43 36 102zM224 552l167 130l-50 63l-113 -80l-115 82l-55 -65z" />
    <glyph glyph-name="section" unicode="&#xa7;" horiz-adv-x="408" 
d="M152 349q0 15 6 28q61 -41 77 -61q19 -24 19 -51q0 -13 -6 -26q-61 43 -76 60q-20 24 -20 50zM381 294q0 82 -86 144q-14 10 -42 28q-58 36 -70 57q-6 11 -6 22q0 39 42 47q8 1 15 1q34 -4 56 -23l65 74q-56 45 -130 45q-90 0 -141 -56q-36 -39 -36 -93q1 -58 37 -103
q-57 -41 -58 -111q0 -84 84 -147q14 -10 42 -28q56 -37 68 -59q6 -11 6 -23q-3 -51 -65 -52q-48 0 -94 23l-34 -84q67 -40 136 -40q99 0 151 63q35 43 35 102q-1 50 -30 90q55 45 55 123z" />
    <glyph glyph-name="semicolon" unicode=";" horiz-adv-x="239" 
d="M192 76q0 59 -45 78q-16 7 -34 7q-49 0 -70 -45q-8 -18 -8 -36q0 -47 38 -66q8 -4 16 -6q-7 -33 -49 -109q-1 -3 -2 -4l50 -30q103 116 104 211zM194 326q0 61 -49 80q-15 6 -30 6q-50 0 -70 -43q-9 -19 -9 -43q0 -66 50 -84q14 -5 28 -5q49 0 70 43q10 21 10 46z" />
    <glyph glyph-name="seven" unicode="7" horiz-adv-x="437" 
d="M427 455v86h-412v-125h259q-143 -334 -198 -552l138 2q66 259 213 589z" />
    <glyph glyph-name="si_A" unicode="&#xd85;" horiz-adv-x="559" 
d="M403 377q-6 0 -8 1q2 76 31 104q5 4 9 7q1 -4 3 -11q12 -41 12 -60q-2 -40 -47 -41zM290 -205h104v228q84 31 139 88l-69 83q-38 -35 -56 -46q-8 -5 -14 -8v157q18 -3 32 -3q75 0 100 63q8 20 8 42q0 14 -11 89q-3 18 -3 29q1 25 15 35l-42 62q-64 0 -140 -73
q-44 54 -114 55q-84 0 -121 -66q-18 -33 -18 -72q1 -38 21 -70q-79 -48 -96 -135q-3 -18 -3 -36q0 -117 90 -176q63 -41 158 -41q13 0 19 1zM288 418q-28 3 -49 3q-18 0 -34 -3q-11 13 -11 35q0 35 30 43q8 2 15 2q34 0 47 -36q4 -12 4 -26q0 -5 -2 -18zM270 112
q-106 0 -130 71q-6 16 -6 34q0 54 48 84q27 17 57 17h49l1 -205q-7 -1 -19 -1z" />
    <glyph glyph-name="si_Aa" unicode="&#xd86;" horiz-adv-x="815" 
d="M403 372q-6 0 -8 1q2 76 31 104q5 4 9 7q1 -4 3 -11q12 -41 12 -60q-2 -40 -47 -41zM290 -210h104v228q84 31 139 88l-69 83q-38 -35 -56 -46q-8 -5 -14 -8v157q18 -3 32 -3q75 0 100 63q8 20 8 42q0 14 -11 89q-3 18 -3 29q1 25 15 35l-42 62q-64 0 -140 -73
q-44 54 -114 55q-84 0 -121 -66q-18 -33 -18 -72q1 -38 21 -70q-79 -48 -96 -135q-3 -18 -3 -36q0 -117 90 -176q63 -41 158 -41q13 0 19 1zM288 413q-28 3 -49 3q-18 0 -34 -3q-11 13 -11 35q0 35 30 43q8 2 15 2q34 0 47 -36q4 -12 4 -26q0 -5 -2 -18zM270 107
q-106 0 -130 71q-6 16 -6 34q0 54 48 84q27 17 57 17h49l1 -205q-7 -1 -19 -1zM585 540l16 -104q17 5 27 5q57 0 65 -116q2 -22 2 -48q0 -155 -59 -163q-4 -1 -8 -1q-11 0 -27 5l-16 -104q22 -12 53 -12q93 0 138 94q34 69 34 181q0 205 -106 259q-31 16 -66 16
q-31 0 -53 -12z" />
    <glyph glyph-name="si_Aae" unicode="&#xd88;" horiz-adv-x="886" 
d="M403 377q-6 0 -8 1q2 76 31 104q5 4 9 7q1 -4 3 -11q12 -41 12 -60q-2 -40 -47 -41zM290 -205h104v228q84 31 139 88l-69 83q-38 -35 -56 -46q-8 -5 -14 -8v157q18 -3 32 -3q75 0 100 63q8 20 8 42q0 14 -11 89q-3 18 -3 29q1 25 15 35l-42 62q-64 0 -140 -73
q-44 54 -114 55q-84 0 -121 -66q-18 -33 -18 -72q1 -38 21 -70q-79 -48 -96 -135q-3 -18 -3 -36q0 -117 90 -176q63 -41 158 -41q13 0 19 1zM288 418q-28 3 -49 3q-18 0 -34 -3q-11 13 -11 35q0 35 30 43q8 2 15 2q34 0 47 -36q4 -12 4 -26q0 -5 -2 -18zM270 112
q-106 0 -130 71q-6 16 -6 34q0 54 48 84q27 17 57 17h49l1 -205q-7 -1 -19 -1zM560 157q0 -81 53 -125q39 -32 99 -32q116 0 145 115q7 30 7 64h-96q-2 -74 -58 -75q-48 4 -50 53q0 78 74 115q29 14 53 14h22v88h-117l117 77v95h-235v-99h91l-91 -73v-88h39
q-53 -55 -53 -129z" />
    <glyph glyph-name="si_Ae" unicode="&#xd87;" horiz-adv-x="880" 
d="M403 377q-6 0 -8 1q2 76 31 104q5 4 9 7q1 -4 3 -11q12 -41 12 -60q-2 -40 -47 -41zM290 -205h104v228q84 31 139 88l-69 83q-38 -35 -56 -46q-8 -5 -14 -8v157q18 -3 32 -3q75 0 100 63q8 20 8 42q0 14 -11 89q-3 18 -3 29q1 25 15 35l-42 62q-64 0 -140 -73
q-44 54 -114 55q-84 0 -121 -66q-18 -33 -18 -72q1 -38 21 -70q-79 -48 -96 -135q-3 -18 -3 -36q0 -117 90 -176q63 -41 158 -41q13 0 19 1zM288 418q-28 3 -49 3q-18 0 -34 -3q-11 13 -11 35q0 35 30 43q8 2 15 2q34 0 47 -36q4 -12 4 -26q0 -5 -2 -18zM270 112
q-106 0 -130 71q-6 16 -6 34q0 54 48 84q27 17 57 17h49l1 -205q-7 -1 -19 -1zM557 167q0 -79 48 -127q40 -40 104 -40q116 0 145 115q7 30 7 64h-96q-1 -67 -52 -68q-44 9 -48 56q0 56 48 128q16 25 115 156v95h-235v-99h108q-83 -112 -91 -126q-53 -82 -53 -154z" />
    <glyph glyph-name="si_Ai" unicode="&#xd93;" horiz-adv-x="971" 
d="M247 262q0 28 26 37q7 3 14 3q26 0 36 -24q3 -8 3 -16q0 -27 -25 -37q-8 -3 -14 -3q-28 0 -37 26q-3 7 -3 14zM159 268q1 -64 50 -103q27 -21 67 -21q31 1 53 14q-26 -51 -92 -52q-63 0 -100 68q-25 47 -25 106q0 99 60 157q38 36 83 36q51 0 87 -31q6 -6 14 -13l72 67
q-84 80 -173 83q-108 0 -181 -91q-68 -87 -68 -208q0 -157 91 -232q59 -48 140 -48q131 0 176 115q17 45 17 98q0 132 -80 172q-28 13 -61 13q-67 0 -106 -54q-24 -35 -24 -76zM804 558q-38 0 -49 33q-2 8 -2 14q1 25 24 37q33 -31 46 -81q-11 -3 -19 -3zM650 601
q0 -60 59 -104q49 -37 111 -37h23q13 -84 13 -116q0 -175 -100 -217q-28 -12 -63 -12q-98 0 -122 66q-6 16 -6 33q0 77 57 90q10 2 20 2h107q7 33 7 60q0 102 -72 145q-35 21 -76 21q-78 0 -109 -60q-15 -29 -15 -63q0 -11 1 -16h-35v-87h37q-31 -40 -31 -105q0 -95 69 -151
q63 -50 168 -50q172 0 240 153q35 79 35 186q0 169 -76 315q-60 115 -140 157l-55 -66q15 -14 15 -26q0 -10 -23 -33q-38 -41 -39 -85zM574 405q2 38 34 39q40 0 50 -41q2 -6 2 -12l-84 1q-2 9 -2 13z" />
    <glyph glyph-name="si_Au" unicode="&#xd96;" horiz-adv-x="906" 
d="M22 253q1 -252 147 -253q69 0 101 62q4 8 7 17q21 -64 83 -76q13 -3 26 -3q148 0 168 187q4 39 4 106q0 304 -114 403q-69 59 -182 59q-100 0 -167 -67q-32 -33 -48 -75l109 -36q19 47 79 60q14 3 27 3q116 0 155 -119q26 -80 26 -228q-3 -174 -57 -178q-57 3 -58 135
h-96q0 -121 -48 -134q-5 -1 -10 -1q-45 1 -45 151q1 162 47 163q14 -3 17 -16q0 -7 -2 -20q-1 -12 -1 -18q2 -104 97 -105q79 0 96 70q6 26 6 64q0 110 -78 122q-9 1 -18 1q-35 -1 -56 -21q-28 21 -67 21q-116 0 -142 -179q-6 -44 -6 -95zM275 438v4q6 4 13 4q20 -2 20 -41
q-1 -38 -16 -39q-19 2 -19 37q0 4 1 14q1 13 1 21zM580 349q2 -115 91 -116q32 0 48 12t18 26.5t7 26.5t16 12q21 0 22 -65v-23q0 -102 -36 -124q-7 -4 -14 -4q-18 0 -30 14l-4 4l-62 -58q33 -42 80 -51q16 -3 32 -3q93 0 123 113q13 47 13 109q0 107 -46 160q-29 33 -72 34
q-35 0 -52.5 -14t-18.5 -31.5t-3.5 -31.5t-11.5 -14q-18 2 -18 40q0 49 35 65q10 5 21 5v77q-127 0 -137 -136q-1 -13 -1 -27z" />
    <glyph glyph-name="si_B.halant" horiz-adv-x="576" 
d="M243 691q-24 0 -50 -3q-21 13 -22 33q2 40 100 40q130 -1 131 -60q-1 -24 -15 -38q-61 28 -144 28zM56 744q1 -50 40 -87q-27 -15 -51 -37l63 -82q39 35 102 42q9 1 17 1q130 0 178 -96q34 -70 34 -192q0 -135 -51 -169q-13 -9 -28 -9q-30 0 -38 42q-2 10 -2 20
q0 23 24 63q27 45 27 84q0 124 -102 156q-30 9 -67 9q-150 0 -175 -184q-5 -39 -5 -85q1 -219 149 -220q50 1 84 39q38 -39 109 -39q132 0 174 161q16 61 16 132q-1 207 -81 305q50 40 51 103q0 79 -78 127q-70 43 -175 43q-165 0 -205 -83q-10 -21 -10 -44zM171 110
q-35 0 -39 89v21q1 155 69 156q57 -2 58 -52q0 -30 -25 -77q-22 -41 -22 -70q0 -15 2 -40q-18 -27 -43 -27z" />
    <glyph glyph-name="si_BI" horiz-adv-x="576" 
d="M260 675q-4 0 -34 -1q-27 -1 -30 -1q-32 0 -39 25q-1 5 -1 9q2 49 119 49q107 0 118 -47q1 -4 1 -8q-1 -30 -29 -40q-47 14 -105 14zM41 710q0 -94 77 -135q33 -17 63 -17q20 0 51 1q20 1 28 1q121 0 158 -105q21 -60 21 -162q0 -135 -51 -169q-13 -9 -28 -9
q-30 0 -38 42q-2 10 -2 20q0 23 24 63q27 45 27 84q0 124 -102 156q-30 9 -67 9q-150 0 -175 -184q-5 -39 -5 -85q1 -219 149 -220q50 1 84 39q38 -39 109 -39q132 0 174 161q16 61 16 132q-1 219 -93 311q47 40 48 101q0 79 -75 126q-64 40 -159 40q-142 0 -203 -76
q-31 -38 -31 -85zM171 110q-35 0 -39 89v21q1 155 69 156q57 -2 58 -52q0 -30 -25 -77q-22 -41 -22 -70q0 -15 2 -40q-18 -27 -43 -27z" />
    <glyph glyph-name="si_BIi" horiz-adv-x="576" 
d="M341 717q0 28 25 37q7 3 14 3q28 0 37 -26q3 -7 3 -14q0 -29 -26 -39q-7 -2 -14 -2q-28 0 -37 27q-2 7 -2 14zM249 717q0 -24 7 -42q-8 0 -41 -1q-16 -1 -19 -1q-32 0 -39 25q-1 5 -1 9q0 50 99 56h2q-8 -25 -8 -46zM41 710q0 -94 77 -135q33 -17 63 -17q20 0 51 1
q20 1 28 1q121 0 158 -105q21 -60 21 -162q0 -135 -51 -169q-13 -9 -28 -9q-30 0 -38 42q-2 10 -2 20q0 23 24 63q27 45 27 84q0 124 -102 156q-30 9 -67 9q-150 0 -175 -184q-5 -39 -5 -85q1 -219 149 -220q50 1 84 39q38 -39 109 -39q132 0 174 161q16 61 16 132
q1 226 -100 318q46 33 54 88v1v3v3q1 2 1 3v2v6q0 134 -178 151q-27 3 -56 3q-142 0 -203 -76q-31 -38 -31 -85zM171 110q-35 0 -39 89v21q1 155 69 156q57 -2 58 -52q0 -30 -25 -77q-22 -41 -22 -70q0 -15 2 -40q-18 -27 -43 -27z" />
    <glyph glyph-name="si_BR.halant" horiz-adv-x="576" 
d="M20 -79q0 -131 124 -181q60 -24 136 -24q151 0 219 82q41 50 41 123q-2 90 -51 136q65 79 65 236q-1 207 -81 305q50 40 51 103q0 79 -78 127q-70 43 -175 43q-165 0 -205 -83q-10 -21 -10 -44q1 -50 40 -87q-27 -15 -51 -37l63 -82q39 35 102 42q9 1 17 1q130 0 178 -96
q34 -70 34 -192q0 -135 -51 -169q-13 -9 -28 -9q-30 0 -38 42q-2 10 -2 20q0 23 24 63q27 45 27 84q0 124 -102 156q-30 9 -67 9q-150 0 -175 -184q-5 -39 -5 -85q1 -219 149 -220q50 1 84 39q38 -39 109 -39q21 0 37 4q29 -28 29 -73q0 -80 -88 -102q-29 -7 -62 -7
q-105 0 -139 57q-11 19 -11 42h-110zM243 691q-24 0 -50 -3q-21 13 -22 33q2 40 100 40q130 -1 131 -60q-1 -24 -15 -38q-61 28 -144 28zM171 110q-35 0 -39 89v21q1 155 69 156q57 -2 58 -52q0 -30 -25 -77q-22 -41 -22 -70q0 -15 2 -40q-18 -27 -43 -27z" />
    <glyph glyph-name="si_BRI" horiz-adv-x="576" 
d="M20 -79q0 -131 124 -181q60 -24 136 -24q151 0 219 82q41 50 41 123q-2 90 -51 136q65 79 65 236q-1 219 -93 311q47 40 48 101q0 79 -75 126q-64 40 -159 40q-142 0 -203 -76q-31 -38 -31 -85q0 -94 77 -135q33 -17 63 -17q20 0 51 1q20 1 28 1q121 0 158 -105
q21 -60 21 -162q0 -135 -51 -169q-13 -9 -28 -9q-30 0 -38 42q-2 10 -2 20q0 23 24 63q27 45 27 84q0 124 -102 156q-30 9 -67 9q-150 0 -175 -184q-5 -39 -5 -85q1 -219 149 -220q50 1 84 39q38 -39 109 -39q21 0 37 4q29 -28 29 -73q0 -80 -88 -102q-29 -7 -62 -7
q-105 0 -139 57q-11 19 -11 42h-110zM260 675q-4 0 -34 -1q-27 -1 -30 -1q-32 0 -39 25q-1 5 -1 9q2 49 119 49q107 0 118 -47q1 -4 1 -8q-1 -30 -29 -40q-47 14 -105 14zM171 110q-35 0 -39 89v21q1 155 69 156q57 -2 58 -52q0 -30 -25 -77q-22 -41 -22 -70q0 -15 2 -40
q-18 -27 -43 -27z" />
    <glyph glyph-name="si_BRIi" horiz-adv-x="576" 
d="M20 -79q0 -131 124 -181q60 -24 136 -24q151 0 219 82q41 50 41 123q-2 90 -51 136q65 79 65 236q-1 226 -100 318q46 33 54 88v1v3v3q1 2 1 3v2v6q0 134 -178 151q-27 3 -56 3q-142 0 -203 -76q-31 -38 -31 -85q0 -94 77 -135q33 -17 63 -17q20 0 51 1q20 1 28 1
q121 0 158 -105q21 -60 21 -162q0 -135 -51 -169q-13 -9 -28 -9q-30 0 -38 42q-2 10 -2 20q0 23 24 63q27 45 27 84q0 124 -102 156q-30 9 -67 9q-150 0 -175 -184q-5 -39 -5 -85q1 -219 149 -220q50 1 84 39q38 -39 109 -39q21 0 37 4q29 -28 29 -73q0 -80 -88 -102
q-29 -7 -62 -7q-105 0 -139 57q-11 19 -11 42h-110zM341 717q0 28 25 37q7 3 14 3q28 0 37 -26q3 -7 3 -14q0 -29 -26 -39q-7 -2 -14 -2q-28 0 -37 27q-2 7 -2 14zM249 717q0 -24 7 -42q-8 0 -41 -1q-16 -1 -19 -1q-32 0 -39 25q-1 5 -1 9q0 50 99 56h2q-8 -25 -8 -46z
M171 110q-35 0 -39 89v21q1 155 69 156q57 -2 58 -52q0 -30 -25 -77q-22 -41 -22 -70q0 -15 2 -40q-18 -27 -43 -27z" />
    <glyph glyph-name="si_BRa" horiz-adv-x="575" 
d="M20 -79q0 -131 124 -181q60 -24 136 -24q151 0 219 82q41 50 41 123q-2 90 -51 136q65 79 65 236q0 304 -114 403q-69 59 -182 59q-98 0 -165 -65q-33 -34 -50 -77l109 -36q19 47 79 60q14 3 27 3q116 0 155 -119q26 -80 26 -228q0 -135 -51 -169q-13 -9 -28 -9
q-30 0 -38 42q-2 10 -2 20q0 23 24 63q27 45 27 84q0 124 -102 156q-30 9 -67 9q-150 0 -175 -184q-5 -39 -5 -85q1 -219 149 -220q50 1 84 39q38 -39 109 -39q21 0 37 4q29 -28 29 -73q0 -80 -88 -102q-29 -7 -62 -7q-105 0 -139 57q-11 19 -11 42h-110zM171 110
q-35 0 -39 89v21q1 155 69 156q57 -2 58 -52q0 -30 -25 -77q-22 -41 -22 -70q0 -15 2 -40q-18 -27 -43 -27z" />
    <glyph glyph-name="si_BU" horiz-adv-x="575" 
d="M38 -104q5 -99 103 -101h384v326q29 74 29 172q2 312 -122 410q-66 52 -174 52q-98 0 -165 -65q-33 -34 -50 -77l109 -36q19 47 79 60q14 3 27 3q116 0 155 -119q26 -80 26 -228q0 -135 -51 -169q-13 -9 -28 -9q-30 0 -38 42q-2 10 -2 20q0 23 24 63q27 45 27 84
q0 124 -102 156q-30 9 -67 9q-150 0 -175 -184q-5 -39 -5 -85q1 -219 149 -220q50 1 84 39q38 -39 109 -39q29 0 54 8v-106h-243q-26 2 -27 23q0 7 2 22l-105 12q-7 -34 -7 -63zM171 110q-35 0 -39 89v21q1 155 69 156q57 -2 58 -52q0 -30 -25 -77q-22 -41 -22 -70
q0 -15 2 -40q-18 -27 -43 -27z" />
    <glyph glyph-name="si_BUu" horiz-adv-x="575" 
d="M56 -104q5 -99 103 -101q28 0 103 28q53 19 80 19q51 -1 76 -47h107v326q29 74 29 172q2 312 -122 410q-66 52 -174 52q-98 0 -165 -65q-33 -34 -50 -77l109 -36q19 47 79 60q14 3 27 3q116 0 155 -119q26 -80 26 -228q0 -135 -51 -169q-13 -9 -28 -9q-30 0 -38 42
q-2 10 -2 20q0 23 24 63q27 45 27 84q0 124 -102 156q-30 9 -67 9q-150 0 -175 -184q-5 -39 -5 -85q1 -219 149 -220q50 1 84 39q38 -39 109 -39q29 0 54 8v-82q-26 21 -61 21q-50 0 -121 -29q-35 -14 -51 -14q-19 2 -20 22q0 6 2 17l-104 15q-7 -33 -7 -62zM171 110
q-35 0 -39 89v21q1 155 69 156q57 -2 58 -52q0 -30 -25 -77q-22 -41 -22 -70q0 -15 2 -40q-18 -27 -43 -27z" />
    <glyph glyph-name="si_Ba" unicode="&#xdb6;" horiz-adv-x="575" 
d="M22 220q1 -219 149 -220q50 1 84 39q38 -39 109 -39q132 0 174 161q16 61 16 132q0 304 -114 403q-69 59 -182 59q-98 0 -165 -65q-33 -34 -50 -77l109 -36q19 47 79 60q14 3 27 3q116 0 155 -119q26 -80 26 -228q0 -135 -51 -169q-13 -9 -28 -9q-30 0 -38 42
q-2 10 -2 20q0 23 24 63q27 45 27 84q0 124 -102 156q-30 9 -67 9q-150 0 -175 -184q-5 -39 -5 -85zM171 110q-35 0 -39 89v21q1 155 69 156q57 -2 58 -52q0 -30 -25 -77q-22 -41 -22 -70q0 -15 2 -40q-18 -27 -43 -27z" />
    <glyph glyph-name="si_Ba.reph" horiz-adv-x="575" 
d="M192 685q0 23 21 29q5 1 8 1q22 0 28 -22q1 -4 1 -8q0 -22 -21 -28q-4 -1 -8 -1q-22 0 -28 21q-1 4 -1 8zM44 662l59 -74q4 3 12 10q16 13 24 17q11 -12 30 -23q25 -13 52 -13q60 0 92 49q17 26 17 57q0 48 -44 72q-22 11 -46 12q14 3 27 3q67 0 87 -57q6 -18 6 -39
q-1 -56 -43 -82l50 -64q18 9 33 24q39 -82 39 -261q0 -135 -51 -169q-13 -9 -28 -9q-30 0 -38 42q-2 10 -2 20q0 23 24 63q27 45 27 84q0 124 -102 156q-30 9 -67 9q-150 0 -175 -184q-5 -39 -5 -85q1 -219 149 -220q50 1 84 39q38 -39 109 -39q132 0 174 161q16 61 16 132
q0 262 -79 359q-11 13 -22 23q-1 100 -78 147q-45 27 -102 27q-104 0 -146 -74q-15 -29 -17 -62q-30 -17 -66 -51zM171 110q-35 0 -39 89v21q1 155 69 156q57 -2 58 -52q0 -30 -25 -77q-22 -41 -22 -70q0 -15 2 -40q-18 -27 -43 -27z" />
    <glyph glyph-name="si_Ba.touch" horiz-adv-x="575" 
d="M22 220q1 -219 149 -220q50 1 84 39q38 -39 109 -39q132 0 174 161q16 61 16 132q0 304 -114 403q-69 59 -182 59q-98 0 -165 -65q-33 -34 -50 -77l109 -36q19 47 79 60q14 3 27 3q116 0 155 -119q26 -80 26 -228q0 -135 -51 -169q-13 -9 -28 -9q-30 0 -38 42
q-2 10 -2 20q0 23 24 63q27 45 27 84q0 124 -102 156q-30 9 -67 9q-150 0 -175 -184q-5 -39 -5 -85zM171 110q-35 0 -39 89v21q1 155 69 156q57 -2 58 -52q0 -30 -25 -77q-22 -41 -22 -70q0 -15 2 -40q-18 -27 -43 -27z" />
    <glyph glyph-name="si_Bh.halant" horiz-adv-x="718" 
d="M604 710h-6q-4 1 -7 1v76q3 1 6 1q37 -3 38 -39q-2 -38 -31 -39zM505 866v-285q-21 3 -42 3q-92 -1 -132 -53q-45 61 -123 63q-91 0 -127 -71q-15 -31 -15 -69q0 -24 8 -46h-52v-88h41q-10 -19 -18 -51q-7 -29 -7 -59q0 -102 69 -163q54 -47 131 -47q86 1 139 43
q40 -42 102 -43q188 2 189 292q-1 170 -70 242v96q5 -1 13 -1q59 0 90 52q17 30 17 68q-1 117 -120 117h-93zM479 104q-32 1 -49 27q4 17 4 36q-1 93 -75 115q6 21 18 89q14 73 39 93q19 14 47 14q88 0 98 -150q1 -18 1 -36q0 -169 -69 -186q-8 -2 -14 -2zM225 255l59 -74
l18 12q10 3 11 3q15 -1 15 -26q0 -51 -66 -59q-12 -1 -24 -1q-66 0 -86 67q-6 21 -6 43t7 44q17 53 52 54l65 1q-16 -44 -45 -64zM159 443q8 49 53 53q39 0 51 -36q4 -13 4 -26q0 -12 -5 -26h-94q-9 13 -9 35z" />
    <glyph glyph-name="si_BhI" horiz-adv-x="690" 
d="M109 661q1 -45 23 -85q-65 -39 -66 -122q0 -24 8 -46h-52v-88h41q-10 -19 -18 -51q-7 -35 -7 -59q0 -101 68 -162q55 -48 132 -48q86 1 139 43q40 -42 103 -43q175 0 187 255q1 18 1 37q-1 186 -82 253q43 53 43 116q0 131 -124 181q-60 24 -136 24q-151 0 -219 -82
q-41 -50 -41 -123zM220 661q0 58 72 81q34 11 77 11q108 0 140 -56q9 -17 9 -36q-1 -50 -32 -78q-8 1 -23 1q-92 -1 -132 -53q-32 46 -86 59q-25 27 -25 71zM480 104q-33 1 -50 28q4 17 4 35q-1 94 -75 115q8 28 19 89q13 76 43 96q18 11 42 11q98 -2 99 -186
q0 -173 -71 -187q-6 -1 -11 -1zM225 255l59 -74l18 12q10 3 12 3q14 -1 14 -26q0 -51 -66 -59q-12 -1 -24 -1q-67 0 -86 69q-5 20 -5 41q0 25 6 44q18 52 52 54l65 1q-16 -44 -45 -64zM159 443q8 49 53 53q39 0 51 -36q4 -13 4 -26q0 -14 -4 -26h-94q-10 14 -10 35z" />
    <glyph glyph-name="si_BhIi" horiz-adv-x="690" 
d="M447 625q0 29 26 39q7 2 14 2q27 0 37 -25q3 -8 3 -16q0 -28 -26 -37q-7 -3 -14 -3q-28 0 -37 26q-3 7 -3 14zM356 626q0 -34 15 -61q-25 -14 -40 -34q-32 46 -86 59q-25 27 -25 71q0 54 62 81q38 17 87 17q88 0 120 -24q-12 3 -24 3q-57 0 -89 -44q-20 -29 -20 -68z
M109 661q1 -45 23 -85q-65 -39 -66 -122q0 -24 8 -46h-52v-88h41q-10 -19 -18 -51q-7 -35 -7 -59q0 -101 68 -162q55 -48 132 -48q86 1 139 43q40 -42 103 -43q175 0 187 255q1 18 1 37q-1 184 -80 252q41 49 41 117q0 131 -124 181q-60 24 -136 24q-151 0 -219 -82
q-41 -50 -41 -123zM480 104q-33 1 -50 28q4 17 4 35q-1 94 -75 115q8 28 19 89q13 76 43 96q18 11 42 11q98 -2 99 -186q0 -173 -71 -187q-6 -1 -11 -1zM225 255l59 -74l18 12q10 3 12 3q14 -1 14 -26q0 -51 -66 -59q-12 -1 -24 -1q-67 0 -86 69q-5 20 -5 41q0 25 6 44
q18 52 52 54l65 1q-16 -44 -45 -64zM159 443q8 49 53 53q39 0 51 -36q4 -13 4 -26q0 -14 -4 -26h-94q-10 14 -10 35z" />
    <glyph glyph-name="si_BhRI" horiz-adv-x="690" 
d="M109 -79q0 -131 124 -181q60 -24 136 -24q151 0 219 82q41 50 41 123q-1 73 -36 120q75 71 75 251q-1 186 -82 253q43 53 43 116q0 131 -124 181q-60 24 -136 24q-151 0 -219 -82q-41 -50 -41 -123q1 -45 23 -85q-65 -39 -66 -122q0 -24 8 -46h-52v-88h41
q-10 -19 -18 -51q-7 -35 -7 -59q0 -101 68 -162q55 -48 132 -48q86 1 139 43q40 -42 103 -43h13q26 -25 26 -69q0 -80 -88 -102q-29 -7 -62 -7q-105 0 -139 57q-11 19 -11 42h-110zM220 661q0 58 72 81q34 11 77 11q108 0 140 -56q9 -17 9 -36q-1 -50 -32 -78q-8 1 -23 1
q-92 -1 -132 -53q-32 46 -86 59q-25 27 -25 71zM480 104q-33 1 -50 28q4 17 4 35q-1 94 -75 115q8 28 19 89q13 76 43 96q18 11 42 11q98 -2 99 -186q0 -173 -71 -187q-6 -1 -11 -1zM225 255l59 -74l18 12q10 3 12 3q14 -1 14 -26q0 -51 -66 -59q-12 -1 -24 -1q-67 0 -86 69
q-5 20 -5 41q0 25 6 44q18 52 52 54l65 1q-16 -44 -45 -64zM159 443q8 49 53 53q39 0 51 -36q4 -13 4 -26q0 -14 -4 -26h-94q-10 14 -10 35z" />
    <glyph glyph-name="si_BhRIi" horiz-adv-x="690" 
d="M109 -79q0 -131 124 -181q60 -24 136 -24q151 0 219 82q41 50 41 123q-1 73 -36 120q75 71 75 251q-1 184 -80 252q41 49 41 117q0 131 -124 181q-60 24 -136 24q-151 0 -219 -82q-41 -50 -41 -123q1 -45 23 -85q-65 -39 -66 -122q0 -24 8 -46h-52v-88h41
q-10 -19 -18 -51q-7 -35 -7 -59q0 -101 68 -162q55 -48 132 -48q86 1 139 43q40 -42 103 -43h13q26 -25 26 -69q0 -80 -88 -102q-29 -7 -62 -7q-105 0 -139 57q-11 19 -11 42h-110zM447 625q0 29 26 39q7 2 14 2q27 0 37 -25q3 -8 3 -16q0 -28 -26 -37q-7 -3 -14 -3
q-28 0 -37 26q-3 7 -3 14zM356 626q0 -34 15 -61q-25 -14 -40 -34q-32 46 -86 59q-25 27 -25 71q0 54 62 81q38 17 87 17q88 0 120 -24q-12 3 -24 3q-57 0 -89 -44q-20 -29 -20 -68zM480 104q-33 1 -50 28q4 17 4 35q-1 94 -75 115q8 28 19 89q13 76 43 96q18 11 42 11
q98 -2 99 -186q0 -173 -71 -187q-6 -1 -11 -1zM225 255l59 -74l18 12q10 3 12 3q14 -1 14 -26q0 -51 -66 -59q-12 -1 -24 -1q-67 0 -86 69q-5 20 -5 41q0 25 6 44q18 52 52 54l65 1q-16 -44 -45 -64zM159 443q8 49 53 53q39 0 51 -36q4 -13 4 -26q0 -14 -4 -26h-94
q-10 14 -10 35z" />
    <glyph glyph-name="si_BhRa" horiz-adv-x="690" 
d="M109 -79q0 -131 124 -181q60 -24 136 -24q151 0 219 82q41 50 41 123q-1 73 -36 120q75 71 75 251q-1 291 -205 292q-92 -1 -132 -53q-44 62 -123 63q-91 0 -127 -71q-15 -31 -15 -69q0 -24 8 -46h-52v-88h41q-10 -19 -18 -51q-7 -35 -7 -59q0 -101 68 -162
q55 -48 132 -48q86 1 139 43q40 -42 103 -43h13q26 -25 26 -69q0 -80 -88 -102q-29 -7 -62 -7q-105 0 -139 57q-11 19 -11 42h-110zM480 104q-33 1 -50 28q4 17 4 35q-1 94 -75 115q8 28 19 89q13 76 43 96q18 11 42 11q98 -2 99 -186q0 -173 -71 -187q-6 -1 -11 -1z
M225 255l59 -74l18 12q10 3 12 3q14 -1 14 -26q0 -51 -66 -59q-12 -1 -24 -1q-67 0 -86 69q-5 20 -5 41q0 25 6 44q18 52 52 54l65 1q-16 -44 -45 -64zM159 443q8 49 53 53q39 0 51 -36q4 -13 4 -26q0 -14 -4 -26h-94q-10 14 -10 35z" />
    <glyph glyph-name="si_BhRa.halant" horiz-adv-x="718" 
d="M109 -79q0 -131 124 -181q60 -24 136 -24q151 0 219 82q41 50 41 123q-1 73 -36 120q75 71 75 251q-1 170 -70 242v96q5 -1 13 -1q59 0 90 52q17 30 17 68q-1 117 -120 117h-93v-285q-21 3 -42 3q-92 -1 -132 -53q-45 61 -123 63q-91 0 -127 -71q-15 -31 -15 -69
q0 -24 8 -46h-52v-88h41q-10 -19 -18 -51q-7 -29 -7 -59q0 -102 69 -163q54 -47 131 -47q86 1 139 43q40 -42 102 -43h14q26 -25 26 -69q0 -80 -88 -102q-29 -7 -62 -7q-105 0 -139 57q-11 19 -11 42h-110zM604 710h-6q-4 1 -7 1v76q3 1 6 1q37 -3 38 -39q-2 -38 -31 -39z
M479 104q-32 1 -49 27q4 17 4 36q-1 93 -75 115q6 21 18 89q14 73 39 93q19 14 47 14q88 0 98 -150q1 -18 1 -36q0 -169 -69 -186q-8 -2 -14 -2zM225 255l59 -74l18 12q10 3 11 3q15 -1 15 -26q0 -51 -66 -59q-12 -1 -24 -1q-66 0 -86 67q-6 21 -6 43t7 44q17 53 52 54l65 1
q-16 -44 -45 -64zM159 443q8 49 53 53q39 0 51 -36q4 -13 4 -26q0 -12 -5 -26h-94q-9 13 -9 35z" />
    <glyph glyph-name="si_BhU" horiz-adv-x="702" 
d="M428 -66q0 -127 114 -137q11 -1 21 -1q108 0 117 109q1 11 1 24h-91q-2 -38 -28 -39q-29 1 -29 44q0 40 36 69q5 3 13 9q35 31 49 56q37 69 37 224q-1 291 -205 292q-92 -1 -132 -53q-44 62 -124 63q-90 0 -125 -70q-16 -32 -16 -70q0 -24 8 -46h-52v-88h41
q-12 -24 -18 -51q-7 -29 -7 -59q0 -102 69 -163q54 -47 131 -47q132 0 179 94q17 35 17 73q-1 93 -75 115q6 21 18 89q14 73 39 93q19 14 47 14q88 0 98 -150q1 -18 1 -36q0 -141 -26 -176q-9 -10 -21 -18q-86 -67 -87 -164zM225 255l59 -74l18 12q10 3 11 3q15 -1 15 -26
q0 -51 -66 -59q-12 -1 -24 -1q-66 0 -86 67q-6 21 -6 43t7 44q17 53 52 54l64 1q-16 -44 -44 -64zM159 443q8 49 53 53q39 0 50 -36q4 -13 4 -26q0 -14 -4 -26h-94q-9 13 -9 35z" />
    <glyph glyph-name="si_BhUu" horiz-adv-x="713" 
d="M481 -89q0 -68 52 -98q30 -17 72 -17q108 0 117 109q1 11 1 24h-90q-2 -38 -28 -39q-28 1 -29 36q0 42 45 60q16 6 32 6h17v77h-81l81 54v77h-33q30 52 30 119q0 193 -120 248q-39 17 -84 17q-92 -1 -132 -53q-44 62 -123 63q-91 0 -127 -71q-15 -31 -15 -69q0 -24 8 -46
h-52v-88h41q-10 -19 -18 -51q-7 -35 -7 -59q0 -101 68 -162q55 -48 132 -48q132 0 179 94q17 35 17 73q-1 94 -75 115q8 28 19 89q13 76 43 96q18 11 42 11q54 0 80 -66q15 -40 15 -98q0 -88 -38 -109q-9 -5 -19 -5v-77h43l-69 -54v-77h36q-30 -33 -30 -81zM225 255l59 -74
l18 12q10 3 12 3q14 -1 14 -26q0 -51 -66 -59q-12 -1 -24 -1q-67 0 -86 69q-5 20 -5 41q0 25 6 44q18 52 52 54l65 1q-16 -44 -45 -64zM159 443q8 49 53 53q39 0 51 -36q4 -13 4 -26q0 -14 -4 -26h-94q-10 14 -10 35z" />
    <glyph glyph-name="si_Bha" unicode="&#xdb7;" horiz-adv-x="690" 
d="M480 104q-33 1 -50 28q4 17 4 35q-1 94 -75 115q8 28 19 89q13 76 43 96q18 11 42 11q98 -2 99 -186q0 -173 -71 -187q-6 -1 -11 -1zM225 255l59 -74l18 12q10 3 12 3q14 -1 14 -26q0 -51 -66 -59q-12 -1 -24 -1q-67 0 -86 69q-5 20 -5 41q0 25 6 44q18 52 52 54l65 1
q-16 -44 -45 -64zM38 210q0 -101 68 -162q55 -48 132 -48q86 1 139 43q40 -42 103 -43q175 0 187 255q1 18 1 37q-1 291 -205 292q-92 -1 -132 -53q-44 62 -123 63q-91 0 -127 -71q-15 -31 -15 -69q0 -24 8 -46h-52v-88h41q-10 -19 -18 -51q-7 -35 -7 -59zM159 443
q8 49 53 53q39 0 51 -36q4 -13 4 -26q0 -14 -4 -26h-94q-10 14 -10 35z" />
    <glyph glyph-name="si_Bha.reph" horiz-adv-x="690" 
d="M136 655q0 -43 15 -71q-71 -26 -83 -104q-2 -13 -2 -26q0 -24 8 -46h-52v-88h41q-10 -19 -18 -51q-7 -35 -7 -59q0 -101 68 -162q55 -48 132 -48q86 1 139 43q40 -42 103 -43q175 0 187 255q1 18 1 37q-1 275 -182 291q9 27 9 60q0 99 -79 147q-48 29 -110 29
q-105 0 -149 -81q-21 -38 -21 -83zM352 633q0 49 -44 73q-21 11 -44 11h-3.5h-3.5t-3 -0.5t-4 -0.5h-3.5h-4.5l-3 -1q26 19 61 19q68 0 88 -53q6 -17 6 -35q-1 -48 -25 -82q-23 -13 -38 -33q-8 11 -17 20q37 34 38 82zM214 623q0 23 21 29q5 1 8 1q22 0 28 -22q1 -4 1 -8
q0 -22 -21 -28q-4 -1 -8 -1q-22 0 -28 21q-1 4 -1 8zM480 104q-33 1 -50 28q4 17 4 35q-1 94 -75 115q8 28 19 89q13 76 43 96q18 11 42 11q98 -2 99 -186q0 -173 -71 -187q-6 -1 -11 -1zM225 255l59 -74l18 12q10 3 12 3q14 -1 14 -26q0 -51 -66 -59q-12 -1 -24 -1
q-67 0 -86 69q-5 20 -5 41q0 25 6 44q18 52 52 54l65 1q-16 -44 -45 -64zM159 443q8 49 53 53q39 0 51 -36q4 -13 4 -26q0 -14 -4 -26h-94q-10 14 -10 35z" />
    <glyph glyph-name="si_Bha.touch" horiz-adv-x="690" 
d="M480 104q-33 1 -50 28q4 17 4 35q-1 94 -75 115q8 28 19 89q13 76 43 96q18 11 42 11q98 -2 99 -186q0 -173 -71 -187q-6 -1 -11 -1zM225 255l59 -74l18 12q10 3 12 3q14 -1 14 -26q0 -51 -66 -59q-12 -1 -24 -1q-67 0 -86 69q-5 20 -5 41q0 25 6 44q18 52 52 54l65 1
q-16 -44 -45 -64zM38 210q0 -101 68 -162q55 -48 132 -48q86 1 139 43q40 -42 103 -43q175 0 187 255q1 18 1 37q-1 291 -205 292q-92 -1 -132 -53q-44 62 -123 63q-91 0 -127 -71q-15 -31 -15 -69q0 -24 8 -46h-52v-88h41q-10 -19 -18 -51q-7 -35 -7 -59zM159 443
q8 49 53 53q39 0 51 -36q4 -13 4 -26q0 -14 -4 -26h-94q-10 14 -10 35z" />
    <glyph glyph-name="si_C.halant" horiz-adv-x="529" 
d="M230 691q-22 0 -50 -3q-21 17 -22 33q2 40 100 40q110 -1 111 -56q-1 -26 -16 -38q-57 24 -123 24zM43 744q1 -50 40 -87q-27 -15 -51 -37l63 -82q39 35 103 42q9 1 16 1q125 0 164 -121q15 -47 15 -106q0 -196 -94 -230q-23 -9 -52 -9q-83 0 -104 64q-6 17 -6 35
q0 77 57 90q10 2 20 2h107q7 33 7 60q0 102 -72 145q-35 21 -76 21q-78 0 -109 -60q-15 -29 -15 -63q0 -11 1 -16h-35v-87h37q-31 -40 -31 -105q0 -93 64 -149q59 -52 155 -52q206 0 249 215q12 61 12 139q-1 158 -70 246q53 41 54 105q0 78 -74 125q-64 41 -160 41
q-165 0 -205 -83q-10 -21 -10 -44zM146 405q2 38 34 39q40 0 50 -41q2 -6 2 -12l-84 1q-2 9 -2 13z" />
    <glyph glyph-name="si_CI" horiz-adv-x="529" 
d="M243 675q-5 0 -34 -1q-27 -1 -31 -1q-32 0 -39 25q-1 5 -1 9q2 49 120 49q107 0 118 -47q1 -4 1 -8q-2 -29 -31 -41q-44 15 -103 15zM23 710q0 -94 78 -135q32 -17 63 -17q19 0 51 1q20 1 28 1q149 -2 150 -206q0 -196 -94 -230q-23 -9 -52 -9q-83 0 -104 64q-6 17 -6 35
q0 77 57 90q10 2 20 2h107q7 33 7 60q0 102 -72 145q-35 21 -76 21q-78 0 -109 -60q-15 -29 -15 -63q0 -11 1 -16h-35v-87h37q-31 -40 -31 -105q0 -93 64 -149q59 -52 155 -52q206 0 249 215q12 61 12 139q-1 167 -69 246q52 41 53 105q0 78 -74 125q-64 41 -160 41
q-141 0 -204 -75q-31 -38 -31 -86zM146 405q2 38 34 39q40 0 50 -41q2 -6 2 -12l-84 1q-2 9 -2 13z" />
    <glyph glyph-name="si_CIi" horiz-adv-x="529" 
d="M323 717q0 28 26 37q7 3 14 3q27 0 37 -26q2 -7 2 -14q0 -29 -25 -39q-7 -2 -14 -2q-27 0 -37 25q-3 8 -3 16zM232 717q0 -24 7 -42q-9 0 -40 -1q-18 -1 -21 -1q-32 0 -39 25q-1 5 -1 9q0 47 91 55q6 1 11 1q-8 -25 -8 -46zM23 710q0 -94 78 -135q32 -17 63 -17
q19 0 51 1q20 1 28 1q149 -2 150 -206q0 -196 -94 -230q-23 -9 -52 -9q-83 0 -104 64q-6 17 -6 35q0 77 57 90q10 2 20 2h107q7 33 7 60q0 102 -72 145q-35 21 -76 21q-78 0 -109 -60q-15 -29 -15 -63q0 -11 1 -16h-35v-87h37q-31 -40 -31 -105q0 -93 64 -149
q59 -52 155 -52q206 0 249 215q12 61 12 139q-1 176 -76 253q55 36 60 100v4v6q0 134 -178 151q-27 3 -56 3q-141 0 -204 -75q-31 -38 -31 -86zM146 405q2 38 34 39q40 0 50 -41q2 -6 2 -12l-84 1q-2 9 -2 13z" />
    <glyph glyph-name="si_CR.halant" horiz-adv-x="529" 
d="M230 691q-22 0 -50 -3q-21 17 -22 33q2 40 100 40q110 -1 111 -56q-1 -26 -16 -38q-57 24 -123 24zM43 744q1 -50 40 -87q-27 -15 -51 -37l63 -82q39 35 103 42q9 1 16 1q125 0 164 -121q15 -47 15 -106q0 -196 -94 -230q-23 -9 -52 -9q-83 0 -104 64q-6 17 -6 35
q0 77 57 90q10 2 20 2h107q7 33 7 60q0 102 -72 145q-35 21 -76 21q-78 0 -109 -60q-15 -29 -15 -63q0 -11 1 -16h-35v-87h37q-31 -40 -31 -105q0 -93 64 -149q59 -52 155 -52q57 0 100 15q43 -28 45 -74v-10q0 -82 -83 -103q-24 -6 -52 -6q-90 0 -117 53q-9 17 -9 36h-110
q0 -128 117 -174q53 -21 119 -21q142 0 206 82q39 50 39 123q0 92 -53 137q-9 8 -18 13q77 88 77 283q-1 158 -70 246q53 41 54 105q0 78 -74 125q-64 41 -160 41q-165 0 -205 -83q-10 -21 -10 -44zM146 405q2 38 34 39q40 0 50 -41q2 -6 2 -12l-84 1q-2 9 -2 13z" />
    <glyph glyph-name="si_CRI" horiz-adv-x="529" 
d="M243 675q-5 0 -34 -1q-27 -1 -31 -1q-32 0 -39 25q-1 5 -1 9q2 49 120 49q107 0 118 -47q1 -4 1 -8q-2 -29 -31 -41q-44 15 -103 15zM23 710q0 -94 78 -135q32 -17 63 -17q19 0 51 1q20 1 28 1q149 -2 150 -206q0 -196 -94 -230q-23 -9 -52 -9q-83 0 -104 64q-6 17 -6 35
q0 77 57 90q10 2 20 2h107q7 33 7 60q0 102 -72 145q-35 21 -76 21q-78 0 -109 -60q-15 -29 -15 -63q0 -11 1 -16h-35v-87h37q-31 -40 -31 -105q0 -93 64 -149q59 -52 155 -52q57 0 100 15q43 -28 45 -74v-10q0 -82 -83 -103q-24 -6 -52 -6q-90 0 -117 53q-9 17 -9 36h-110
q0 -128 117 -174q53 -21 119 -21q142 0 206 82q39 50 39 123q0 92 -53 137q-9 8 -18 13q77 88 77 283q-1 167 -69 246q52 41 53 105q0 78 -74 125q-64 41 -160 41q-141 0 -204 -75q-31 -38 -31 -86zM146 405q2 38 34 39q40 0 50 -41q2 -6 2 -12l-84 1q-2 9 -2 13z" />
    <glyph glyph-name="si_CRIi" horiz-adv-x="529" 
d="M323 717q0 28 26 37q7 3 14 3q27 0 37 -26q2 -7 2 -14q0 -29 -25 -39q-7 -2 -14 -2q-27 0 -37 25q-3 8 -3 16zM232 717q0 -24 7 -42q-9 0 -40 -1q-18 -1 -21 -1q-32 0 -39 25q-1 5 -1 9q0 47 91 55q6 1 11 1q-8 -25 -8 -46zM23 710q0 -94 78 -135q32 -17 63 -17
q19 0 51 1q20 1 28 1q149 -2 150 -206q0 -196 -94 -230q-23 -9 -52 -9q-83 0 -104 64q-6 17 -6 35q0 77 57 90q10 2 20 2h107q7 33 7 60q0 102 -72 145q-35 21 -76 21q-78 0 -109 -60q-15 -29 -15 -63q0 -11 1 -16h-35v-87h37q-31 -40 -31 -105q0 -93 64 -149
q59 -52 155 -52q57 0 100 15q43 -28 45 -74v-10q0 -82 -83 -103q-24 -6 -52 -6q-90 0 -117 53q-9 17 -9 36h-110q0 -128 117 -174q53 -21 119 -21q142 0 206 82q39 50 39 123q0 92 -53 137q-9 8 -18 13q77 88 77 283q-1 176 -76 253q55 36 60 100v4v6q0 134 -178 151
q-27 3 -56 3q-141 0 -204 -75q-31 -38 -31 -86zM146 405q2 38 34 39q40 0 50 -41q2 -6 2 -12l-84 1q-2 9 -2 13z" />
    <glyph glyph-name="si_CRa" horiz-adv-x="530" 
d="M21 -89q0 -128 117 -174q53 -21 119 -21q142 0 206 82q39 50 39 123q0 92 -53 137q-9 8 -18 13q78 88 78 283q-1 400 -270 401q-104 0 -168 -75q-26 -30 -40 -67l109 -36q21 52 80 62q10 1 19 1q148 0 154 -265v-21q0 -196 -94 -230q-23 -9 -52 -9q-83 0 -104 64
q-6 17 -6 35q0 77 57 90q10 2 20 2h107q7 33 7 60q0 102 -72 145q-35 21 -76 21q-78 0 -109 -60q-15 -29 -15 -63q0 -11 1 -16h-35v-87h37q-31 -40 -31 -105q0 -93 64 -149q59 -52 155 -52q57 0 100 15q43 -28 45 -74v-10q0 -82 -83 -103q-24 -6 -52 -6q-90 0 -117 53
q-9 17 -9 36h-110zM146 405q2 38 34 39q40 0 50 -41q2 -6 2 -12l-84 1q-2 9 -2 13z" />
    <glyph glyph-name="si_CU" horiz-adv-x="530" 
d="M21 -104q5 -99 103 -101h366v391q19 69 19 168q-1 400 -270 401q-104 0 -168 -75q-26 -30 -40 -67l109 -36q21 52 80 62q10 1 19 1q148 0 154 -265v-21q0 -196 -94 -230q-23 -9 -52 -9q-83 0 -104 64q-6 17 -6 35q0 77 57 90q10 2 20 2h107q7 33 7 60q0 102 -72 145
q-35 21 -76 21q-78 0 -109 -60q-15 -29 -15 -63q0 -11 1 -16h-35v-87h37q-31 -40 -31 -105q0 -93 64 -149q59 -52 155 -52q80 0 136 32v-130h-225q-26 2 -27 23q0 7 2 22l-105 12q-7 -34 -7 -63zM146 405q2 38 34 39q40 0 50 -41q2 -6 2 -12l-84 1q-2 9 -2 13z" />
    <glyph glyph-name="si_CUu" horiz-adv-x="530" 
d="M21 -104q5 -99 103 -101q28 0 103 28q53 19 80 19q51 -1 76 -47h107v391q19 69 19 168q-1 400 -270 401q-104 0 -168 -75q-26 -30 -40 -67l109 -36q21 52 80 62q10 1 19 1q148 0 154 -265v-21q0 -196 -94 -230q-23 -9 -52 -9q-83 0 -104 64q-6 17 -6 35q0 77 57 90
q10 2 20 2h107q7 33 7 60q0 102 -72 145q-35 21 -76 21q-78 0 -109 -60q-15 -29 -15 -63q0 -11 1 -16h-35v-87h37q-31 -40 -31 -105q0 -93 64 -149q59 -52 155 -52q80 0 136 32v-106q-26 21 -61 21q-50 0 -121 -29q-35 -14 -51 -14q-19 2 -20 22q0 6 2 17l-104 15
q-7 -33 -7 -62zM146 405q2 38 34 39q40 0 50 -41q2 -6 2 -12l-84 1q-2 9 -2 13z" />
    <glyph glyph-name="si_Ca" unicode="&#xda0;" horiz-adv-x="531" 
d="M28 201q0 -93 64 -149q59 -52 155 -52q204 0 249 211q13 62 13 143q-1 400 -270 401q-105 0 -169 -76q-24 -30 -38 -66l109 -36q22 54 82 62q8 1 16 1q122 0 147 -177q7 -49 7 -109q0 -196 -94 -230q-23 -9 -52 -9q-83 0 -104 64q-6 17 -6 35q0 77 57 90q10 2 20 2h107
q7 33 7 60q0 102 -72 145q-35 21 -76 21q-76 0 -108 -60q-15 -28 -15 -63q0 -11 1 -16h-36v-87h37q-31 -42 -31 -105zM146 405q2 38 34 39q40 0 50 -41q2 -6 2 -12l-84 1q-2 9 -2 13z" />
    <glyph glyph-name="si_Ca.reph" horiz-adv-x="531" 
d="M199 685q0 23 21 29q5 1 8 1q22 0 28 -22q1 -4 1 -8q0 -22 -21 -28q-4 -1 -8 -1q-22 0 -28 21q-1 4 -1 8zM32 613l92 -33q8 17 24 33q13 -13 28 -21q25 -13 52 -13q59 0 91 48q18 27 18 58q0 48 -44 72q-22 11 -46 12q12 3 27 3q65 0 86 -56q7 -18 7 -40q0 -44 -34 -81
q-17 -18 -39 -28l50 -64q15 7 30 18q19 -67 19 -167q0 -196 -94 -230q-23 -9 -52 -9q-83 0 -104 64q-6 17 -6 35q0 77 57 90q10 2 20 2h107q7 33 7 60q0 102 -72 145q-35 21 -76 21q-76 0 -108 -60q-15 -28 -15 -63q0 -11 1 -16h-36v-87h37q-31 -42 -31 -105q0 -93 64 -149
q59 -52 155 -52q204 0 249 211q13 62 13 143q0 179 -54 279q5 22 5 40q0 101 -78 149q-45 27 -102 27q-104 0 -145 -74q-14 -26 -17 -55q-60 -38 -86 -107zM146 405q2 38 34 39q40 0 50 -41q2 -6 2 -12l-84 1q-2 9 -2 13z" />
    <glyph glyph-name="si_Ca.touch" horiz-adv-x="531" 
d="M28 201q0 -93 64 -149q59 -52 155 -52q204 0 249 211q13 62 13 143q-1 400 -270 401q-105 0 -169 -76q-24 -30 -38 -66l109 -36q22 54 82 62q8 1 16 1q122 0 147 -177q7 -49 7 -109q0 -196 -94 -230q-23 -9 -52 -9q-83 0 -104 64q-6 17 -6 35q0 77 57 90q10 2 20 2h107
q7 33 7 60q0 102 -72 145q-35 21 -76 21q-76 0 -108 -60q-15 -28 -15 -63q0 -11 1 -16h-36v-87h37q-31 -42 -31 -105zM146 405q2 38 34 39q40 0 50 -41q2 -6 2 -12l-84 1q-2 9 -2 13z" />
    <glyph glyph-name="si_Ch.halant" horiz-adv-x="597" 
d="M262 710h-6q-4 1 -7 1v77h6q37 -3 38 -39q-2 -38 -31 -39zM163 866v-274q-74 -9 -104 -75q-12 -29 -12 -61q1 -46 31 -86q-56 -54 -56 -146q0 -128 107 -194q69 -42 158 -42q120 0 196 71q68 65 68 165q0 60 -24 103q10 35 10 82q-1 104 -53 152q83 88 99 163q6 27 6 55
h-110q0 -53 -24 -93q-23 -37 -75 -92q-56 -4 -94 -40q-15 15 -30 23v53q5 -1 13 -1q59 0 90 52q17 30 17 68q-1 117 -120 117h-93zM368 416h-35q-2 12 -2 18q0 52 41 61q6 1 11 1q59 -2 60 -93q-36 13 -75 13zM365 278q-25 2 -27 22q1 14 14 18h10q34 -1 54 -19
q-19 -21 -51 -21zM129 224q0 70 51 89q14 5 31 5h51q-8 -17 -8 -35q0 -49 43 -76q27 -16 63 -16q45 0 83 20q-8 -67 -84 -95q-34 -12 -73 -12q-85 0 -130 49q-27 30 -27 71zM141 451q0 39 39 44q5 1 10 1q37 0 48 -36q4 -13 4 -26q0 -7 -2 -18h-35q-28 0 -50 -6
q-13 18 -14 41z" />
    <glyph glyph-name="si_ChI" horiz-adv-x="617" 
d="M65 661q1 -52 30 -97q-48 -41 -48 -108q1 -44 31 -86q-56 -54 -56 -146q0 -128 107 -194q69 -42 158 -42q120 0 196 71q68 65 68 165q0 60 -24 103q10 35 10 82q-1 93 -43 142q87 89 106 162q9 32 9 66h-110q0 -56 -22 -98q-6 -11 -13 -23q4 20 4 32q0 95 -71 143
q-50 33 -125 33q-112 0 -168 -75q-39 -52 -39 -130zM171 661q0 75 59 95q18 6 39 6q89 0 109 -76q4 -17 4 -36q-1 -35 -17 -58q-47 -7 -78 -38q-39 36 -93 40q-23 26 -23 67zM368 416h-35q-1 7 -1 18q0 53 41 61q5 1 10 1q59 -2 60 -93q-36 13 -75 13zM365 278q-25 2 -27 22
q1 14 14 18h10q34 -1 54 -19q-19 -21 -51 -21zM129 224q0 70 51 89q14 5 31 5h51q-8 -17 -8 -35q0 -49 43 -76q27 -16 63 -16q45 0 83 20q-8 -67 -84 -95q-34 -12 -73 -12q-85 0 -130 49q-27 30 -27 71zM141 451q0 39 39 44q5 1 10 1q37 0 48 -36q4 -13 4 -26q0 -7 -2 -18
h-35q-28 0 -50 -6q-13 20 -14 41z" />
    <glyph glyph-name="si_ChIi" horiz-adv-x="617" 
d="M336 634q0 28 26 37q7 3 14 3q28 0 37 -26q3 -7 3 -14q0 -28 -26 -37q-7 -3 -14 -3q-28 0 -37 26q-3 7 -3 14zM246 635q1 -35 21 -65q-33 22 -73 24q-23 26 -23 67q0 66 52 91q22 10 49 10q43 0 69 -13q-53 -4 -80 -53q-15 -27 -15 -61zM65 661q1 -52 30 -97
q-48 -41 -48 -108q1 -44 31 -86q-56 -54 -56 -146q0 -128 107 -194q69 -42 158 -42q120 0 196 71q68 65 68 165q0 60 -24 103q10 35 10 82q-1 93 -43 142q87 89 106 162q9 32 9 66h-110q-1 -48 -18 -82q-16 113 -111 152q-43 17 -98 17q-100 0 -158 -65q-49 -55 -49 -140z
M368 416h-35q-1 7 -1 18q0 53 41 61q5 1 10 1q59 -2 60 -93q-36 13 -75 13zM365 278q-25 2 -27 22q1 14 14 18h10q34 -1 54 -19q-19 -21 -51 -21zM129 224q0 70 51 89q14 5 31 5h51q-8 -17 -8 -35q0 -49 43 -76q27 -16 63 -16q45 0 83 20q-8 -67 -84 -95q-34 -12 -73 -12
q-85 0 -130 49q-27 30 -27 71zM141 451q0 39 39 44q5 1 10 1q37 0 48 -36q4 -13 4 -26q0 -7 -2 -18h-35q-28 0 -50 -6q-13 20 -14 41z" />
    <glyph glyph-name="si_ChU" horiz-adv-x="597" 
d="M57 -104q5 -99 103 -101h366v321q25 49 25 108q0 60 -24 103q10 35 10 82q-1 104 -53 152q83 88 99 163q6 27 6 55h-110q0 -53 -24 -93q-23 -37 -75 -92q-56 -4 -94 -40q-41 40 -100 40q-84 0 -121 -66q-18 -33 -18 -72q1 -46 31 -86q-56 -54 -56 -146q0 -128 107 -194
q69 -42 158 -42q71 0 132 29v-115h-225q-26 2 -27 23q0 7 2 22l-105 12q-7 -34 -7 -63zM368 416h-35q-2 12 -2 18q0 52 41 61q6 1 11 1q59 -2 60 -93q-36 13 -75 13zM365 278q-25 2 -27 22q1 14 14 18h10q34 -1 54 -19q-19 -21 -51 -21zM129 224q0 70 51 89q14 5 31 5h51
q-8 -17 -8 -35q0 -49 43 -76q27 -16 63 -16q45 0 83 20q-8 -67 -84 -95q-34 -12 -73 -12q-85 0 -130 49q-27 30 -27 71zM141 451q0 39 39 44q5 1 10 1q37 0 48 -36q4 -13 4 -26q0 -7 -2 -18h-35q-28 0 -50 -6q-13 18 -14 41z" />
    <glyph glyph-name="si_ChUu" horiz-adv-x="597" 
d="M57 -104q5 -99 103 -101q28 0 103 28q53 19 80 19q51 -1 76 -47h107v321q25 49 25 108q0 60 -24 103q10 35 10 82q-1 104 -53 152q83 88 99 163q6 27 6 55h-110q0 -53 -24 -93q-23 -37 -75 -92q-56 -4 -94 -40q-41 40 -100 40q-84 0 -121 -66q-18 -33 -18 -72
q1 -46 31 -86q-56 -54 -56 -146q0 -128 107 -194q69 -42 158 -42q71 0 132 29v-91q-26 21 -61 21q-50 0 -121 -29q-35 -14 -51 -14q-19 2 -20 22q0 6 2 17l-104 15q-7 -33 -7 -62zM368 416h-35q-2 12 -2 18q0 52 41 61q6 1 11 1q59 -2 60 -93q-36 13 -75 13zM365 278
q-25 2 -27 22q1 14 14 18h10q34 -1 54 -19q-19 -21 -51 -21zM129 224q0 70 51 89q14 5 31 5h51q-8 -17 -8 -35q0 -49 43 -76q27 -16 63 -16q45 0 83 20q-8 -67 -84 -95q-34 -12 -73 -12q-85 0 -130 49q-27 30 -27 71zM141 451q0 39 39 44q5 1 10 1q37 0 48 -36q4 -13 4 -26
q0 -7 -2 -18h-35q-28 0 -50 -6q-13 18 -14 41z" />
    <glyph glyph-name="si_Cha" unicode="&#xda1;" horiz-adv-x="566" 
d="M368 416h-35q-1 7 -1 18q0 53 41 61q5 1 10 1q59 -2 60 -93q-36 13 -75 13zM365 278q-25 2 -27 22q1 14 14 18h10q34 -1 54 -19q-19 -21 -51 -21zM129 224q0 70 51 89q14 5 31 5h51q-8 -17 -8 -35q0 -49 43 -76q27 -16 63 -16q45 0 83 20q-8 -67 -84 -95q-34 -12 -73 -12
q-85 0 -130 49q-27 30 -27 71zM22 224q0 -128 107 -194q69 -42 158 -42q120 0 196 71q68 65 68 165q0 60 -24 103q10 35 10 82q-1 104 -53 152q83 88 99 163q6 27 6 55h-110q0 -53 -24 -93q-23 -37 -75 -92q-56 -4 -93 -40q-42 40 -101 40q-84 0 -121 -66q-18 -33 -18 -72
q1 -44 31 -86q-56 -54 -56 -146zM141 451q0 39 39 44q5 1 10 1q37 0 48 -36q4 -13 4 -26q0 -7 -2 -18h-35q-28 0 -50 -6q-13 20 -14 41z" />
    <glyph glyph-name="si_Cha.touch" horiz-adv-x="566" 
d="M368 416h-35q-1 7 -1 18q0 53 41 61q5 1 10 1q59 -2 60 -93q-36 13 -75 13zM365 278q-25 2 -27 22q1 14 14 18h10q34 -1 54 -19q-19 -21 -51 -21zM129 224q0 70 51 89q14 5 31 5h51q-8 -17 -8 -35q0 -49 43 -76q27 -16 63 -16q45 0 83 20q-8 -67 -84 -95q-34 -12 -73 -12
q-85 0 -130 49q-27 30 -27 71zM22 224q0 -128 107 -194q69 -42 158 -42q120 0 196 71q68 65 68 165q0 60 -24 103q10 35 10 82q-1 104 -53 152q83 88 99 163q6 27 6 55h-110q0 -53 -24 -93q-23 -37 -75 -92q-56 -4 -93 -40q-42 40 -101 40q-84 0 -121 -66q-18 -33 -18 -72
q1 -44 31 -86q-56 -54 -56 -146zM141 451q0 39 39 44q5 1 10 1q37 0 48 -36q4 -13 4 -26q0 -7 -2 -18h-35q-28 0 -50 -6q-13 20 -14 41z" />
    <glyph glyph-name="si_D.halant" horiz-adv-x="425" 
d="M298 710h-6q-5 1 -7 1v77h6q37 -3 38 -39q-2 -38 -31 -39zM199 866v-275q-70 -18 -92 -85q-7 -23 -7 -48q1 -38 21 -70q-79 -48 -96 -135q-3 -18 -3 -36q0 -97 73 -162q35 -30 77 -44q-18 -35 -18 -69q0 -70 58 -113q42 -31 97 -31q87 1 151 95l-77 52q-31 -41 -74 -42
q-37 0 -46 37q-2 9 -2 17q1 27 17 47q83 16 134 89l-86 62q-33 -38 -87 -39q-58 0 -89 47q-16 25 -16 54q0 55 49 85q26 16 56 16h129q19 62 19 112q0 102 -72 145q-12 7 -23 11v44q5 -1 13 -1q59 0 90 52q17 30 17 68q-1 117 -120 117h-93zM288 418q-28 3 -49 3
q-18 0 -34 -3q-12 14 -12 35q0 33 30 43q8 2 16 2q35 0 46 -37q4 -12 4 -25q0 -11 -1 -18z" />
    <glyph glyph-name="si_DAa" horiz-adv-x="695" 
d="M440 561l18 -101q6 1 15 1q61 0 79 -93q6 -33 6 -78q0 -156 -72 -170q-7 -1 -13 -1q-10 0 -15 1l-18 -101q17 -4 40 -4q103 0 155 93q38 69 38 182q0 200 -114 257q-36 18 -79 18q-15 0 -40 -4zM154 -58q0 -70 58 -113q42 -31 97 -31q87 1 151 95l-77 52q-31 -41 -74 -42
q-37 0 -46 37q-2 9 -2 17q1 27 17 47q81 16 134 89l-86 62q-33 -38 -87 -39q-58 0 -89 47q-16 25 -16 54q0 55 49 85q26 16 56 16h129q19 62 19 112q0 102 -72 145q-35 21 -76 21q-84 0 -121 -66q-18 -33 -18 -72q1 -38 21 -70q-79 -48 -96 -135q-3 -18 -3 -36
q0 -97 73 -162q35 -30 77 -44q-18 -35 -18 -69zM288 418q-28 3 -49 3q-18 0 -34 -3q-11 13 -11 35q0 35 30 43q8 2 15 2q34 0 47 -36q4 -12 4 -26q0 -5 -2 -18z" />
    <glyph glyph-name="si_DAa.halant" horiz-adv-x="702" 
d="M566 710h-6q-5 1 -7 1v77h6q37 -3 38 -39q-2 -38 -31 -39zM467 866v-302q-3 0 -27 -3l18 -101q6 1 15 1q61 0 79 -93q6 -33 6 -78q0 -156 -72 -170q-7 -1 -13 -1q-10 0 -15 1l-18 -101q17 -4 40 -4q103 0 155 93q38 69 38 182q0 196 -109 254l-4 2v84q5 -1 13 -1
q59 0 90 52q17 30 17 68q-1 117 -120 117h-93zM22 217q0 -100 75 -164q34 -29 75 -42q-18 -35 -18 -69q0 -71 58 -113q42 -31 97 -31q87 1 151 95l-77 52q-33 -41 -74 -42q-38 0 -46 39q-2 8 -2 15q1 27 17 47q83 16 134 89l-87 62q-33 -38 -86 -39q-58 0 -89 47
q-16 25 -16 54q0 55 49 85q26 16 56 16h129q19 62 19 112q0 102 -73 145q-35 21 -76 21q-83 0 -120 -66q-18 -32 -18 -72q1 -40 20 -70q-78 -48 -95 -134q-3 -19 -3 -37zM288 418q-28 3 -49 3q-13 0 -34 -2q-12 14 -12 34q0 33 29 43q8 2 16 2q36 0 47 -37q4 -12 4 -25
q0 -11 -1 -18z" />
    <glyph glyph-name="si_DAae" horiz-adv-x="768" 
d="M442 157q0 -81 53 -125q39 -32 99 -32q116 0 145 115q7 30 7 64h-96q-2 -74 -58 -75q-48 4 -50 53q0 78 74 115q29 14 53 14h22v88h-117l117 77v95h-235v-99h91l-91 -73v-88h39q-53 -55 -53 -129zM22 217q0 -97 73 -162q35 -30 77 -44q-18 -35 -18 -69q0 -70 58 -113
q42 -31 97 -31q87 1 151 95l-77 52q-31 -41 -74 -42q-37 0 -46 37q-2 9 -2 17q1 27 17 47q83 16 134 89l-86 62q-33 -38 -87 -39q-58 0 -89 47q-16 25 -16 54q0 55 49 85q26 16 56 16h129q19 62 19 112q0 102 -72 145q-35 21 -76 21q-84 0 -121 -66q-18 -33 -18 -72
q1 -38 21 -70q-79 -48 -96 -135q-3 -18 -3 -36zM288 418q-28 3 -49 3q-18 0 -34 -3q-12 14 -12 35q0 33 30 43q8 2 16 2q35 0 46 -37q4 -12 4 -25q0 -11 -1 -18z" />
    <glyph glyph-name="si_DAe" horiz-adv-x="755" 
d="M429 167q0 -79 48 -127q40 -40 104 -40q116 0 145 115q7 30 7 64h-96q-1 -67 -52 -68q-44 9 -48 56q0 56 48 128q16 25 115 156v95h-235v-99h108q-83 -112 -91 -126q-53 -82 -53 -154zM22 217q0 -97 73 -162q35 -30 77 -44q-18 -35 -18 -69q0 -70 58 -113q42 -31 97 -31
q87 1 151 95l-77 52q-31 -41 -74 -42q-37 0 -46 37q-2 9 -2 17q1 27 17 47q83 16 134 89l-86 62q-33 -38 -87 -39q-58 0 -89 47q-16 25 -16 54q0 55 49 85q26 16 56 16h129q19 62 19 112q0 102 -72 145q-35 21 -76 21q-84 0 -121 -66q-18 -33 -18 -72q1 -38 21 -70
q-79 -48 -96 -135q-3 -18 -3 -36zM288 418q-28 3 -49 3q-18 0 -34 -3q-12 14 -12 35q0 33 30 43q8 2 16 2q35 0 46 -37q4 -12 4 -25q0 -11 -1 -18z" />
    <glyph glyph-name="si_DDdh.halant" horiz-adv-x="754" 
d="M421 691q-24 0 -50 -3q-21 13 -22 33q2 40 100 40q130 -1 131 -60q-1 -24 -15 -38q-61 28 -144 28zM234 744q1 -50 40 -87q-27 -15 -51 -37l63 -82q39 35 103 42q9 1 16 1q133 0 180 -102q32 -68 32 -186q-3 -174 -57 -178q-57 3 -58 135h-96q0 -120 -46 -134
q-6 -1 -11 -1q-41 9 -43 115q0 53 8 76q16 50 56 51q18 -1 38 -12l38 100q-40 27 -86 27q-35 0 -65 -15q-25 56 -82 67q-13 3 -25 3q-117 0 -152 -143q-14 -55 -14 -129q0 -196 84 -239q31 -16 79 -16v102q-35 0 -47 46q-10 38 -10 107q0 143 51 165q7 3 14 3q26 -1 42 -22
q-17 -26 -26 -56q-14 -44 -14 -114q0 -148 69 -204q33 -27 79 -27q70 0 102 63q4 8 7 16q19 -62 79 -76q14 -3 29 -3q148 0 168 187q4 39 4 106q-1 207 -81 305q50 40 51 103q0 79 -78 127q-70 43 -175 43q-165 0 -205 -83q-10 -21 -10 -44z" />
    <glyph glyph-name="si_DDhI" horiz-adv-x="754" 
d="M438 675q-4 0 -32 -1q-29 -1 -33 -1q-32 0 -39 27q-1 5 -1 10q0 33 69 43q23 3 51 3q100 0 117 -40q2 -5 2 -11q-1 -32 -29 -44q-49 14 -105 14zM218 710q0 -94 78 -135q32 -17 63 -17q19 0 51 1q20 1 28 1q121 0 158 -105q21 -60 21 -162q-1 -177 -57 -178
q-57 3 -58 135h-96q0 -120 -46 -134q-6 -1 -11 -1q-41 9 -43 115q0 53 8 76q16 50 56 51q18 -1 38 -12l38 100q-40 27 -86 27q-35 0 -65 -15q-25 56 -82 67q-13 3 -25 3q-117 0 -152 -143q-14 -55 -14 -129q0 -196 84 -239q31 -16 79 -16v102q-35 0 -47 46q-10 38 -10 107
q0 143 51 165q7 3 14 3q26 -1 42 -22q-17 -26 -26 -56q-14 -44 -14 -114q0 -148 69 -204q33 -27 79 -27q70 0 102 63q4 8 7 16q19 -62 79 -76q14 -3 29 -3q148 0 168 187q4 39 4 106q-1 219 -93 311q47 40 48 101q0 78 -74 125q-64 41 -160 41q-141 0 -204 -75
q-31 -39 -31 -86z" />
    <glyph glyph-name="si_DDhIi" horiz-adv-x="754" 
d="M519 717q0 28 25 37q7 3 14 3q28 0 37 -26q3 -7 3 -14q0 -28 -26 -38q-7 -2 -14 -2q-29 0 -37 27q-2 7 -2 13zM427 717q0 -24 7 -42q-8 0 -40 -1q-18 -1 -21 -1q-32 0 -39 27q-1 5 -1 10q0 39 56 54q22 6 50 7q-12 -25 -12 -54zM218 710q0 -94 78 -135q32 -17 63 -17
q19 0 51 1q20 1 28 1q121 0 158 -105q21 -60 21 -162q-1 -177 -57 -178q-57 3 -58 135h-96q0 -120 -46 -134q-6 -1 -11 -1q-41 9 -43 115q0 53 8 76q18 50 56 51q18 -1 38 -12l38 100q-40 27 -86 27q-35 0 -65 -15q-25 56 -82 67q-13 3 -25 3q-117 0 -152 -143
q-14 -55 -14 -129q0 -196 84 -239q31 -16 79 -16v102q-35 0 -47 46q-10 38 -10 107q0 143 51 165q7 3 14 3q26 -1 42 -22q-17 -26 -26 -56q-14 -44 -14 -114q0 -148 69 -204q33 -27 79 -27q70 0 102 63q4 8 7 16q19 -62 79 -76q14 -3 29 -3q148 0 168 187q4 39 4 106
q-1 226 -100 318q46 33 54 88v1v3v3q1 2 1 3v2v6v3q0 7 -1 11v1v4l-1 1v4v1q-1 2 -1 3q-13 55 -61 84q-65 42 -170 42q-141 0 -204 -75q-31 -39 -31 -86z" />
    <glyph glyph-name="si_DDhU" horiz-adv-x="754" 
d="M234 -104q5 -99 103 -101h366v293q29 65 29 205q0 304 -114 403q-69 59 -182 59q-100 0 -167 -67q-32 -33 -48 -75l109 -36q19 47 79 60q14 3 27 3q116 0 155 -119q26 -80 26 -228q-3 -174 -57 -178q-57 3 -58 135h-96q0 -120 -46 -134q-6 -1 -11 -1q-41 9 -43 115
q0 53 8 76q16 50 56 51q18 -1 38 -12l38 100q-40 27 -86 27q-35 0 -65 -15q-25 56 -82 67q-13 3 -25 3q-117 0 -152 -143q-14 -55 -14 -129q0 -196 84 -239q31 -16 79 -16v102q-35 0 -47 46q-10 38 -10 107q0 143 51 165q7 3 14 3q26 -1 42 -22q-17 -26 -26 -56
q-14 -44 -14 -114q0 -148 69 -204q33 -27 79 -27q70 0 102 63q4 8 7 16q19 -62 79 -76q14 -3 29 -3q12 0 29 2v-104h-211q-31 2 -32 35q0 9 1 14l-106 12q-7 -34 -7 -63z" />
    <glyph glyph-name="si_DDhUu" horiz-adv-x="754" 
d="M234 -104q5 -99 103 -101q27 0 102 28q54 19 81 19q51 -1 76 -47h107v293q29 65 29 205q0 304 -114 403q-69 59 -182 59q-100 0 -167 -67q-32 -33 -48 -75l109 -36q19 47 79 60q14 3 27 3q116 0 155 -119q26 -80 26 -228q-3 -174 -57 -178q-57 3 -58 135h-96
q0 -120 -46 -134q-6 -1 -11 -1q-41 9 -43 115q0 53 8 76q16 50 56 51q18 -1 38 -12l38 100q-40 27 -86 27q-35 0 -65 -15q-25 56 -82 67q-13 3 -25 3q-117 0 -152 -143q-14 -55 -14 -129q0 -196 84 -239q31 -16 79 -16v102q-35 0 -47 46q-10 38 -10 107q0 143 51 165
q7 3 14 3q26 -1 42 -22q-17 -26 -26 -56q-14 -44 -14 -114q0 -148 69 -204q33 -27 79 -27q70 0 102 63q4 8 7 16q19 -62 79 -76q14 -3 29 -3q20 0 36 3v-77q-26 21 -61 21q-50 0 -121 -29q-35 -14 -51 -14q-19 2 -20 22q0 11 1 17l-103 15q-7 -33 -7 -62z" />
    <glyph glyph-name="si_DDha" horiz-adv-x="754" 
d="M195 231q0 -148 69 -204q33 -27 79 -27q70 0 102 63q4 8 7 16q19 -62 79 -76q14 -3 29 -3q148 0 168 187q4 39 4 106q0 304 -114 403q-69 59 -182 59q-100 0 -167 -67q-32 -33 -48 -75l109 -36q19 47 79 60q14 3 27 3q116 0 155 -119q26 -80 26 -228q-3 -174 -57 -178
q-57 3 -58 135h-96q0 -120 -46 -134q-6 -1 -11 -1q-41 9 -43 115q0 53 8 76q16 50 56 51q18 -1 38 -12l38 100q-40 27 -86 27q-35 0 -65 -15q-25 56 -82 67q-13 3 -25 3q-117 0 -152 -143q-14 -55 -14 -129q0 -196 84 -239q31 -16 79 -16v102q-35 0 -47 46q-10 38 -10 107
q0 143 51 165q7 3 14 3q26 -1 42 -22q-17 -26 -26 -56q-14 -44 -14 -114z" />
    <glyph glyph-name="si_DDha.reph" horiz-adv-x="754" 
d="M370 685q0 23 21 29q5 1 8 1q22 0 28 -22q1 -4 1 -8q0 -22 -21 -28q-4 -1 -8 -1q-22 0 -28 21q-1 4 -1 8zM222 662l59 -74q5 4 13 11q15 12 23 17q11 -13 30 -24q25 -13 52 -13q59 0 91 48q18 27 18 58q0 48 -44 72q-22 11 -46 12q12 3 27 3q67 0 87 -57q6 -18 6 -39
q-1 -56 -43 -82l50 -64q17 9 33 23q39 -82 39 -260q-3 -174 -57 -178q-57 3 -58 135h-96q0 -120 -46 -134q-6 -1 -11 -1q-41 9 -43 115q0 53 8 76q18 50 56 51q18 -1 38 -12l38 100q-40 27 -86 27q-35 0 -65 -15q-25 56 -82 67q-13 3 -25 3q-117 0 -152 -143
q-14 -55 -14 -129q0 -196 84 -239q31 -16 79 -16v102q-35 0 -47 46q-10 38 -10 107q0 143 51 165q7 3 14 3q26 -1 42 -22q-17 -26 -26 -56q-14 -44 -14 -114q0 -148 69 -204q33 -27 79 -27q70 0 102 63q4 8 7 16q19 -62 79 -76q14 -3 29 -3q148 0 168 187q4 39 4 106
q0 270 -85 366q-8 9 -16 16q-1 100 -78 147q-45 27 -102 27q-104 0 -146 -74q-15 -29 -17 -62q-30 -17 -66 -51z" />
    <glyph glyph-name="si_DI" horiz-adv-x="498" 
d="M22 661q0 -71 50 -123q22 -22 48 -33q-7 -22 -7 -47q1 -38 21 -70q-79 -48 -96 -135q-3 -18 -3 -36q0 -97 73 -162q35 -30 77 -44q-18 -35 -18 -69q0 -70 58 -113q42 -31 97 -31q87 1 151 95l-77 52q-31 -41 -74 -42q-37 0 -46 37q-2 9 -2 17q1 27 17 47q83 16 134 89
l-86 62q-33 -38 -87 -39q-58 0 -89 47q-16 25 -16 54q0 55 49 85q26 16 56 16h129q19 62 19 112q0 40 -12 71q63 19 94 90q16 35 16 70q0 95 -83 156q-68 49 -155 49q-107 0 -178 -68q-60 -59 -60 -137zM252 596q-41 0 -73 -18q-46 28 -46 83q0 46 48 74q35 20 79 20
q76 0 112 -49q15 -21 15 -45q-1 -60 -55 -88q-37 23 -80 23zM301 418q-28 3 -49 3q-18 0 -34 -3q-12 14 -12 35q0 33 30 43q8 2 16 2q35 0 46 -37q4 -12 4 -25q0 -11 -1 -18z" />
    <glyph glyph-name="si_DIi" horiz-adv-x="498" 
d="M316 626q0 28 26 37q7 3 14 3q28 0 37 -26q3 -7 3 -14q0 -29 -26 -39q-7 -2 -14 -2q-27 0 -37 25q-3 8 -3 16zM225 626q0 -19 4 -32q-29 -3 -55 -19q-41 30 -41 86q0 46 46 77q35 24 81 24q80 -1 106 -29q-17 5 -32 5q-57 0 -89 -44q-20 -29 -20 -68zM22 661
q0 -71 50 -123q22 -22 48 -33q-7 -22 -7 -47q1 -38 21 -70q-79 -48 -96 -135q-3 -18 -3 -36q0 -97 73 -162q35 -30 77 -44q-18 -35 -18 -69q0 -70 58 -113q42 -31 97 -31q87 1 151 95l-77 52q-31 -41 -74 -42q-37 0 -46 37q-2 9 -2 17q1 27 17 47q83 16 134 89l-86 62
q-33 -38 -87 -39q-58 0 -89 47q-16 25 -16 54q0 55 49 85q26 16 56 16h129q19 62 19 112q0 40 -12 70l18 6q62 24 84 101q8 28 8 54q0 95 -83 156q-68 49 -155 49q-107 0 -178 -68q-60 -59 -60 -137zM301 418q-28 3 -49 3q-18 0 -34 -3q-12 14 -12 35q0 33 30 43q8 2 16 2
q35 0 46 -37q4 -12 4 -25q0 -11 -1 -18z" />
    <glyph glyph-name="si_DR.halant" horiz-adv-x="451" 
d="M298 710h-6q-5 1 -7 1v77h6q37 -3 38 -39q-2 -38 -31 -39zM199 866v-275q-70 -18 -92 -85q-7 -23 -7 -48q1 -38 21 -70q-79 -48 -96 -135q-3 -18 -3 -36q0 -99 74 -163q62 -54 143 -54q45 0 87 19v-30q0 -121 -56 -146q-19 -8 -44 -8q-61 0 -82 53q-7 19 -7 41h-115
q0 -138 106 -186q44 -19 98 -19q151 0 189 141q14 52 14 124v166h-103q-33 -38 -87 -39q-58 0 -89 47q-16 25 -16 54q0 55 49 85q26 16 56 16h129q19 62 19 112q0 102 -72 145q-12 7 -23 11v44q5 -1 13 -1q61 0 91 53q16 30 16 67q-1 117 -120 117h-93zM288 418q-28 3 -49 3
q-18 0 -34 -3q-11 13 -11 35q0 33 29 43q8 2 16 2q34 0 47 -36q4 -12 4 -26q0 -5 -2 -18z" />
    <glyph glyph-name="si_DRI" horiz-adv-x="498" 
d="M252 596q-41 0 -73 -18q-46 28 -46 83q0 46 48 74q35 20 79 20q76 0 112 -49q15 -21 15 -45q-1 -60 -55 -88q-37 23 -80 23zM22 661q0 -71 50 -123q22 -22 48 -33q-7 -22 -7 -47q1 -38 21 -70q-79 -48 -96 -135q-3 -18 -3 -36q0 -99 74 -163q62 -54 143 -54q46 0 87 20
v-31q0 -121 -56 -146q-19 -8 -44 -8q-63 0 -83 55q-6 18 -6 39h-115q0 -139 107 -186q44 -19 97 -19q202 2 203 233v198h-103q-33 -38 -87 -39q-58 0 -89 47q-16 25 -16 54q0 55 49 85q26 16 56 16h129q19 62 19 112q0 40 -12 71q63 19 94 90q16 35 16 70q0 95 -83 156
q-68 49 -155 49q-107 0 -178 -68q-60 -59 -60 -137zM301 418q-28 3 -49 3q-18 0 -34 -3q-12 14 -12 35q0 33 30 43q8 2 16 2q35 0 46 -37q4 -12 4 -25q0 -11 -1 -18z" />
    <glyph glyph-name="si_DRIi" horiz-adv-x="498" 
d="M316 626q0 28 26 37q7 3 14 3q28 0 37 -26q3 -7 3 -14q0 -29 -26 -39q-7 -2 -14 -2q-27 0 -37 25q-3 8 -3 16zM225 626q0 -19 4 -32q-29 -3 -55 -19q-41 30 -41 86q0 46 46 77q35 24 81 24q80 -1 106 -29q-17 5 -32 5q-57 0 -89 -44q-20 -29 -20 -68zM22 661
q0 -71 50 -123q22 -22 48 -33q-7 -22 -7 -47q1 -38 21 -70q-79 -48 -96 -135q-3 -18 -3 -36q0 -99 74 -163q62 -54 143 -54q46 0 87 20v-31q0 -121 -56 -146q-19 -8 -44 -8q-63 0 -83 55q-6 18 -6 39h-115q0 -139 107 -186q44 -19 97 -19q202 2 203 233v198h-103
q-33 -38 -87 -39q-58 0 -89 47q-16 25 -16 54q0 55 49 85q26 16 56 16h129q19 62 19 112q0 40 -12 70l18 6q62 24 84 101q8 28 8 54q0 95 -83 156q-68 49 -155 49q-107 0 -178 -68q-60 -59 -60 -137zM301 418q-28 3 -49 3q-18 0 -34 -3q-12 14 -12 35q0 33 30 43q8 2 16 2
q35 0 46 -37q4 -12 4 -25q0 -11 -1 -18z" />
    <glyph glyph-name="si_DRa" horiz-adv-x="451" 
d="M22 -71q0 -138 106 -186q44 -19 98 -19q202 2 203 233v198h-103q-33 -38 -87 -39q-58 0 -89 47q-16 25 -16 54q0 55 49 85q26 16 56 16h129q19 62 19 112q0 102 -72 145q-35 21 -76 21q-84 0 -121 -66q-18 -33 -18 -72q1 -38 21 -70q-79 -48 -96 -135q-3 -18 -3 -36
q0 -99 74 -163q62 -54 143 -54q45 0 87 19v-30q0 -121 -56 -146q-19 -8 -44 -8q-61 0 -82 53q-7 19 -7 41h-115zM288 418q-28 3 -49 3q-18 0 -34 -3q-11 13 -11 35q0 33 29 43q8 2 16 2q34 0 47 -36q4 -12 4 -26q0 -5 -2 -18z" />
    <glyph glyph-name="si_DU" horiz-adv-x="434" 
d="M13 -104q5 -99 103 -101h296v361l-86 -1q-33 -38 -87 -39q-57 0 -88 46q-17 26 -17 55q0 55 48 85q27 16 57 16h129q19 62 19 112q0 102 -72 145q-35 21 -76 21q-84 0 -121 -66q-18 -33 -18 -72q1 -38 21 -70q-79 -48 -96 -135q-3 -18 -3 -36q0 -99 74 -163
q62 -54 143 -54q33 0 66 11v-109h-155q-26 2 -27 23q0 7 2 22l-105 12q-7 -34 -7 -63zM288 418q-28 3 -49 3q-19 0 -35 -3l1 1q-12 14 -12 34q0 33 30 43q8 2 16 2q35 0 46 -37q4 -12 4 -25q0 -11 -1 -18z" />
    <glyph glyph-name="si_DUu" horiz-adv-x="434" 
d="M1 -103q2 -100 103 -101q19 0 71 27q36 19 54 19q51 -1 76 -47h107v361l-86 -1q-33 -38 -87 -39q-57 0 -88 46q-17 26 -17 55q0 55 48 85q27 16 57 16h129q19 62 19 112q0 102 -72 145q-35 21 -76 21q-84 0 -121 -66q-18 -33 -18 -72q1 -38 21 -70q-79 -48 -96 -135
q-3 -18 -3 -36q0 -99 74 -163q62 -54 143 -54q33 0 66 11v-85q-26 21 -61 21q-33 0 -81 -29q-22 -13 -33 -13q-19 2 -20 22q0 6 2 17l-104 15q-7 -33 -7 -62zM288 418q-28 3 -49 3q-19 0 -35 -3l1 1q-12 14 -12 34q0 33 30 43q8 2 16 2q35 0 46 -37q4 -12 4 -25
q0 -11 -1 -18z" />
    <glyph glyph-name="si_DV.halant" horiz-adv-x="708" 
d="M408 691q-22 0 -50 -3q-21 17 -22 33q2 40 100 40q111 -1 112 -56q-1 -26 -16 -39q-55 25 -124 25zM686 354q-1 158 -69 246q52 41 53 105q0 78 -74 125q-64 41 -160 41q-165 0 -205 -83q-10 -21 -10 -44q1 -50 40 -87q-27 -15 -51 -37l63 -82q39 35 102 42q9 1 17 1
q125 0 164 -121q15 -47 15 -106q0 -196 -94 -230q-23 -9 -52 -9q-98 0 -116 80q-4 16 -4 32q0 74 59 79h10h125q7 33 7 60q0 102 -72 145q-35 21 -76 21q-57 -1 -91 -36q-34 31 -79 31q-117 0 -152 -143q-14 -55 -14 -129q0 -196 84 -239q31 -16 79 -16v102q-35 0 -47 46
q-10 38 -10 107q0 143 51 165q7 3 14 3q27 -1 42 -22q2 -19 9 -40q-40 -34 -48 -116q-1 -13 -1 -26q0 -86 55 -148q63 -71 175 -71q206 0 249 215q12 61 12 139zM324 405q2 38 34 39q40 0 50 -41q2 -6 2 -12h-79h-5q-2 8 -2 14z" />
    <glyph glyph-name="si_DVI" horiz-adv-x="708" 
d="M421 675q-4 0 -33 -1q-28 -1 -32 -1q-32 0 -39 25q-1 5 -1 9q2 49 120 49q107 0 118 -47q1 -4 1 -8q-1 -30 -30 -41q-46 15 -104 15zM201 710q0 -94 78 -135q32 -17 63 -17q19 0 51 1q20 1 28 1q149 -2 150 -206q0 -196 -94 -230q-23 -9 -52 -9q-98 0 -116 80
q-4 16 -4 32q0 74 59 79h10h125q7 33 7 60q0 102 -72 145q-35 21 -76 21q-57 -1 -91 -36q-34 31 -79 31q-117 0 -152 -143q-14 -55 -14 -129q0 -196 84 -239q31 -16 79 -16v102q-35 0 -47 46q-10 38 -10 107q0 143 51 165q7 3 14 3q27 -1 42 -22q2 -19 9 -40
q-40 -34 -48 -116q-1 -13 -1 -26q0 -86 55 -148q63 -71 175 -71q206 0 249 215q12 61 12 139q-1 167 -69 246q52 40 53 105q0 78 -74 125q-64 41 -160 41q-141 0 -204 -75q-31 -39 -31 -86zM324 405q2 38 34 39q40 0 50 -41q2 -6 2 -12h-79h-5q-2 8 -2 14z" />
    <glyph glyph-name="si_DVIi" horiz-adv-x="708" 
d="M501 717q0 28 26 37q7 3 14 3q27 0 37 -26q2 -7 2 -14q0 -29 -25 -39q-7 -2 -14 -2q-27 0 -37 25q-3 8 -3 16zM410 717q0 -24 7 -42q-8 0 -40 -1q-18 -1 -21 -1q-32 0 -39 25q-1 5 -1 9q0 47 91 55q6 1 11 1q-8 -25 -8 -46zM201 710q0 -94 78 -135q32 -17 63 -17
q19 0 51 1q20 1 28 1q149 -2 150 -206q0 -196 -94 -230q-23 -9 -52 -9q-98 0 -116 80q-4 16 -4 32q0 74 59 79h10h125q7 33 7 60q0 102 -72 145q-35 21 -76 21q-58 -1 -91 -36q-35 31 -79 31q-117 0 -152 -143q-14 -55 -14 -129q0 -196 84 -239q31 -16 79 -16v102
q-35 0 -47 46q-10 38 -10 107q0 143 51 165q7 3 14 3q25 -1 41 -21q2 -22 10 -41q-43 -38 -48 -123q-1 -10 -1 -19q0 -86 55 -148q63 -71 175 -71q206 0 249 215q12 61 12 139q-1 176 -76 253q49 33 59 92v1v3v3q1 2 1 3v2v6q0 134 -178 151q-27 3 -56 3q-141 0 -204 -75
q-31 -39 -31 -86zM324 405q2 38 34 39q40 0 50 -41q2 -6 2 -12h-79h-5q-2 8 -2 14z" />
    <glyph glyph-name="si_DVU" horiz-adv-x="709" 
d="M195 -104q5 -99 103 -101h366v379q23 76 23 180q-1 400 -270 401q-105 0 -169 -76q-24 -30 -38 -66l109 -36q22 54 82 62q8 1 16 1q122 0 147 -177q7 -49 7 -109q0 -196 -94 -230q-23 -9 -52 -9q-98 0 -116 80q-4 16 -4 32q0 74 59 79h10h125q7 33 7 60q0 102 -72 145
q-35 21 -76 21q-57 -1 -91 -36q-34 31 -79 31q-117 0 -152 -143q-14 -55 -14 -129q0 -196 84 -239q31 -16 79 -16v102q-35 0 -47 46q-10 38 -10 107q0 143 51 165q7 3 14 3q27 -1 42 -22q2 -19 9 -40q-40 -34 -48 -116q-1 -13 -1 -26q0 -86 55 -148q63 -71 175 -71
q72 0 125 26v-128h-211q-31 2 -32 35q0 9 1 14l-106 12q-7 -34 -7 -63zM324 405q2 38 34 39q40 0 50 -41q2 -6 2 -12h-79h-5q-2 8 -2 14z" />
    <glyph glyph-name="si_DVUu" horiz-adv-x="709" 
d="M195 -104q5 -99 103 -101q28 0 103 28q53 19 80 19q51 -1 76 -47h107v379q23 76 23 180q0 400 -270 401q-105 0 -169 -76q-24 -30 -38 -66l109 -36q22 54 82 62q8 1 16 1q122 0 147 -177q7 -49 7 -109q0 -196 -94 -230q-23 -9 -52 -9q-98 0 -116 80q-4 16 -4 32
q0 74 59 79h10h125q7 33 7 60q0 102 -72 145q-35 21 -76 21q-57 -1 -91 -36q-34 31 -79 31q-117 0 -152 -143q-14 -55 -14 -129q0 -196 84 -239q31 -16 79 -16v102q-35 0 -47 46q-10 38 -10 107q0 143 51 165q7 3 14 3q27 -1 42 -22q2 -19 9 -40q-40 -34 -48 -116
q-1 -13 -1 -26q0 -86 55 -148q63 -71 175 -71q78 0 132 30v-104q-26 21 -61 21q-50 0 -121 -29q-35 -14 -51 -14q-19 2 -20 22q0 11 1 17l-103 15q-7 -33 -7 -62zM324 405q2 38 34 39q40 0 50 -41q2 -6 2 -12h-79h-5q-2 8 -2 14z" />
    <glyph glyph-name="si_DVa" horiz-adv-x="709" 
d="M195 219q0 -86 55 -148q63 -71 175 -71q204 0 249 211q13 62 13 143q-1 400 -270 401q-105 0 -169 -76q-24 -30 -38 -66l109 -36q22 54 82 62q8 1 16 1q122 0 147 -177q7 -49 7 -109q0 -196 -94 -230q-23 -9 -52 -9q-98 0 -116 80q-4 16 -4 32q0 74 59 79h10h125
q7 33 7 60q0 102 -72 145q-35 21 -76 21q-57 -1 -91 -36q-34 31 -79 31q-117 0 -152 -143q-14 -55 -14 -129q0 -196 84 -239q31 -16 79 -16v102q-35 0 -47 46q-10 38 -10 107q0 143 51 165q7 3 14 3q27 -1 42 -22q2 -19 9 -40q-40 -34 -48 -116q-1 -13 -1 -26zM324 405
q2 38 34 39q40 0 50 -41q2 -6 2 -12h-79h-5q-2 8 -2 14z" />
    <glyph glyph-name="si_DVa.reph" horiz-adv-x="709" 
d="M377 685q0 23 21 29q5 1 8 1q22 0 28 -22q1 -4 1 -8q0 -22 -21 -28q-4 -1 -8 -1q-22 0 -28 21q-1 4 -1 8zM210 613l92 -33q8 17 24 33q13 -13 28 -21q25 -13 52 -13q59 0 91 48q18 27 18 58q0 48 -44 72q-22 11 -46 12q12 3 27 3q65 0 86 -56q7 -18 7 -40q0 -44 -34 -81
q-17 -18 -39 -28l50 -64q15 7 30 18q19 -67 19 -167q0 -196 -94 -230q-23 -9 -52 -9q-98 0 -116 80q-4 16 -4 32q0 74 59 79h10h125q7 33 7 60q0 102 -72 145q-35 21 -76 21q-57 -1 -91 -36q-34 31 -79 31q-117 0 -152 -143q-14 -55 -14 -129q0 -196 84 -239q31 -16 79 -16
v102q-35 0 -47 46q-10 38 -10 107q0 143 51 165q7 3 14 3q27 -1 42 -22q2 -19 9 -40q-40 -34 -48 -116q-1 -13 -1 -26q0 -86 55 -148q63 -71 175 -71q204 0 249 211q13 62 13 143q0 179 -54 279q5 22 5 40q0 101 -78 149q-45 27 -102 27q-104 0 -145 -74q-14 -26 -17 -55
q-60 -38 -86 -107zM324 405q2 38 34 39q40 0 50 -41q2 -6 2 -12h-79h-5q-2 8 -2 14z" />
    <glyph glyph-name="si_DYAa.post" horiz-adv-x="1181" 
d="M927 561l18 -101q6 1 15 1q61 0 79 -93q6 -33 6 -78q0 -156 -72 -170q-7 -1 -13 -1q-10 0 -15 1l-18 -101q17 -4 40 -4q103 0 155 93q38 69 38 182q0 200 -114 257q-36 18 -79 18q-15 0 -40 -4zM746 397q-10 0 -34 -3q-1 8 -1 18q0 46 33 59q9 3 17 3q35 0 44 -32
q2 -7 2 -13q-1 -20 -15 -37q-21 5 -46 5zM717 116q-19 0 -78 13q-19 4 -33 4q-7 0 -18 -2q13 30 74 138q7 14 13 25h45q73 0 80 -70q1 -7 1 -15q0 -69 -51 -88q-16 -5 -33 -5zM448 422h92q3 49 30 51q29 -2 29 -55q0 -43 -53 -142q-64 -119 -81 -175q-17 -54 -17 -101h110
q17 21 40 21q9 0 62 -13q32 -8 57 -8q102 0 159 79q41 56 41 130q-1 93 -49 142q33 37 33 86q0 66 -53 107q-38 28 -87 28q-60 -1 -100 -40l-6 6q-20 31 -72 37q-9 1 -17 1q-117 -2 -118 -154zM22 217q0 -100 75 -164q34 -29 75 -42q-18 -35 -18 -69q0 -71 58 -113
q42 -31 97 -31q87 1 151 95l-77 52q-33 -41 -74 -42q-38 0 -46 39q-2 8 -2 15q1 27 17 47q83 16 134 89l-87 62q-33 -38 -86 -39q-58 0 -89 47q-16 25 -16 54q0 55 49 85q26 16 56 16h129q19 62 19 112q0 102 -73 145q-35 21 -76 21q-83 0 -120 -66q-18 -32 -18 -72
q1 -40 20 -70q-78 -48 -95 -134q-3 -19 -3 -37zM288 418q-28 3 -49 3q-13 0 -34 -2q-12 14 -12 34q0 33 29 43q8 2 16 2q36 0 47 -37q4 -12 4 -25q0 -11 -1 -18z" />
    <glyph glyph-name="si_DYOo.post" horiz-adv-x="1189" 
d="M1053 710h-6q-5 1 -7 1v77h6q37 -3 38 -39q-2 -38 -31 -39zM954 866v-302q-3 0 -27 -3l18 -101q6 1 15 1q61 0 79 -93q6 -33 6 -78q0 -156 -72 -170q-7 -1 -13 -1q-10 0 -15 1l-18 -101q17 -4 40 -4q103 0 155 93q38 69 38 182q0 196 -109 254l-4 2v84q5 -1 13 -1
q59 0 90 52q17 30 17 68q-1 117 -120 117h-93zM746 397q-9 0 -33 -3q-2 14 -2 18q0 46 34 59q9 3 17 3q35 0 44 -32q2 -7 2 -13q-1 -19 -16 -37q-21 5 -46 5zM717 116q-20 0 -77 13q-19 4 -33 4q-6 0 -19 -2q13 30 74 138q7 14 13 25h45q73 0 80 -70q1 -7 1 -15
q0 -71 -54 -89q-14 -4 -30 -4zM448 422h92q1 50 30 51q29 -2 30 -55q0 -43 -53 -142q-65 -119 -82 -175q-17 -54 -17 -101h110q17 21 41 21q9 0 63 -13q31 -8 55 -8q103 0 160 80q40 56 40 129q-1 93 -49 142q33 38 34 86q0 66 -53 107q-38 28 -87 28q-60 -1 -101 -40l-6 6
q-18 29 -69 37q-10 1 -19 1q-118 -2 -119 -154zM22 217q0 -97 73 -162q35 -30 77 -44q-17 -33 -17 -69q0 -70 57 -113q42 -31 97 -31q87 1 151 95l-77 52q-31 -41 -74 -42q-37 0 -45 39q-2 7 -2 15q1 28 16 47q81 16 134 89l-86 62q-33 -38 -87 -39q-58 0 -89 47
q-16 25 -16 54q0 55 49 85q26 16 56 16h129q19 62 19 112q0 102 -72 145q-35 21 -76 21q-84 0 -121 -66q-18 -33 -18 -72q1 -38 21 -70q-79 -48 -96 -135q-3 -18 -3 -36zM288 418q-28 3 -49 3q-18 0 -34 -3q-11 13 -11 35q0 33 29 43q8 2 16 2q36 0 47 -37q4 -12 4 -25
q0 -5 -2 -18z" />
    <glyph glyph-name="si_DYUu.post" horiz-adv-x="939" 
d="M465 -104q0 -94 87 -100q8 -1 16 -1q22 0 82 28q42 19 63 19q51 -1 76 -47h107v317q21 44 21 97q-1 93 -49 142q33 38 34 86q0 66 -53 107q-38 28 -87 28q-60 -1 -101 -40l-6 6q-20 30 -71 37q-9 1 -17 1q-118 -2 -119 -154h92q3 49 30 51q29 -2 29 -55q0 -43 -53 -142
q-64 -119 -81 -175q-17 -54 -17 -101h110q17 21 40 21q9 0 63 -13q31 -8 56 -8q41 0 72 13v-87q-26 21 -61 21q-39 0 -94 -29q-27 -14 -40 -14q-19 2 -20 22q0 11 1 17l-103 15q-7 -34 -7 -62zM746 397q-10 0 -34 -3q-1 8 -1 18q0 46 34 59q9 3 17 3q34 0 43 -31q2 -8 2 -14
q-1 -20 -15 -37q-21 5 -46 5zM717 116q-20 0 -76 13q-20 4 -35 4q-6 0 -18 -2q13 30 74 138q7 14 13 25h45q73 0 80 -70q1 -7 1 -15q0 -69 -51 -88q-16 -5 -33 -5zM22 217q0 -97 73 -162q35 -30 77 -44q-18 -35 -18 -69q0 -70 58 -113q42 -31 97 -31q74 1 132 70l-68 65
q-29 -30 -64 -30q-37 0 -46 37q-2 9 -2 17q1 27 17 47q83 16 134 89l-86 62q-33 -38 -87 -39q-58 0 -89 47q-16 25 -16 54q0 55 49 85q26 16 56 16h129q19 62 19 112q0 102 -72 145q-35 21 -76 21q-84 0 -121 -66q-18 -33 -18 -72q1 -38 21 -70q-79 -48 -96 -135
q-3 -18 -3 -36zM288 418q-28 3 -49 3q-18 0 -34 -3q-12 14 -12 35q0 33 30 43q8 2 16 2q35 0 46 -37q4 -12 4 -25q0 -11 -1 -18z" />
    <glyph glyph-name="si_DYa.post" horiz-adv-x="939" 
d="M746 397q-10 0 -34 -3q-1 8 -1 18q0 46 34 59q9 3 17 3q34 0 43 -31q2 -8 2 -14q-1 -20 -15 -37q-21 5 -46 5zM717 116q-20 0 -76 13q-20 4 -35 4q-6 0 -18 -2q13 30 74 138q7 14 13 25h45q73 0 80 -70q1 -7 1 -15q0 -69 -51 -88q-16 -5 -33 -5zM448 422h92q3 49 30 51
q29 -2 29 -55q0 -43 -53 -142q-64 -119 -81 -175q-17 -54 -17 -101h110q17 21 40 21q9 0 63 -13q31 -8 56 -8q102 0 159 79q41 56 41 130q-1 93 -49 142q33 38 34 86q0 66 -53 107q-38 28 -87 28q-60 -1 -101 -40l-6 6q-20 30 -71 37q-9 1 -17 1q-118 -2 -119 -154zM22 217
q0 -97 73 -162q35 -30 77 -44q-18 -35 -18 -69q0 -70 58 -113q42 -31 97 -31q87 1 151 95l-77 52q-31 -41 -74 -42q-37 0 -46 37q-2 9 -2 17q1 27 17 47q83 16 134 89l-86 62q-33 -38 -87 -39q-58 0 -89 47q-16 25 -16 54q0 55 49 85q26 16 56 16h129q19 62 19 112
q0 102 -72 145q-35 21 -76 21q-84 0 -121 -66q-18 -33 -18 -72q1 -38 21 -70q-79 -48 -96 -135q-3 -18 -3 -36zM288 418q-28 3 -49 3q-18 0 -34 -3q-12 14 -12 35q0 33 30 43q8 2 16 2q35 0 46 -37q4 -12 4 -25q0 -11 -1 -18z" />
    <glyph glyph-name="si_DYu.post" horiz-adv-x="939" 
d="M465 -104q0 -94 87 -100q8 -1 16 -1h328v317q21 44 21 97q-1 93 -49 142q33 38 34 86q0 66 -53 107q-38 28 -87 28q-60 -1 -101 -40l-6 6q-20 30 -71 37q-9 1 -17 1q-118 -2 -119 -154h92q3 49 30 51q29 -2 29 -55q0 -43 -53 -142q-64 -119 -81 -175q-17 -54 -17 -101
h110q17 21 40 21q9 0 63 -13q31 -8 56 -8q41 0 72 13v-111h-187q-26 2 -27 23q0 7 2 22l-105 12q-7 -34 -7 -63zM746 397q-10 0 -34 -3q-1 8 -1 18q0 46 34 59q9 3 17 3q34 0 43 -31q2 -8 2 -14q-1 -20 -15 -37q-21 5 -46 5zM717 116q-20 0 -76 13q-20 4 -35 4q-6 0 -18 -2
q13 30 74 138q7 14 13 25h45q73 0 80 -70q1 -7 1 -15q0 -69 -51 -88q-16 -5 -33 -5zM22 217q0 -97 73 -162q35 -30 77 -44q-18 -35 -18 -69q0 -70 58 -113q42 -31 97 -31q74 1 132 70l-68 65q-29 -30 -64 -30q-37 0 -46 37q-2 9 -2 17q1 27 17 47q83 16 134 89l-86 62
q-33 -38 -87 -39q-58 0 -89 47q-16 25 -16 54q0 55 49 85q26 16 56 16h129q19 62 19 112q0 102 -72 145q-35 21 -76 21q-84 0 -121 -66q-18 -33 -18 -72q1 -38 21 -70q-79 -48 -96 -135q-3 -18 -3 -36zM288 418q-28 3 -49 3q-18 0 -34 -3q-12 14 -12 35q0 33 30 43q8 2 16 2
q35 0 46 -37q4 -12 4 -25q0 -11 -1 -18z" />
    <glyph glyph-name="si_Da" unicode="&#xdaf;" horiz-adv-x="425" 
d="M22 217q0 -97 73 -162q35 -30 77 -44q-18 -35 -18 -69q0 -70 58 -113q42 -31 97 -31q87 1 151 95l-77 52q-31 -41 -74 -42q-37 0 -46 37q-2 9 -2 17q1 27 17 47q83 16 134 89l-86 62q-33 -38 -87 -39q-58 0 -89 47q-16 25 -16 54q0 55 49 85q26 16 56 16h129
q19 62 19 112q0 102 -72 145q-35 21 -76 21q-84 0 -121 -66q-18 -33 -18 -72q1 -38 21 -70q-79 -48 -96 -135q-3 -18 -3 -36zM288 418q-28 3 -49 3q-18 0 -34 -3q-12 14 -12 35q0 33 30 43q8 2 16 2q35 0 46 -37q4 -12 4 -25q0 -11 -1 -18z" />
    <glyph glyph-name="si_Da.reph" horiz-adv-x="442" 
d="M100 649q1 -64 34 -97q-34 -39 -34 -94q1 -38 21 -70q-79 -48 -96 -135q-3 -18 -3 -36q0 -97 73 -162q35 -30 77 -44q-18 -35 -18 -69q0 -70 58 -113q42 -31 97 -31q87 1 151 95l-77 52q-31 -41 -74 -42q-37 0 -46 37q-2 9 -2 17q1 27 17 47q83 16 134 89l-86 62
q-33 -38 -87 -39q-58 0 -89 47q-16 25 -16 54q0 55 49 85q26 16 56 16h129q19 62 19 112q0 37 -11 68q67 38 67 130t-74 139q-46 30 -106 30q-100 0 -143 -74q-20 -34 -20 -74zM320 627q0 48 -44 72q-22 11 -46 12q14 3 27 3q69 0 88 -52q5 -15 5 -31q-1 -45 -21 -65
q-8 6 -21 13q12 22 12 48zM182 627q0 23 21 29q5 1 8 1q22 0 28 -22q1 -4 1 -8q0 -22 -21 -28q-4 -1 -8 -1q-22 0 -28 21q-1 4 -1 8zM288 418q-28 3 -49 3q-18 0 -34 -3q-12 14 -12 35q0 33 30 43q8 2 16 2q35 0 46 -37q4 -12 4 -25q0 -11 -1 -18z" />
    <glyph glyph-name="si_Da.touch" horiz-adv-x="425" 
d="M22 217q0 -97 73 -162q35 -30 77 -44q-18 -35 -18 -69q0 -70 58 -113q42 -31 97 -31q87 1 151 95l-77 52q-31 -41 -74 -42q-37 0 -46 37q-2 9 -2 17q1 27 17 47q83 16 134 89l-86 62q-33 -38 -87 -39q-58 0 -89 47q-16 25 -16 54q0 55 49 85q26 16 56 16h129
q19 62 19 112q0 102 -72 145q-35 21 -76 21q-84 0 -121 -66q-18 -33 -18 -72q1 -38 21 -70q-79 -48 -96 -135q-3 -18 -3 -36zM288 418q-28 3 -49 3q-18 0 -34 -3q-12 14 -12 35q0 33 30 43q8 2 16 2q35 0 46 -37q4 -12 4 -25q0 -11 -1 -18z" />
    <glyph glyph-name="si_Dd.halant" horiz-adv-x="583" 
d="M250 691q-24 0 -50 -3q-21 13 -22 33q2 40 100 40q130 -1 131 -60q-1 -24 -15 -38q-61 28 -144 28zM63 744q1 -50 40 -87q-27 -15 -51 -37l63 -82q39 35 103 42q9 1 16 1q133 0 180 -102q32 -68 32 -186q-3 -174 -57 -178q-57 3 -58 135h-96q0 -120 -46 -134
q-6 -1 -11 -1q-43 1 -43 78q0 72 32 101q13 12 28 12h150q7 33 7 60q0 102 -72 145q-35 21 -76 21q-78 0 -109 -60q-15 -29 -15 -63q0 -7 2 -18h-60v-85h31q-25 -47 -25 -113q0 -144 85 -182q27 -11 59 -11q69 0 101 62q4 8 7 17q21 -64 83 -76q13 -3 26 -3q148 0 168 187
q4 39 4 106q-1 207 -81 305q50 40 51 103q0 79 -78 127q-70 43 -175 43q-165 0 -205 -83q-10 -21 -10 -44zM170 405q2 38 34 39q40 0 50 -41q2 -7 2 -13h-84q-2 10 -2 15z" />
    <glyph glyph-name="si_DdI" horiz-adv-x="583" 
d="M267 675q-4 0 -33 -1q-28 -1 -32 -1q-32 0 -39 25q-1 5 -1 9q2 49 120 49q107 0 118 -47q1 -4 1 -8q-1 -30 -29 -40q-47 14 -105 14zM47 710q0 -94 78 -135q32 -17 63 -17q19 0 51 1q20 1 28 1q121 0 158 -105q21 -60 21 -162q-3 -174 -57 -178q-57 3 -58 135h-96
q0 -120 -46 -134q-6 -1 -11 -1q-43 1 -43 78q0 72 32 101q13 12 28 12h150q7 33 7 60q0 102 -72 145q-35 21 -76 21q-78 0 -109 -60q-15 -29 -15 -63q0 -7 2 -18h-60v-85h31q-25 -47 -25 -113q0 -144 85 -182q27 -11 59 -11q69 0 101 62q4 8 7 17q21 -64 83 -76q13 -3 26 -3
q148 0 168 187q4 39 4 106q-1 219 -93 311q47 40 48 101q0 78 -74 125q-64 41 -160 41q-141 0 -204 -75q-31 -39 -31 -86zM170 405q2 38 34 39q40 0 50 -41q2 -7 2 -13h-84q-2 10 -2 15z" />
    <glyph glyph-name="si_DdIi" horiz-adv-x="583" 
d="M347 717q0 28 26 37q7 3 14 3q28 0 37 -26q3 -7 3 -14q0 -29 -26 -39q-7 -2 -14 -2q-27 0 -37 25q-3 8 -3 16zM256 717q0 -24 7 -42q-8 0 -40 -1q-18 -1 -21 -1q-32 0 -39 25q-1 5 -1 9q0 47 91 55q6 1 11 1q-8 -25 -8 -46zM47 710q0 -94 78 -135q32 -17 63 -17
q19 0 51 1q20 1 28 1q121 0 158 -105q21 -60 21 -162q-3 -174 -57 -178q-57 3 -58 135h-96q0 -120 -46 -134q-6 -1 -11 -1q-43 1 -43 78q0 72 32 101q13 12 28 12h150q7 33 7 60q0 102 -72 145q-35 21 -76 21q-78 0 -109 -60q-15 -29 -15 -63q0 -7 2 -18h-60v-85h31
q-25 -47 -25 -113q0 -144 85 -182q27 -11 59 -11q69 0 101 62q4 8 7 17q21 -64 83 -76q13 -3 26 -3q148 0 168 187q4 39 4 106q-1 226 -100 318q46 33 54 88v1v3v3q1 2 1 3v2v6q0 134 -178 151q-27 3 -56 3q-141 0 -204 -75q-31 -39 -31 -86zM170 405q2 38 34 39
q40 0 50 -41q2 -7 2 -13h-84q-2 10 -2 15z" />
    <glyph glyph-name="si_DdR.halant" horiz-adv-x="583" 
d="M250 691q-24 0 -50 -3q-21 13 -22 33q2 40 100 40q130 -1 131 -60q-1 -24 -15 -38q-61 28 -144 28zM63 744q1 -50 40 -87q-27 -15 -51 -37l63 -82q39 35 103 42q9 1 16 1q133 0 180 -102q32 -68 32 -186q-3 -174 -57 -178q-57 3 -58 135h-96q0 -120 -46 -134
q-6 -1 -11 -1q-43 1 -43 78q0 72 32 101q13 12 28 12h150q7 33 7 60q0 102 -72 145q-35 21 -76 21q-78 0 -109 -60q-15 -29 -15 -63q0 -7 2 -18h-60v-85h31q-25 -47 -25 -113q0 -144 85 -182q27 -11 59 -11q69 0 101 62q4 8 7 17q21 -64 83 -76q13 -3 26 -3q14 0 21 1
q27 -26 27 -70q0 -80 -88 -102q-29 -7 -62 -7q-105 0 -139 57q-11 19 -11 42h-110q0 -131 124 -181q60 -24 136 -24q151 0 219 82q41 50 41 123q-1 79 -41 126q53 59 55 218v28q-1 207 -81 305q50 40 51 103q0 79 -78 127q-70 43 -175 43q-165 0 -205 -83q-10 -21 -10 -44z
M170 405q2 38 34 39q40 0 50 -41q2 -7 2 -13h-84q-2 10 -2 15z" />
    <glyph glyph-name="si_DdRI" horiz-adv-x="583" 
d="M267 675q-4 0 -33 -1q-28 -1 -32 -1q-32 0 -39 25q-1 5 -1 9q2 49 120 49q107 0 118 -47q1 -4 1 -8q-1 -30 -29 -40q-47 14 -105 14zM47 710q0 -94 78 -135q32 -17 63 -17q19 0 51 1q20 1 28 1q121 0 158 -105q21 -60 21 -162q-3 -174 -57 -178q-57 3 -58 135h-96
q0 -120 -46 -134q-6 -1 -11 -1q-43 1 -43 78q0 72 32 101q13 12 28 12h150q7 33 7 60q0 102 -72 145q-35 21 -76 21q-78 0 -109 -60q-15 -29 -15 -63q0 -7 2 -18h-60v-85h31q-25 -47 -25 -113q0 -144 85 -182q27 -11 59 -11q69 0 101 62q4 8 7 17q21 -64 83 -76q13 -3 26 -3
q14 0 21 1q27 -26 27 -70q0 -80 -88 -102q-29 -7 -62 -7q-105 0 -139 57q-11 19 -11 42h-110q0 -131 124 -181q60 -24 136 -24q151 0 219 82q41 50 41 123q-1 79 -41 126q53 59 55 218v28q-1 219 -93 311q47 40 48 101q0 78 -74 125q-64 41 -160 41q-141 0 -204 -75
q-31 -39 -31 -86zM170 405q2 38 34 39q40 0 50 -41q2 -7 2 -13h-84q-2 10 -2 15z" />
    <glyph glyph-name="si_DdRIi" horiz-adv-x="583" 
d="M347 717q0 28 26 37q7 3 14 3q28 0 37 -26q3 -7 3 -14q0 -29 -26 -39q-7 -2 -14 -2q-27 0 -37 25q-3 8 -3 16zM256 717q0 -24 7 -42q-8 0 -40 -1q-18 -1 -21 -1q-32 0 -39 25q-1 5 -1 9q0 47 91 55q6 1 11 1q-8 -25 -8 -46zM47 710q0 -94 78 -135q32 -17 63 -17
q19 0 51 1q20 1 28 1q121 0 158 -105q21 -60 21 -162q-3 -174 -57 -178q-57 3 -58 135h-96q0 -120 -46 -134q-6 -1 -11 -1q-43 1 -43 78q0 72 32 101q13 12 28 12h150q7 33 7 60q0 102 -72 145q-35 21 -76 21q-78 0 -109 -60q-15 -29 -15 -63q0 -7 2 -18h-60v-85h31
q-25 -47 -25 -113q0 -144 85 -182q27 -11 59 -11q69 0 101 62q4 8 7 17q21 -64 83 -76q13 -3 26 -3q14 0 21 1q27 -26 27 -70q0 -80 -88 -102q-29 -7 -62 -7q-105 0 -139 57q-11 19 -11 42h-110q0 -131 124 -181q60 -24 136 -24q151 0 219 82q41 50 41 123q-1 79 -41 126
q53 59 55 218v28q-1 226 -100 318q46 33 54 88v1v3v3q1 2 1 3v2v6q0 134 -178 151q-27 3 -56 3q-141 0 -204 -75q-31 -39 -31 -86zM170 405q2 38 34 39q40 0 50 -41q2 -7 2 -13h-84q-2 10 -2 15z" />
    <glyph glyph-name="si_DdRa" horiz-adv-x="583" 
d="M27 -79q0 -131 124 -181q60 -24 136 -24q151 0 219 82q41 50 41 123q-1 79 -41 126q53 59 55 218v28q0 304 -114 403q-69 59 -182 59q-100 0 -167 -67q-32 -33 -48 -75l109 -36q19 47 79 60q14 3 27 3q116 0 155 -119q26 -80 26 -228q-3 -174 -57 -178q-57 3 -58 135h-96
q0 -120 -46 -134q-6 -1 -11 -1q-43 1 -43 78q0 72 32 101q13 12 28 12h150q7 33 7 60q0 102 -72 145q-35 21 -76 21q-78 0 -109 -60q-15 -29 -15 -63q0 -7 2 -18h-60v-85h31q-25 -47 -25 -113q0 -144 85 -182q27 -11 59 -11q69 0 101 62q4 8 7 17q21 -64 83 -76q13 -3 26 -3
q14 0 21 1q27 -26 27 -70q0 -80 -88 -102q-29 -7 -62 -7q-105 0 -139 57q-11 19 -11 42h-110zM170 405q2 38 34 39q40 0 50 -41q2 -7 2 -13h-84q-2 10 -2 15z" />
    <glyph glyph-name="si_DdU" horiz-adv-x="583" 
d="M63 -104q5 -99 103 -101h366v293q29 65 29 205q0 304 -114 403q-69 59 -182 59q-100 0 -167 -67q-32 -33 -48 -75l109 -36q19 47 79 60q14 3 27 3q116 0 155 -119q26 -80 26 -228q-3 -174 -57 -178q-57 3 -58 135h-96q0 -120 -46 -134q-6 -1 -11 -1q-43 1 -43 78
q0 72 32 101q13 12 28 12h150q7 33 7 60q0 102 -72 145q-35 21 -76 21q-78 0 -109 -60q-15 -29 -15 -63q0 -7 2 -18h-60v-85h31q-25 -47 -25 -113q0 -144 85 -182q27 -11 59 -11q69 0 101 62q4 8 7 17q21 -64 83 -76q13 -3 26 -3q19 0 36 3v-101h-225q-26 2 -27 23
q0 14 2 22l-105 12q-7 -34 -7 -63zM170 405q2 38 34 39q40 0 50 -41q2 -7 2 -13h-84q-2 10 -2 15z" />
    <glyph glyph-name="si_DdUu" horiz-adv-x="583" 
d="M63 -104q5 -99 103 -101q27 0 102 28q54 19 81 19q51 -1 76 -47h107v293q29 65 29 205q0 304 -114 403q-69 59 -182 59q-100 0 -167 -67q-32 -33 -48 -75l109 -36q19 47 79 60q14 3 27 3q116 0 155 -119q26 -80 26 -228q-3 -174 -57 -178q-57 3 -58 135h-96
q0 -120 -46 -134q-6 -1 -11 -1q-43 1 -43 78q0 72 32 101q13 12 28 12h150q7 33 7 60q0 102 -72 145q-35 21 -76 21q-78 0 -109 -60q-15 -29 -15 -63q0 -7 2 -18h-60v-85h31q-25 -47 -25 -113q0 -144 85 -182q27 -11 59 -11q69 0 101 62q4 8 7 17q21 -64 83 -76q13 -3 26 -3
q19 0 36 3v-77q-26 21 -61 21q-50 0 -121 -29q-35 -14 -51 -14q-19 2 -20 22q0 11 1 17l-103 15q-7 -33 -7 -62zM170 405q2 38 34 39q40 0 50 -41q2 -7 2 -13h-84q-2 10 -2 15z" />
    <glyph glyph-name="si_Dda" unicode="&#xda9;" horiz-adv-x="583" 
d="M28 193q0 -144 85 -182q27 -11 59 -11q69 0 101 62q4 8 7 17q21 -64 83 -76q13 -3 26 -3q148 0 168 187q4 39 4 106q0 304 -114 403q-69 59 -182 59q-100 0 -167 -67q-32 -33 -48 -75l109 -36q19 47 79 60q14 3 27 3q116 0 155 -119q26 -80 26 -228q-3 -174 -57 -178
q-57 3 -58 135h-96q0 -120 -46 -134q-6 -1 -11 -1q-43 1 -43 78q0 72 32 101q13 12 28 12h150q7 33 7 60q0 102 -72 145q-35 21 -76 21q-78 0 -109 -60q-15 -29 -15 -63q0 -7 2 -18h-60v-85h31q-25 -47 -25 -113zM170 405q2 38 34 39q40 0 50 -41q2 -7 2 -13h-84
q-2 10 -2 15z" />
    <glyph glyph-name="si_Dda.reph" horiz-adv-x="583" 
d="M199 685q0 23 21 29q5 1 8 1q22 0 28 -22q1 -4 1 -8q0 -22 -21 -28q-4 -1 -8 -1q-22 0 -28 21q-1 4 -1 8zM51 662l59 -74q5 4 13 11q15 12 23 17q11 -13 30 -24q25 -13 52 -13q59 0 91 48q18 27 18 58q0 48 -44 72q-22 11 -46 12q12 3 27 3q65 0 86 -56q7 -18 7 -40
q-1 -56 -43 -82l50 -64q17 9 33 23q39 -82 39 -260q-3 -174 -57 -178q-57 3 -58 135h-96q0 -120 -46 -134q-6 -1 -11 -1q-43 1 -43 78q0 72 32 101q13 12 28 12h150q7 33 7 60q0 102 -72 145q-35 21 -76 21q-78 0 -109 -60q-15 -29 -15 -63q0 -7 2 -18h-60v-85h31
q-25 -47 -25 -113q0 -144 85 -182q27 -11 59 -11q69 0 101 62q4 8 7 17q21 -64 83 -76q13 -3 26 -3q148 0 168 187q4 39 4 106q0 270 -85 366q-8 9 -16 16q-1 100 -78 147q-45 27 -102 27q-104 0 -146 -74q-15 -29 -17 -62q-30 -17 -66 -51zM170 405q2 38 34 39q40 0 50 -41
q2 -7 2 -13h-84q-2 10 -2 15z" />
    <glyph glyph-name="si_Dda.touch" horiz-adv-x="583" 
d="M28 193q0 -144 85 -182q27 -11 59 -11q69 0 101 62q4 8 7 17q21 -64 83 -76q13 -3 26 -3q148 0 168 187q4 39 4 106q0 304 -114 403q-69 59 -182 59q-100 0 -167 -67q-32 -33 -48 -75l109 -36q19 47 79 60q14 3 27 3q116 0 155 -119q26 -80 26 -228q-3 -174 -57 -178
q-57 3 -58 135h-96q0 -120 -46 -134q-6 -1 -11 -1q-43 1 -43 78q0 72 32 101q13 12 28 12h150q7 33 7 60q0 102 -72 145q-35 21 -76 21q-78 0 -109 -60q-15 -29 -15 -63q0 -7 2 -18h-60v-85h31q-25 -47 -25 -113zM170 405q2 38 34 39q40 0 50 -41q2 -7 2 -13h-84
q-2 10 -2 15z" />
    <glyph glyph-name="si_DdhI" horiz-adv-x="624" 
d="M394 750l-84 -31q5 -11 5 -21q0 -9 -23 -33q-14 -14 -21 -26q-26 16 -27 50q0 41 74 58q33 8 72 8q100 0 137 -41q14 -15 14 -33q-1 -42 -40 -56q-42 83 -107 125zM133 689q0 -70 61 -112q30 -20 69 -28q23 -55 91 -77q30 -10 62 -10q12 0 19 1q18 -86 18 -170
q0 -163 -53 -177q-6 -1 -11 -1q-57 3 -58 135h-96q0 -120 -46 -134q-6 -1 -11 -1q-43 1 -43 78q0 72 32 101q13 12 28 12h150q7 33 7 60q0 102 -72 145q-35 21 -76 21q-78 0 -109 -60q-15 -29 -15 -63q0 -7 2 -18h-60v-85h31q-25 -47 -25 -113q0 -144 85 -182q27 -11 59 -11
q69 0 101 62q4 8 7 17q21 -64 83 -76q13 -3 26 -3q153 0 174 185q5 39 5 108q0 143 -34 251q79 18 109 84q11 26 11 53q0 101 -106 152q-69 33 -158 33q-128 0 -202 -62q-54 -47 -55 -115zM404 554q-44 7 -49 44q2 19 17 32q26 -27 38 -76h-6zM170 405q2 38 34 39
q40 0 50 -41q2 -7 2 -13h-84q-2 10 -2 15z" />
    <glyph glyph-name="si_DdhIi" horiz-adv-x="626" 
d="M496 616q0 28 26 37q7 3 14 3q27 0 37 -26q2 -7 2 -14q0 -29 -25 -39q-7 -2 -14 -2q-27 0 -37 25q-3 8 -3 16zM244 689q0 41 73 58q33 8 73 8q82 0 131 -31h-2q-40 -1 -67 -26q-29 33 -58 52l-84 -31q5 -11 5 -21t-22 -33q-15 -15 -22 -26q-26 16 -27 50zM133 689
q0 -70 61 -112q30 -20 69 -28q23 -55 91 -77q30 -10 62 -10q13 0 19 1q18 -86 18 -170q0 -163 -53 -177q-6 -1 -11 -1q-57 3 -58 135h-96q0 -120 -46 -134q-6 -1 -11 -1q-43 1 -43 78q0 72 32 101q13 12 28 12h150q7 33 7 60q0 102 -72 145q-35 21 -76 21q-76 0 -108 -60
q-15 -28 -15 -63q0 -12 1 -18h-60v-85h31q-25 -47 -25 -113q0 -137 78 -178q29 -15 66 -15q68 0 100 59q6 10 9 20q20 -62 81 -76q13 -3 27 -3q153 0 174 185q5 39 5 108q0 108 -25 209q70 8 99 72q16 35 16 82q0 107 -101 167q-73 43 -167 43q-128 0 -202 -62
q-54 -47 -55 -115zM404 554q-44 7 -49 44q2 19 17 32q25 -26 39 -76h-7zM170 405q2 38 34 39q40 0 50 -41q2 -7 2 -13h-84q-2 10 -2 15z" />
    <glyph glyph-name="si_DdhU" horiz-adv-x="583" 
d="M63 -104q5 -99 103 -101h366v287q36 68 36 211q0 209 -85 369q-58 108 -135 149l-55 -66q15 -14 15 -26q0 -10 -23 -33q-38 -41 -39 -85q0 -60 59 -104q49 -37 111 -37q12 0 17 1q20 -95 20 -168q0 -142 -44 -172q-10 -6 -20 -6q-57 3 -58 135h-96q0 -120 -46 -134
q-6 -1 -11 -1q-43 1 -43 78q0 72 32 101q13 12 28 12h150q7 33 7 60q0 102 -72 145q-35 21 -76 21q-78 0 -109 -60q-15 -29 -15 -63q0 -7 2 -18h-60v-85h31q-25 -47 -25 -113q0 -144 85 -182q27 -11 59 -11q69 0 101 62q4 8 7 17q21 -64 83 -76q13 -3 26 -3q19 0 36 3v-101
h-225q-26 2 -27 23q0 14 2 22l-105 12q-7 -34 -7 -63zM401 558q-39 0 -50 34q-2 7 -2 13q1 25 24 37q27 -31 37 -83q-2 0 -5 -1h-4zM170 405q2 38 34 39q40 0 50 -41q2 -7 2 -13h-84q-2 10 -2 15z" />
    <glyph glyph-name="si_DdhUu" horiz-adv-x="583" 
d="M63 -104q5 -99 103 -101q27 0 102 28q54 19 81 19q51 -1 76 -47h107v287q36 68 36 211q0 209 -85 369q-58 108 -135 149l-55 -66q15 -14 15 -26q0 -10 -23 -33q-38 -41 -39 -85q0 -60 59 -104q49 -37 111 -37q12 0 17 1q20 -95 20 -168q0 -142 -44 -172q-10 -6 -20 -6
q-57 3 -58 135h-96q0 -120 -46 -134q-6 -1 -11 -1q-43 1 -43 78q0 72 32 101q13 12 28 12h150q7 33 7 60q0 102 -72 145q-35 21 -76 21q-78 0 -109 -60q-15 -29 -15 -63q0 -7 2 -18h-60v-85h31q-25 -47 -25 -113q0 -144 85 -182q27 -11 59 -11q69 0 101 62q4 8 7 17
q21 -64 83 -76q13 -3 26 -3q19 0 36 3v-77q-26 21 -61 21q-50 0 -121 -29q-35 -14 -51 -14q-19 2 -20 22q0 11 1 17l-103 15q-7 -33 -7 -62zM401 558q-39 0 -50 34q-2 7 -2 13q1 25 24 37q27 -31 37 -83q-2 0 -5 -1h-4zM170 405q2 38 34 39q40 0 50 -41q2 -7 2 -13h-84
q-2 10 -2 15z" />
    <glyph glyph-name="si_Ddha" unicode="&#xdaa;" horiz-adv-x="554" 
d="M372 558q-39 0 -50 34q-2 7 -2 13q1 25 24 37q26 -30 38 -82q-8 -2 -10 -2zM217 601q0 -60 59 -104q49 -37 111 -37q12 0 18 1q19 -99 19 -168q0 -142 -44 -172q-10 -6 -20 -6q-57 3 -58 135h-96q0 -120 -46 -134q-6 -1 -11 -1q-43 1 -43 78q0 72 32 101q13 12 28 12h150
q7 33 7 60q0 102 -72 145q-35 21 -76 21q-78 0 -109 -60q-15 -29 -15 -63q0 -7 2 -18h-60v-85h31q-25 -47 -25 -113q0 -137 78 -178q29 -15 66 -15q70 0 102 63q4 8 7 16q19 -62 79 -76q14 -3 29 -3q163 0 177 226q2 29 2 67q0 209 -85 369q-58 108 -135 149l-55 -66
q15 -14 15 -26q0 -10 -23 -33q-38 -41 -39 -85zM141 405q2 38 34 39q40 0 50 -41q2 -7 2 -13h-84q-2 10 -2 15z" />
    <glyph glyph-name="si_Ddha.touch" horiz-adv-x="554" 
d="M372 558q-39 0 -50 34q-2 7 -2 13q1 25 24 37q26 -30 38 -82q-8 -2 -10 -2zM217 601q0 -60 59 -104q49 -37 111 -37q12 0 18 1q19 -99 19 -168q0 -142 -44 -172q-10 -6 -20 -6q-57 3 -58 135h-96q0 -120 -46 -134q-6 -1 -11 -1q-43 1 -43 78q0 72 32 101q13 12 28 12h150
q7 33 7 60q0 102 -72 145q-35 21 -76 21q-78 0 -109 -60q-15 -29 -15 -63q0 -7 2 -18h-60v-85h31q-25 -47 -25 -113q0 -137 78 -178q29 -15 66 -15q70 0 102 63q4 8 7 16q19 -62 79 -76q14 -3 29 -3q163 0 177 226q2 29 2 67q0 209 -85 369q-58 108 -135 149l-55 -66
q15 -14 15 -26q0 -10 -23 -33q-38 -41 -39 -85zM141 405q2 38 34 39q40 0 50 -41q2 -7 2 -13h-84q-2 10 -2 15z" />
    <glyph glyph-name="si_Dh.halant" 
d="M248 691q-24 0 -50 -3q-21 13 -22 33q2 40 100 40q130 -1 131 -60q-1 -24 -15 -38q-61 28 -144 28zM61 744q1 -50 40 -87q-27 -15 -51 -37l63 -82q39 35 102 42q9 1 17 1q130 0 178 -96q34 -70 34 -192q-2 -175 -56 -178q-54 0 -59 116v19h-96q0 -120 -46 -134
q-6 -1 -11 -1q-41 9 -43 115q0 53 8 76q16 50 56 51q18 -1 38 -12l38 100q-40 27 -85 27q-86 0 -133 -82q-12 -21 -19 -45q-14 -44 -14 -114q0 -150 70 -205q34 -26 79 -26q66 0 99 58q5 11 9 21q21 -64 83 -76q13 -3 26 -3q147 0 167 187q4 39 4 106q-1 207 -81 305
q50 40 51 103q0 79 -78 127q-70 43 -175 43q-165 0 -205 -83q-10 -21 -10 -44z" />
    <glyph glyph-name="si_DhI" 
d="M265 675q-4 0 -34 -1q-26 -1 -30 -1q-32 0 -39 25q-1 5 -1 9q2 49 119 49q107 0 118 -47q1 -4 1 -8q-1 -30 -29 -40q-47 14 -105 14zM46 710q0 -94 77 -135q33 -17 63 -17q20 0 51 1q20 1 28 1q121 0 158 -105q21 -60 21 -162q-1 -177 -56 -178q-54 0 -59 116v19h-96
q0 -120 -46 -134q-6 -1 -11 -1q-41 9 -43 115q0 53 8 76q16 50 56 51q18 -1 38 -12l38 100q-40 27 -85 27q-86 0 -133 -82q-12 -21 -19 -45q-14 -44 -14 -114q0 -150 70 -205q34 -26 79 -26q66 0 99 58q5 11 9 21q21 -64 83 -76q13 -3 26 -3q147 0 167 187q4 39 4 106
q-1 219 -93 311q47 40 48 101q0 79 -75 126q-64 40 -159 40q-142 0 -203 -76q-31 -38 -31 -85z" />
    <glyph glyph-name="si_DhIi" 
d="M346 717q0 28 25 37q7 3 14 3q28 0 37 -26q3 -7 3 -14q0 -29 -26 -39q-7 -2 -14 -2q-28 0 -37 27q-2 7 -2 14zM254 717q0 -24 7 -42q-8 0 -41 -1q-16 -1 -19 -1q-32 0 -39 25q-1 5 -1 9q0 50 99 56h2q-8 -25 -8 -46zM46 710q0 -94 77 -135q33 -17 63 -17q20 0 51 1
q20 1 28 1q121 0 158 -105q21 -60 21 -162q-1 -177 -56 -178q-54 0 -59 116v19h-96q0 -120 -46 -134q-6 -1 -11 -1q-41 9 -43 115q0 53 8 76q16 50 56 51q18 -1 38 -12l38 100q-40 27 -85 27q-86 0 -133 -82q-12 -21 -19 -45q-14 -44 -14 -114q0 -150 70 -205q34 -26 79 -26
q66 0 99 58q5 11 9 21q21 -64 83 -76q13 -3 26 -3q147 0 167 187q4 39 4 106q-1 226 -100 318q46 33 54 88v1v3v3q1 2 1 3v2v6q0 134 -178 151q-27 3 -56 3q-142 0 -203 -76q-31 -38 -31 -85z" />
    <glyph glyph-name="si_DhR.halant" 
d="M248 691q-24 0 -50 -3q-21 13 -22 33q2 40 100 40q130 -1 131 -60q-1 -24 -15 -38q-61 28 -144 28zM61 744q1 -50 40 -87q-27 -15 -51 -37l63 -82q39 35 102 42q9 1 17 1q130 0 178 -96q34 -70 34 -192q-2 -175 -56 -178q-54 0 -59 116v19h-96q0 -120 -46 -134
q-6 -1 -11 -1q-41 9 -43 115q0 53 8 76q16 50 56 51q18 -1 38 -12l38 100q-40 27 -85 27q-86 0 -133 -82q-12 -21 -19 -45q-14 -44 -14 -114q0 -150 70 -205q34 -26 79 -26q66 0 99 58q5 11 9 21q21 -64 83 -76q13 -3 26 -3q14 0 21 1q26 -26 26 -70q0 -80 -88 -102
q-29 -7 -62 -7q-105 0 -139 57q-11 19 -11 42h-110q0 -131 124 -181q60 -24 136 -24q151 0 219 82q41 50 41 123q-1 79 -41 126q53 59 55 218v28q-1 207 -81 305q50 40 51 103q0 79 -78 127q-70 43 -175 43q-165 0 -205 -83q-10 -21 -10 -44z" />
    <glyph glyph-name="si_DhRI" 
d="M265 675q-4 0 -34 -1q-26 -1 -30 -1q-32 0 -39 25q-1 5 -1 9q2 49 119 49q107 0 118 -47q1 -4 1 -8q-1 -30 -29 -40q-47 14 -105 14zM46 710q0 -94 77 -135q33 -17 63 -17q20 0 51 1q20 1 28 1q121 0 158 -105q21 -60 21 -162q-1 -177 -56 -178q-54 0 -59 116v19h-96
q0 -120 -46 -134q-6 -1 -11 -1q-41 9 -43 115q0 53 8 76q16 50 56 51q18 -1 38 -12l38 100q-40 27 -85 27q-86 0 -133 -82q-12 -21 -19 -45q-14 -44 -14 -114q0 -150 70 -205q34 -26 79 -26q66 0 99 58q5 11 9 21q21 -64 83 -76q13 -3 26 -3q14 0 21 1q26 -26 26 -70
q0 -80 -88 -102q-29 -7 -62 -7q-105 0 -139 57q-11 19 -11 42h-110q0 -131 124 -181q60 -24 136 -24q151 0 219 82q41 50 41 123q-1 79 -41 126q53 59 55 218v28q-1 219 -93 311q47 40 48 101q0 79 -75 126q-64 40 -159 40q-142 0 -203 -76q-31 -38 -31 -85z" />
    <glyph glyph-name="si_DhRIi" 
d="M346 717q0 28 25 37q7 3 14 3q28 0 37 -26q3 -7 3 -14q0 -29 -26 -39q-7 -2 -14 -2q-28 0 -37 27q-2 7 -2 14zM254 717q0 -24 7 -42q-8 0 -41 -1q-16 -1 -19 -1q-32 0 -39 25q-1 5 -1 9q0 50 99 56h2q-8 -25 -8 -46zM46 710q0 -94 77 -135q33 -17 63 -17q20 0 51 1
q20 1 28 1q121 0 158 -105q21 -60 21 -162q-1 -177 -56 -178q-54 0 -59 116v19h-96q0 -120 -46 -134q-6 -1 -11 -1q-41 9 -43 115q0 53 8 76q16 50 56 51q18 -1 38 -12l38 100q-40 27 -85 27q-86 0 -133 -82q-12 -21 -19 -45q-14 -44 -14 -114q0 -150 70 -205q34 -26 79 -26
q66 0 99 58q5 11 9 21q21 -64 83 -76q13 -3 26 -3q14 0 21 1q26 -26 26 -70q0 -80 -88 -102q-29 -7 -62 -7q-105 0 -139 57q-11 19 -11 42h-110q0 -131 124 -181q60 -24 136 -24q151 0 219 82q41 50 41 123q-1 79 -41 126q53 59 55 218v28q-1 226 -100 318q46 33 54 88v1v3
v3q1 2 1 3v2v6q0 134 -178 151q-27 3 -56 3q-142 0 -203 -76q-31 -38 -31 -85z" />
    <glyph glyph-name="si_DhRa" 
d="M25 -79q0 -131 124 -181q60 -24 136 -24q151 0 219 82q41 50 41 123q-1 79 -41 126q53 59 55 218v28q0 304 -114 403q-69 59 -182 59q-98 0 -165 -65q-33 -34 -50 -77l110 -36q19 48 79 60q13 3 26 3q116 0 155 -119q26 -80 26 -228q-2 -175 -56 -178q-54 0 -59 116v19
h-96q0 -120 -46 -134q-6 -1 -11 -1q-41 9 -43 115q0 53 8 76q16 50 56 51q18 -1 38 -12l38 100q-40 27 -85 27q-86 0 -133 -82q-12 -21 -19 -45q-14 -44 -14 -114q0 -150 70 -205q34 -26 79 -26q66 0 99 58q5 11 9 21q21 -64 83 -76q13 -3 26 -3q14 0 21 1q26 -26 26 -70
q0 -80 -88 -102q-29 -7 -62 -7q-105 0 -139 57q-11 19 -11 42h-110z" />
    <glyph glyph-name="si_DhU" 
d="M61 -104q2 -100 103 -101h366v292q29 66 29 206q0 304 -114 403q-69 59 -182 59q-98 0 -165 -65q-33 -34 -50 -77l110 -36q19 48 79 60q13 3 26 3q116 0 155 -119q26 -80 26 -228q-2 -175 -56 -178q-54 0 -59 116v19h-96q0 -120 -46 -134q-6 -1 -11 -1q-41 9 -43 115
q0 53 8 76q16 50 56 51q18 -1 38 -12l38 100q-40 27 -85 27q-86 0 -133 -82q-12 -21 -19 -45q-14 -44 -14 -114q0 -150 70 -205q34 -26 79 -26q66 0 99 58q5 11 9 21q21 -64 83 -76q13 -3 26 -3q19 0 35 3v-101h-225q-26 2 -27 23q0 7 2 22l-105 12q-7 -34 -7 -63z" />
    <glyph glyph-name="si_DhUu" 
d="M61 -104q2 -100 103 -101q28 0 103 28q53 19 80 19q51 -1 76 -47h107v292q29 66 29 206q0 304 -114 403q-69 59 -182 59q-98 0 -165 -65q-33 -34 -50 -77l110 -36q19 48 79 60q13 3 26 3q116 0 155 -119q26 -80 26 -228q-2 -175 -56 -178q-54 0 -59 116v19h-96
q0 -120 -46 -134q-6 -1 -11 -1q-41 9 -43 115q0 53 8 76q16 50 56 51q18 -1 38 -12l38 100q-40 27 -85 27q-86 0 -133 -82q-12 -21 -19 -45q-14 -44 -14 -114q0 -150 70 -205q34 -26 79 -26q66 0 99 58q5 11 9 21q21 -64 83 -76q13 -3 26 -3q19 0 35 3v-77q-26 21 -60 21
q-51 0 -122 -29q-35 -14 -51 -14q-19 2 -20 22q0 6 2 17l-104 15q-7 -33 -7 -62z" />
    <glyph glyph-name="si_Dha" unicode="&#xdb0;" 
d="M22 231q0 70 14 114q29 93 104 119q23 8 48 8q46 -1 85 -27l-38 -100q-21 12 -38 12q-39 -2 -56 -51q-8 -23 -8 -76q4 -109 43 -115q50 0 56 110q1 13 1 25h96q0 -124 51 -134q4 -1 8 -1q56 1 56 178q0 234 -70 305q-41 42 -111 42q-58 0 -91 -40q-9 -11 -14 -23l-110 36
q35 91 130 127q42 15 85 15q188 0 254 -166q42 -107 42 -296q0 -141 -28 -203q-41 -89 -143 -90q-72 0 -103 63l-6 16q-20 -60 -78 -75q-15 -4 -30 -4q-108 0 -139 134q-10 45 -10 97z" />
    <glyph glyph-name="si_Dha.reph" 
d="M197 685q0 23 21 29q5 1 8 1q22 0 28 -22q1 -4 1 -8q0 -22 -21 -28q-4 -1 -8 -1q-22 0 -28 21q-1 4 -1 8zM49 662l59 -74q4 3 12 10q16 13 24 17q11 -12 30 -23q25 -13 52 -13q60 0 92 48q18 27 18 58q0 47 -44 72q-22 11 -47 12q13 3 27 3q67 0 87 -57q6 -18 6 -39
q-1 -56 -43 -82l50 -64q18 9 33 24q39 -82 39 -261q-2 -175 -56 -178q-54 0 -59 116v19h-96q0 -120 -46 -134q-6 -1 -11 -1q-41 9 -43 115q0 53 8 76q18 50 56 51q18 -1 38 -12l38 100q-40 27 -85 27q-86 0 -133 -82q-12 -21 -19 -45q-14 -44 -14 -114q0 -150 70 -205
q34 -26 79 -26q66 0 99 58q5 11 9 21q21 -64 83 -76q13 -3 26 -3q147 0 167 187q4 39 4 106q0 262 -78 359q-11 13 -23 24q-2 100 -80 147q-44 26 -100 26q-104 0 -146 -75q-15 -29 -17 -62q-30 -16 -66 -50z" />
    <glyph glyph-name="si_Dha.touch" 
d="M22 231q0 70 14 114q29 93 104 119q23 8 48 8q46 -1 85 -27l-38 -100q-21 12 -38 12q-39 -2 -56 -51q-8 -23 -8 -76q4 -109 43 -115q50 0 56 110q1 13 1 25h96q0 -124 51 -134q4 -1 8 -1q56 1 56 178q0 234 -70 305q-41 42 -111 42q-58 0 -91 -40q-9 -11 -14 -23l-110 36
q35 91 130 127q42 15 85 15q188 0 254 -166q42 -107 42 -296q0 -141 -28 -203q-41 -89 -143 -90q-72 0 -103 63l-6 16q-20 -60 -78 -75q-15 -4 -30 -4q-108 0 -139 134q-10 45 -10 97z" />
    <glyph glyph-name="si_DvocR" horiz-adv-x="739" 
d="M432 143q0 -68 37 -110q27 -30 65 -30q12 0 58 11q14 3 22 3q17 -1 30 -17l75 48q-38 52 -38 136q0 14 10 141q4 42 4 73q0 125 -78 149q-22 6 -50 6q-127 -2 -128 -151q0 -23 1 -35h93q-2 26 -2 34q1 53 36 54q31 -2 31 -54q0 -34 -9 -116q-20 8 -43 8q-66 0 -96 -60
q-18 -37 -18 -90zM566 95q-38 2 -39 56q1 44 36 45q6 0 15 -2q-1 -9 -1 -22q0 -40 10 -74q-3 0 -10 -1q-7 -2 -11 -2zM22 217q0 -97 73 -162q35 -30 77 -44q-18 -35 -18 -69q0 -70 58 -113q42 -31 97 -31q87 1 151 95l-77 52q-31 -41 -74 -42q-37 0 -46 37q-2 9 -2 17
q1 27 17 47q83 16 134 89l-86 62q-33 -38 -87 -39q-58 0 -89 47q-16 25 -16 54q0 55 49 85q26 16 56 16h129q19 62 19 112q0 102 -72 145q-35 21 -76 21q-84 0 -121 -66q-18 -33 -18 -72q1 -38 21 -70q-79 -48 -96 -135q-3 -18 -3 -36zM288 418q-28 3 -49 3q-18 0 -34 -3
q-12 14 -12 35q0 33 30 43q8 2 16 2q35 0 46 -37q4 -12 4 -25q0 -11 -1 -18z" />
    <glyph glyph-name="si_DvocRr" horiz-adv-x="1033" 
d="M726 143q0 -68 37 -110q27 -30 65 -30q12 0 58 11q14 3 22 3q17 -1 30 -17l75 48q-38 52 -38 136q0 14 10 141q4 42 4 73q0 125 -78 149q-21 6 -50 6q-127 -2 -128 -151q0 -23 1 -35h93q-2 26 -2 34q1 53 36 54q31 -2 31 -54q0 -34 -9 -116q-20 8 -43 8q-66 0 -96 -60
q-18 -37 -18 -90zM860 95q-38 2 -39 56q1 44 36 45q6 0 15 -2q-1 -9 -1 -22q0 -40 10 -74q-3 0 -10 -1q-7 -2 -11 -2zM432 143q0 -68 37 -110q27 -30 65 -30q12 0 58 11q14 3 22 3q17 -1 30 -17l75 48q-38 52 -38 136q0 14 10 141q4 42 4 73q0 125 -78 149q-22 6 -50 6
q-127 -2 -128 -151q0 -23 1 -35h93q-2 26 -2 34q1 53 36 54q31 -2 31 -54q0 -34 -9 -116q-20 8 -43 8q-66 0 -96 -60q-18 -37 -18 -90zM566 95q-38 2 -39 56q1 44 36 45q6 0 15 -2q-1 -9 -1 -22q0 -40 10 -74q-3 0 -10 -1q-7 -2 -11 -2zM22 217q0 -97 73 -162q35 -30 77 -44
q-18 -35 -18 -69q0 -70 58 -113q42 -31 97 -31q87 1 151 95l-77 52q-31 -41 -74 -42q-37 0 -46 37q-2 9 -2 17q1 27 17 47q83 16 134 89l-86 62q-33 -38 -87 -39q-58 0 -89 47q-16 25 -16 54q0 55 49 85q26 16 56 16h129q19 62 19 112q0 102 -72 145q-35 21 -76 21
q-84 0 -121 -66q-18 -33 -18 -72q1 -38 21 -70q-79 -48 -96 -135q-3 -18 -3 -36zM288 418q-28 3 -49 3q-18 0 -34 -3q-12 14 -12 35q0 33 30 43q8 2 16 2q35 0 46 -37q4 -12 4 -25q0 -11 -1 -18z" />
    <glyph glyph-name="si_E" unicode="&#xd91;" horiz-adv-x="542" 
d="M376 558q-38 0 -49 33q-2 8 -2 14q1 25 24 37q33 -31 46 -81q-11 -3 -19 -3zM222 601q0 -60 59 -104q49 -37 111 -37h23q13 -84 13 -116q0 -175 -100 -217q-28 -12 -63 -12q-98 0 -122 66q-6 16 -6 33q0 77 57 90q10 2 20 2h107q7 33 7 60q0 102 -72 145q-35 21 -76 21
q-78 0 -109 -60q-15 -29 -15 -63q0 -11 1 -16h-35v-87h37q-31 -40 -31 -105q0 -95 69 -151q63 -50 168 -50q172 0 240 153q35 79 35 186q0 169 -76 315q-60 115 -140 157l-55 -66q15 -14 15 -26q0 -10 -23 -33q-38 -41 -39 -85zM146 405q2 38 34 39q40 0 50 -41q2 -6 2 -12
l-84 1q-2 9 -2 13z" />
    <glyph glyph-name="si_Ee" unicode="&#xd92;" horiz-adv-x="542" 
d="M520 710q-6 0 -9 1v77h2q37 -3 38 -39q-2 -38 -31 -39zM424 866l7 -97q1 -31 2 -64v-42q-14 31 -31 59q-36 55 -78 89l-55 -66q15 -14 15 -26q0 -10 -23 -33q-38 -41 -39 -85q0 -60 59 -104q49 -37 111 -37h25q11 -59 11 -116q0 -175 -100 -217q-28 -12 -63 -12
q-98 0 -122 66q-6 16 -6 33q0 77 57 90q10 2 20 2h107q7 33 7 60q0 102 -72 145q-35 21 -76 21q-78 0 -109 -60q-15 -29 -15 -63q0 -11 1 -16h-35v-87h37q-31 -40 -31 -105q0 -95 69 -151q63 -50 168 -50q172 0 240 153q35 79 35 186q0 95 -26 186v105q5 -1 13 -1
q59 0 90 52q17 30 17 68q-1 117 -120 117h-90zM376 558q-38 0 -49 33q-2 8 -2 14q1 25 24 37q33 -31 46 -81q-11 -3 -19 -3zM146 405q2 38 34 39q40 0 50 -41q2 -6 2 -12l-84 1q-2 9 -2 13z" />
    <glyph glyph-name="si_F.halant" horiz-adv-x="609" 
d="M505 713h-6q-5 1 -7 1v76q3 1 6 1q37 -3 38 -39q-2 -38 -31 -39zM406 869v-275h-2q-70 0 -102 -63q-4 -8 -7 -16q-21 63 -81 76q-14 3 -27 3q-158 0 -165 -270v-29q0 -246 156 -286q33 -9 74 -9v115q-122 8 -123 180q1 183 58 184q62 -5 63 -134h91q3 130 63 134
q58 -1 58 -184q0 -120 -51 -158q-29 -22 -72 -22v-115q181 0 219 178q11 51 11 117q-1 198 -70 264v74q5 -1 13 -1q59 0 90 52q17 30 17 68q-1 117 -120 117h-93z" />
    <glyph glyph-name="si_FI" horiz-adv-x="590" 
d="M35 661q1 -66 44 -116q-57 -71 -57 -250q0 -246 156 -286q33 -9 74 -9v115q-122 8 -123 180q1 183 58 184q62 -5 63 -134h91q5 128 62 134q58 -1 58 -184q0 -120 -51 -158q-29 -22 -72 -22v-115q181 0 219 178q11 51 11 117q-1 180 -57 250q44 51 44 116q0 131 -124 181
q-60 24 -136 24q-151 0 -219 -82q-41 -50 -41 -123zM295 515q-21 63 -81 76q-14 3 -27 3t-19 -1q-22 28 -22 68q0 58 72 81q34 11 77 11q108 0 140 -56q9 -17 9 -36q-1 -41 -22 -68q-7 1 -19 1q-66 0 -99 -58q-5 -11 -9 -21z" />
    <glyph glyph-name="si_FIi" horiz-adv-x="590" 
d="M374 626q0 28 25 37q7 3 14 3q28 0 37 -26q3 -7 3 -14q0 -29 -26 -39q-7 -2 -14 -2q-28 0 -37 27q-2 7 -2 14zM282 626q1 -47 28 -81q-9 -13 -15 -30q-21 63 -81 76q-14 3 -27 3t-19 -1q-22 28 -22 68q0 54 62 81q38 17 87 17q87 0 119 -24q-11 3 -23 3q-57 0 -89 -44
q-20 -29 -20 -68zM35 661q1 -66 44 -116q-57 -71 -57 -250q0 -246 156 -286q33 -9 74 -9v115q-122 8 -123 180q1 183 58 184q62 -5 63 -134h91q5 128 62 134q58 -1 58 -184q0 -120 -51 -158q-29 -22 -72 -22v-115q181 0 219 178q11 51 11 117q-1 178 -55 248q42 50 42 118
q0 131 -124 181q-60 24 -136 24q-151 0 -219 -82q-41 -50 -41 -123z" />
    <glyph glyph-name="si_FR.halant" horiz-adv-x="609" 
d="M505 713h-6q-5 1 -7 1v76q3 1 6 1q37 -3 38 -39q-2 -38 -31 -39zM406 869v-275h-2q-70 0 -102 -63q-4 -8 -7 -16q-21 63 -81 76q-14 3 -27 3q-158 0 -165 -270v-29q0 -246 156 -286q33 -9 74 -9v115q-122 8 -123 180q1 183 58 184q62 -5 63 -134h91q3 130 63 134
q58 -1 58 -184q0 -120 -51 -158q-29 -22 -72 -22v-115q38 0 71 8q34 -33 35 -77q0 -80 -88 -102q-29 -7 -62 -7q-105 0 -139 57q-11 19 -11 42h-110q0 -131 124 -181q60 -24 136 -24q151 0 219 82q41 50 41 123q-1 94 -54 138q68 74 68 236q-1 198 -70 264v74q5 -1 13 -1
q59 0 90 52q17 30 17 68q-1 117 -120 117h-93z" />
    <glyph glyph-name="si_FRI" horiz-adv-x="590" 
d="M295 515q-21 63 -81 76q-14 3 -27 3t-19 -1q-22 28 -22 68q0 58 72 81q34 11 77 11q108 0 140 -56q9 -17 9 -36q-1 -41 -22 -68q-7 1 -19 1q-66 0 -99 -58q-5 -11 -9 -21zM35 661q1 -66 44 -116q-57 -71 -57 -250q0 -246 156 -286q33 -9 74 -9v115q-122 8 -123 180
q1 183 58 184q62 -5 63 -134h91q5 128 62 134q58 -1 58 -184q0 -120 -51 -158q-29 -22 -72 -22v-115q37 0 72 8q34 -33 35 -77q0 -80 -88 -102q-29 -7 -62 -7q-105 0 -139 57q-11 19 -11 42h-110q0 -131 124 -181q60 -24 136 -24q151 0 219 82q41 50 41 123q-1 93 -54 139
q67 71 67 235q-1 180 -57 250q44 51 44 116q0 131 -124 181q-60 24 -136 24q-151 0 -219 -82q-41 -50 -41 -123z" />
    <glyph glyph-name="si_FRIi" horiz-adv-x="590" 
d="M374 626q0 28 25 37q7 3 14 3q28 0 37 -26q3 -7 3 -14q0 -29 -26 -39q-7 -2 -14 -2q-28 0 -37 27q-2 7 -2 14zM282 626q1 -47 28 -81q-9 -13 -15 -30q-21 63 -81 76q-14 3 -27 3t-19 -1q-22 28 -22 68q0 54 62 81q38 17 87 17q87 0 119 -24q-11 3 -23 3q-57 0 -89 -44
q-20 -29 -20 -68zM35 661q1 -66 44 -116q-57 -71 -57 -250q0 -246 156 -286q33 -9 74 -9v115q-122 8 -123 180q1 183 58 184q62 -5 63 -134h91q5 128 62 134q58 -1 58 -184q0 -120 -51 -158q-29 -22 -72 -22v-115q37 0 72 8q34 -33 35 -77q0 -80 -88 -102q-29 -7 -62 -7
q-105 0 -139 57q-11 19 -11 42h-110q0 -131 124 -181q60 -24 136 -24q151 0 219 82q41 50 41 123q-1 93 -54 139q67 71 67 235q-1 178 -55 248q42 50 42 118q0 131 -124 181q-60 24 -136 24q-151 0 -219 -82q-41 -50 -41 -123z" />
    <glyph glyph-name="si_FRa" horiz-adv-x="590" 
d="M35 -79q0 -131 124 -181q60 -24 136 -24q151 0 219 82q41 50 41 123q-1 93 -54 139q67 71 67 235q0 251 -114 291q-23 8 -51 8q-66 0 -99 -58q-5 -11 -9 -21q-21 63 -81 76q-14 3 -27 3q-158 0 -165 -270v-29q0 -246 156 -286q33 -9 74 -9v115q-122 8 -123 180
q1 183 58 184q62 -5 63 -134h91q5 128 62 134q58 -1 58 -184q0 -120 -51 -158q-29 -22 -72 -22v-115q37 0 72 8q34 -33 35 -77q0 -80 -88 -102q-29 -7 -62 -7q-105 0 -139 57q-11 19 -11 42h-110z" />
    <glyph glyph-name="si_FU" horiz-adv-x="590" 
d="M61 -104q5 -99 103 -101h366v306q38 72 38 194q0 251 -114 291q-23 8 -51 8q-66 0 -99 -58q-5 -11 -9 -21q-21 63 -81 76q-14 3 -27 3q-158 0 -165 -270v-29q0 -246 156 -286q33 -9 74 -9v115q-122 8 -123 180q1 183 58 184q62 -5 63 -134h91q5 128 62 134q58 -1 58 -184
q0 -120 -51 -158q-29 -22 -72 -22v-115q48 0 85 12v-110h-225q-26 2 -27 23q0 7 2 22l-105 12q-7 -34 -7 -63z" />
    <glyph glyph-name="si_FUu" horiz-adv-x="590" 
d="M61 -104q5 -99 103 -101q28 0 103 28q53 19 80 19q51 -1 76 -47h107v306q38 72 38 194q0 251 -114 291q-23 8 -51 8q-66 0 -99 -58q-5 -11 -9 -21q-21 63 -81 76q-14 3 -27 3q-158 0 -165 -270v-29q0 -246 156 -286q33 -9 74 -9v115q-122 8 -123 180q1 183 58 184
q62 -5 63 -134h91q5 128 62 134q58 -1 58 -184q0 -120 -51 -158q-29 -22 -72 -22v-115q48 0 85 12v-86q-26 21 -61 21q-50 0 -121 -29q-35 -14 -51 -14q-19 2 -20 22q0 6 2 17l-104 15q-7 -33 -7 -62z" />
    <glyph glyph-name="si_Fa" unicode="&#xdc6;" horiz-adv-x="590" 
d="M22 295q0 251 114 291q23 8 51 8q69 0 101 -62q4 -8 7 -17q20 60 78 75q15 4 30 4q158 0 165 -270v-29q0 -246 -156 -286q-33 -9 -74 -9v115q122 8 123 180q-1 183 -58 184q-59 -10 -62 -134h-91q-3 130 -63 134q-58 -1 -58 -184q0 -120 51 -158q29 -22 72 -22v-115
q-181 0 -219 178q-11 51 -11 117z" />
    <glyph glyph-name="si_Fa.reph" horiz-adv-x="590" 
d="M120 655q0 -42 14 -70q-112 -42 -112 -290q0 -246 156 -286q33 -9 74 -9v115q-122 8 -123 180q1 183 58 184q62 -5 63 -134h91q5 128 62 134q58 -1 58 -184q0 -120 -51 -158q-29 -22 -72 -22v-115q181 0 219 178q11 51 11 117q-1 246 -110 289q11 27 11 59q0 102 -79 150
q-45 27 -104 27q-104 0 -147 -83q-19 -38 -19 -82zM295 515q-5 15 -12 26q46 27 52 82v10q0 49 -44 73q-21 11 -44 11q-10 0 -27 -2q24 20 60 20q63 0 82 -53q6 -17 6 -36q-1 -41 -17 -64q-41 -23 -56 -67zM197 623q0 23 21 29q5 1 8 1q22 0 28 -22q1 -4 1 -8q0 -22 -21 -28
q-4 -1 -8 -1q-22 0 -28 21q-1 4 -1 8z" />
    <glyph glyph-name="si_Fa.touch" horiz-adv-x="590" 
d="M22 295q0 251 114 291q23 8 51 8q69 0 101 -62q4 -8 7 -17q20 60 78 75q15 4 30 4q158 0 165 -270v-29q0 -246 -156 -286q-33 -9 -74 -9v115q122 8 123 180q-1 183 -58 184q-59 -10 -62 -134h-91q-3 130 -63 134q-58 -1 -58 -184q0 -120 51 -158q29 -22 72 -22v-115
q-181 0 -219 178q-11 51 -11 117z" />
    <glyph glyph-name="si_G.halant" horiz-adv-x="665" 
d="M551 710h-6q-5 1 -7 1v77h6q37 -3 38 -39q-2 -38 -31 -39zM452 866v-283q-8 1 -21 1q-70 -1 -115 -47q-40 46 -106 47q-187 -2 -188 -292q1 -291 205 -292q75 1 121 40q39 -40 99 -40q168 0 187 232q2 29 2 60q-1 196 -91 260v78q5 -1 13 -1q59 0 90 52q17 30 17 68
q-1 117 -120 117h-93zM216 300l47 -80q20 11 22 13q21 -15 21 -49q0 -67 -62 -76q-8 -1 -17 -1q-95 2 -96 185q1 185 79 186q40 -1 59 -43q-1 -2 -3 -24v-19q0 -48 -27 -74q-10 -10 -23 -18zM447 106q-29 1 -46 23q7 27 7 60q0 60 -39 99q-8 7 -15 12q14 27 14 62v27
q4 72 39 84q11 4 24 4q95 -2 96 -185q-1 -185 -80 -186z" />
    <glyph glyph-name="si_GDha" horiz-adv-x="996" 
d="M437 231q0 -150 70 -205q34 -26 79 -26q66 0 99 58q5 11 9 21q21 -64 83 -76q13 -3 26 -3q147 0 167 187q4 39 4 106q0 304 -114 403q-69 59 -182 59q-98 0 -165 -65q-33 -33 -50 -77l110 -36q19 48 79 60q13 3 26 3q116 0 155 -119q26 -80 26 -228q-2 -175 -56 -178
q-54 0 -59 116v19h-96q0 -120 -46 -134q-6 -1 -11 -1q-41 9 -43 115q0 53 8 76q16 50 56 51q18 -1 38 -12l38 100q-40 27 -85 27h-2q-38 98 -136 111q-12 1 -23 1q-75 -1 -124 -49q-41 48 -108 49q-175 0 -187 -255q-1 -18 -1 -37q1 -291 205 -292q121 0 165 100
q17 40 17 89q0 62 -39 100q-8 7 -15 11q13 28 13 62q0 19 1 27q3 73 47 85q12 3 26 3q47 -1 69 -38q-42 -35 -60 -94q-14 -44 -14 -114zM217 300l46 -80q5 2 14 8q6 4 8 5q21 -13 22 -49q0 -63 -57 -75q-11 -2 -23 -2q-95 2 -96 185q1 185 79 186q42 -1 59 -44
q-2 -14 -2 -23q-1 -7 -1 -19q0 -48 -26 -74q-10 -10 -23 -18z" />
    <glyph glyph-name="si_GDha.reph" horiz-adv-x="996" 
d="M612 685q0 23 21 29q5 1 8 1q22 0 28 -22q1 -4 1 -8q0 -22 -21 -28q-4 -1 -8 -1q-22 0 -28 21q-1 4 -1 8zM464 662l59 -74q4 3 12 10q16 13 24 17q11 -12 30 -23q25 -13 52 -13q60 0 92 48q18 27 18 58q0 47 -44 72q-22 11 -47 12q14 3 27 3q67 0 87 -57q6 -18 6 -39
q-1 -56 -43 -82l50 -64q18 9 33 24q39 -82 39 -261q-2 -175 -56 -178q-54 0 -59 116v19h-96q0 -120 -46 -134q-6 -1 -11 -1q-41 9 -43 115q0 53 8 76q18 50 56 51q18 -1 38 -12l38 100q-40 27 -85 27h-2q-38 98 -136 111q-12 1 -23 1q-75 -1 -124 -49q-41 48 -108 49
q-175 0 -187 -255q-1 -18 -1 -37q1 -291 205 -292q121 0 165 100q17 40 17 89q0 62 -39 100q-8 7 -15 11q13 28 13 62q0 19 1 27q3 73 47 85q12 3 26 3q47 -1 69 -38q-42 -35 -60 -94q-14 -44 -14 -114q0 -150 70 -205q34 -26 79 -26q66 0 99 58q5 11 9 21q21 -64 83 -76
q13 -3 26 -3q147 0 167 187q4 39 4 106q0 262 -78 359q-11 13 -23 24q-2 100 -80 147q-44 26 -100 26q-104 0 -146 -75q-15 -29 -17 -62q-30 -16 -66 -50zM217 300l46 -80q5 2 14 8q6 4 8 5q21 -13 22 -49q0 -63 -57 -75q-11 -2 -23 -2q-95 2 -96 185q1 185 79 186
q42 -1 59 -44q-2 -14 -2 -23q-1 -7 -1 -19q0 -48 -26 -74q-10 -10 -23 -18z" />
    <glyph glyph-name="si_GI" horiz-adv-x="658" 
d="M77 661q1 -56 35 -105q-90 -65 -90 -264q1 -291 205 -292q75 1 121 40q39 -40 100 -40q157 0 183 205q5 41 5 87q-1 186 -82 253q43 53 43 116q0 131 -124 181q-60 24 -136 24q-151 0 -219 -82q-41 -50 -41 -123zM188 661q0 58 72 81q34 11 77 11q108 0 140 -56
q9 -17 9 -36q-1 -50 -32 -78q-8 1 -23 1q-70 -1 -115 -47q-35 42 -97 47q-31 29 -31 77zM217 300l46 -80q5 2 14 8q6 4 8 5q21 -13 22 -49q0 -63 -57 -75q-11 -2 -23 -2q-95 2 -96 185q1 185 79 186q42 -1 59 -44q-2 -14 -2 -23q-1 -7 -1 -19q0 -48 -26 -74q-10 -10 -23 -18
zM448 106q-29 1 -47 22q8 27 8 61q0 62 -39 100q-8 7 -15 11q13 28 13 62q0 19 1 27q3 75 43 86q8 2 19 2q95 -2 96 -185q-1 -185 -79 -186z" />
    <glyph glyph-name="si_GIi" horiz-adv-x="658" 
d="M415 626q0 28 26 37q7 3 14 3q28 0 37 -26q3 -7 3 -14q0 -29 -26 -39q-7 -2 -14 -2q-27 0 -37 25q-3 8 -3 16zM324 626q1 -37 19 -67q-13 -8 -27 -22q-35 42 -97 47q-31 29 -31 77q0 54 62 81q38 17 87 17q88 0 120 -24q-12 3 -24 3q-57 0 -89 -44q-20 -29 -20 -68z
M77 661q1 -56 35 -105q-90 -65 -90 -264q1 -291 205 -292q75 1 121 40q39 -40 100 -40q157 0 183 205q5 41 5 87q-1 184 -80 252q41 49 41 117q0 131 -124 181q-60 24 -136 24q-151 0 -219 -82q-41 -50 -41 -123zM217 300l46 -80q5 2 14 8q6 4 8 5q21 -13 22 -49
q0 -63 -57 -75q-11 -2 -23 -2q-95 2 -96 185q1 185 79 186q42 -1 59 -44q-2 -14 -2 -23q-1 -7 -1 -19q0 -48 -26 -74q-10 -10 -23 -18zM448 106q-29 1 -47 22q8 27 8 61q0 62 -39 100q-8 7 -15 11q13 28 13 62q0 19 1 27q3 75 43 86q8 2 19 2q95 -2 96 -185
q-1 -185 -79 -186z" />
    <glyph glyph-name="si_GR.halant" horiz-adv-x="665" 
d="M551 710h-6q-5 1 -7 1v77h6q37 -3 38 -39q-2 -38 -31 -39zM452 866v-283q-8 1 -21 1q-70 -1 -115 -47q-40 46 -106 47q-187 -2 -188 -292q1 -291 205 -292q75 1 121 40q39 -40 99 -40h13q26 -25 26 -69q0 -80 -88 -102q-29 -7 -62 -7q-105 0 -139 57q-11 19 -11 42h-110
q0 -131 124 -181q60 -24 136 -24q151 0 219 82q41 50 41 123q-1 75 -36 119q76 71 76 252q-1 196 -91 260v78q5 -1 13 -1q59 0 90 52q17 30 17 68q-1 117 -120 117h-93zM216 300l47 -80q20 11 22 13q21 -15 21 -49q0 -67 -62 -76q-8 -1 -17 -1q-95 2 -96 185q1 185 79 186
q40 -1 59 -43q-1 -2 -3 -24v-19q0 -48 -27 -74q-10 -10 -23 -18zM447 106q-29 1 -46 23q7 27 7 60q0 60 -39 99q-8 7 -15 12q14 27 14 62v27q4 72 39 84q11 4 24 4q95 -2 96 -185q-1 -185 -80 -186z" />
    <glyph glyph-name="si_GRI" horiz-adv-x="658" 
d="M188 661q0 58 72 81q34 11 77 11q108 0 140 -56q9 -17 9 -36q-1 -50 -32 -78q-8 1 -23 1q-70 -1 -115 -47q-35 42 -97 47q-31 29 -31 77zM77 661q1 -56 35 -105q-90 -65 -90 -264q1 -291 205 -292q75 1 121 40q39 -40 100 -40h12q26 -25 26 -69q0 -80 -88 -102
q-29 -7 -62 -7q-105 0 -139 57q-11 19 -11 42h-110q0 -131 124 -181q60 -24 136 -24q151 0 219 82q41 50 41 123q-1 75 -36 119q76 71 76 252q-1 186 -82 253q43 53 43 116q0 131 -124 181q-60 24 -136 24q-151 0 -219 -82q-41 -50 -41 -123zM217 300l46 -80q5 2 14 8
q6 4 8 5q21 -13 22 -49q0 -63 -57 -75q-11 -2 -23 -2q-95 2 -96 185q1 185 79 186q42 -1 59 -44q-2 -14 -2 -23q-1 -7 -1 -19q0 -48 -26 -74q-10 -10 -23 -18zM448 106q-29 1 -47 22q8 27 8 61q0 62 -39 100q-8 7 -15 11q13 28 13 62q0 19 1 27q3 75 43 86q8 2 19 2
q95 -2 96 -185q-1 -185 -79 -186z" />
    <glyph glyph-name="si_GRIi" horiz-adv-x="658" 
d="M415 626q0 28 26 37q7 3 14 3q28 0 37 -26q3 -7 3 -14q0 -29 -26 -39q-7 -2 -14 -2q-27 0 -37 25q-3 8 -3 16zM324 626q1 -37 19 -67q-13 -8 -27 -22q-35 42 -97 47q-31 29 -31 77q0 54 62 81q38 17 87 17q88 0 120 -24q-12 3 -24 3q-57 0 -89 -44q-20 -29 -20 -68z
M77 661q1 -56 35 -105q-90 -65 -90 -264q1 -291 205 -292q75 1 121 40q39 -40 100 -40h12q26 -25 26 -69q0 -80 -88 -102q-29 -7 -62 -7q-105 0 -139 57q-11 19 -11 42h-110q0 -131 124 -181q60 -24 136 -24q151 0 219 82q41 50 41 123q-1 75 -36 119q76 71 76 252
q-1 184 -80 252q41 49 41 117q0 131 -124 181q-60 24 -136 24q-151 0 -219 -82q-41 -50 -41 -123zM217 300l46 -80q5 2 14 8q6 4 8 5q21 -13 22 -49q0 -63 -57 -75q-11 -2 -23 -2q-95 2 -96 185q1 185 79 186q42 -1 59 -44q-2 -14 -2 -23q-1 -7 -1 -19q0 -48 -26 -74
q-10 -10 -23 -18zM448 106q-29 1 -47 22q8 27 8 61q0 62 -39 100q-8 7 -15 11q13 28 13 62q0 19 1 27q3 75 43 86q8 2 19 2q95 -2 96 -185q-1 -185 -79 -186z" />
    <glyph glyph-name="si_GRa" horiz-adv-x="658" 
d="M217 300l46 -80q5 2 14 8q6 4 8 5q21 -13 22 -49q0 -63 -57 -75q-11 -2 -23 -2q-95 2 -96 185q1 185 79 186q42 -1 59 -44q-2 -14 -2 -23q-1 -7 -1 -19q0 -48 -26 -74q-10 -10 -23 -18zM448 106q-29 1 -47 22q8 27 8 61q0 62 -39 100q-8 7 -15 11q13 28 13 62q0 19 1 27
q3 75 43 86q8 2 19 2q95 -2 96 -185q-1 -185 -79 -186zM22 292q1 -291 205 -292q75 1 121 40q39 -40 100 -40h13q26 -25 26 -69q0 -80 -88 -102q-29 -7 -62 -7q-105 0 -139 57q-11 19 -11 42h-110q0 -131 124 -181q60 -24 136 -24q151 0 219 82q41 50 41 123q-1 73 -36 120
q75 71 75 251q-1 291 -205 292q-70 -1 -115 -47q-39 46 -106 47q-175 0 -187 -255q-1 -18 -1 -37z" />
    <glyph glyph-name="si_GU" horiz-adv-x="668" 
d="M393 -66q2 -137 135 -138q108 0 117 109q1 11 1 24h-90q-2 -38 -28 -39q-29 1 -29 44q0 40 36 69q5 3 13 9q37 31 51 58q37 69 37 222q-1 291 -205 292q-70 -1 -115 -47q-39 46 -106 47q-175 0 -187 -255q-1 -18 -1 -37q1 -291 205 -292q121 0 165 100q17 40 17 89
q0 62 -39 100q-8 7 -15 11q13 28 13 62q0 19 1 27q3 75 43 86q8 2 19 2q95 -2 96 -185q0 -141 -25 -175q-9 -11 -22 -19q-86 -67 -87 -164zM217 300l46 -80q5 2 14 8q6 4 8 5q21 -13 22 -49q0 -63 -57 -75q-11 -2 -23 -2q-95 2 -96 185q1 185 79 186q42 -1 59 -44
q-2 -14 -2 -23q-1 -7 -1 -19q0 -48 -26 -74q-10 -10 -23 -18z" />
    <glyph glyph-name="si_GUu" horiz-adv-x="681" 
d="M449 -89q0 -68 52 -98q30 -17 72 -17q108 0 117 109q1 11 1 24h-90q-2 -38 -28 -39q-28 1 -29 36q0 42 45 60q16 6 32 6h17v77h-81l81 54v77h-33q30 52 30 119q0 193 -120 248q-39 17 -84 17q-70 -1 -115 -47q-39 46 -106 47q-175 0 -187 -255q-1 -18 -1 -37
q1 -291 205 -292q121 0 165 100q17 40 17 89q0 62 -39 100q-8 7 -15 11q13 28 13 62q0 19 1 27q3 75 43 86q8 2 19 2q56 0 80 -67q15 -40 15 -96q0 -88 -37 -109q-10 -5 -20 -5v-77h43l-69 -54v-77h36q-30 -33 -30 -81zM217 300l46 -80q5 2 14 8q6 4 8 5q21 -13 22 -49
q0 -63 -57 -75q-11 -2 -23 -2q-95 2 -96 185q1 185 79 186q42 -1 59 -44q-2 -14 -2 -23q-1 -7 -1 -19q0 -48 -26 -74q-10 -10 -23 -18z" />
    <glyph glyph-name="si_Ga" unicode="&#xd9c;" horiz-adv-x="658" 
d="M217 300l46 -80q5 2 14 8q6 4 8 5q21 -13 22 -49q0 -63 -57 -75q-11 -2 -23 -2q-95 2 -96 185q1 185 79 186q42 -1 59 -44q-2 -14 -2 -23q-1 -7 -1 -19q0 -48 -26 -74q-10 -10 -23 -18zM448 106q-29 1 -47 22q8 27 8 61q0 62 -39 100q-8 7 -15 11q13 28 13 62q0 19 1 27
q3 75 43 86q8 2 19 2q95 -2 96 -185q-1 -185 -79 -186zM22 292q1 -291 205 -292q75 1 121 40q39 -40 100 -40q157 0 183 205q5 41 5 87q-1 291 -205 292q-70 -1 -115 -47q-39 46 -106 47q-175 0 -187 -255q-1 -18 -1 -37z" />
    <glyph glyph-name="si_Ga.reph" horiz-adv-x="658" 
d="M140 655q0 -48 18 -78q-135 -40 -136 -285q1 -291 205 -292q75 1 121 40q39 -40 100 -40q157 0 183 205q5 41 5 87q-1 252 -152 287q23 33 23 80q0 90 -78 134q-46 26 -105 26q-114 0 -162 -81q-22 -38 -22 -83zM356 633q0 49 -44 73q-21 11 -44 11q-13 0 -19 -1
q28 18 69 18q66 0 83 -49q5 -14 5 -28q-1 -54 -34 -83q-34 -14 -56 -37q-3 4 -7 8q46 33 47 88zM218 623q0 23 21 29q5 1 8 1q22 0 28 -22q1 -4 1 -8q0 -22 -21 -28q-4 -1 -8 -1q-22 0 -28 21q-1 4 -1 8zM217 300l46 -80q5 2 14 8q6 4 8 5q21 -13 22 -49q0 -63 -57 -75
q-11 -2 -23 -2q-95 2 -96 185q1 185 79 186q42 -1 59 -44q-2 -14 -2 -23q-1 -7 -1 -19q0 -48 -26 -74q-10 -10 -23 -18zM448 106q-29 1 -47 22q8 27 8 61q0 62 -39 100q-8 7 -15 11q13 28 13 62q0 19 1 27q3 75 43 86q8 2 19 2q95 -2 96 -185q-1 -185 -79 -186z" />
    <glyph glyph-name="si_Ga.touch" horiz-adv-x="658" 
d="M217 300l46 -80q5 2 14 8q6 4 8 5q21 -13 22 -49q0 -63 -57 -75q-11 -2 -23 -2q-95 2 -96 185q1 185 79 186q42 -1 59 -44q-2 -14 -2 -23q-1 -7 -1 -19q0 -48 -26 -74q-10 -10 -23 -18zM448 106q-29 1 -47 22q8 27 8 61q0 62 -39 100q-8 7 -15 11q13 28 13 62q0 19 1 27
q3 75 43 86q8 2 19 2q95 -2 96 -185q-1 -185 -79 -186zM22 292q1 -291 205 -292q75 1 121 40q39 -40 100 -40q157 0 183 205q5 41 5 87q-1 291 -205 292q-70 -1 -115 -47q-39 46 -106 47q-175 0 -187 -255q-1 -18 -1 -37z" />
    <glyph glyph-name="si_Gh.halant" horiz-adv-x="583" 
d="M417 416h-68q-2 12 -2 18q0 52 41 61q6 1 11 1q45 -6 49 -45q0 -17 -11 -37q-14 2 -20 2zM145 207q0 70 32 99q13 12 28 12h195q38 0 54 -60q6 -25 6 -51q-2 -90 -43 -92q-16 2 -16 20q0 7 4 23q5 21 5 31q0 65 -74 75q-16 2 -34 2q-94 0 -105 -57q-2 -10 -2 -20
q0 -3 8 -43q1 -7 1 -11q-2 -19 -17 -20q-42 2 -42 92zM38 207q0 -167 100 -200q23 -7 49 -7q62 0 89 53q10 20 10 41q0 5 -5 55q-1 5 -1 9q2 21 22 22q21 -2 22 -22q0 -7 -2 -22q-4 -24 -4 -42q0 -45 38 -74q26 -20 61 -20q122 0 145 142q5 30 5 65q-1 113 -54 166
q29 41 29 83q0 75 -57 114q-11 7 -22 12v48q5 -1 13 -1q59 0 90 52q17 30 17 68q-1 117 -120 117h-93v-276q-40 -9 -68 -36q-41 40 -100 40q-84 0 -120 -66q-16 -30 -16 -66q0 -26 8 -46h-52v-96h41q-25 -47 -25 -113zM256 416h-86q-11 13 -11 35q0 34 30 43q9 2 17 2
q38 0 48 -38q3 -12 3 -24t-1 -18zM469 710h-6q-5 1 -7 1v77h6q37 -3 38 -39q-2 -38 -31 -39z" />
    <glyph glyph-name="si_GhI" horiz-adv-x="588" 
d="M417 416h-68q-2 12 -2 18q0 52 41 61q6 1 11 1q45 -6 49 -45q0 -17 -11 -37q-14 2 -20 2zM145 207q0 70 32 99q13 12 28 12h195q38 0 54 -60q6 -25 6 -51q-2 -90 -43 -92q-16 2 -16 20q0 7 4 23q5 21 5 31q0 65 -74 75q-16 2 -34 2q-94 0 -105 -57q-2 -10 -2 -20
q0 -3 8 -43q1 -7 1 -11q-2 -19 -17 -20q-42 2 -42 92zM38 207q0 -167 100 -200q23 -7 49 -7q62 0 89 53q10 20 10 41q0 5 -5 55q-1 5 -1 9q2 21 22 22q21 -2 22 -22q0 -7 -2 -22q-4 -24 -4 -42q0 -45 38 -74q26 -20 61 -20q122 0 145 142q5 30 5 65q-1 113 -54 166
q29 41 29 83q-1 51 -27 85q47 52 47 120q0 131 -124 181q-60 24 -136 24q-151 0 -219 -82q-41 -50 -41 -123q1 -70 48 -121q-24 -34 -24 -78q0 -26 8 -46h-52v-96h41q-25 -47 -25 -113zM256 416h-86q-11 13 -11 35q0 34 30 43q9 2 17 2q38 0 48 -38q3 -12 3 -24t-1 -18z
M202 594q-11 0 -26 -2q-23 28 -23 69q0 58 72 81q34 11 77 11q110 0 140 -57q9 -16 9 -35q-1 -42 -23 -69q-16 2 -25 2q-60 -1 -101 -40q-41 40 -100 40z" />
    <glyph glyph-name="si_GhIi" horiz-adv-x="588" 
d="M417 416h-68q-2 12 -2 18q0 52 41 61q6 1 11 1q45 -6 49 -45q0 -17 -11 -37q-14 2 -20 2zM145 207q0 70 32 99q13 12 28 12h195q38 0 54 -60q6 -25 6 -51q-2 -90 -43 -92q-16 2 -16 20q0 7 4 23q5 21 5 31q0 65 -74 75q-16 2 -34 2q-94 0 -105 -57q-2 -10 -2 -20
q0 -3 8 -43q1 -7 1 -11q-2 -19 -17 -20q-42 2 -42 92zM38 207q0 -167 100 -200q23 -7 49 -7q62 0 89 53q10 20 10 41q0 5 -5 55q-1 5 -1 9q2 21 22 22q21 -2 22 -22q0 -7 -2 -22q-4 -24 -4 -42q0 -45 38 -74q26 -20 61 -20q122 0 145 142q5 30 5 65q-1 113 -54 166
q29 41 29 83q-1 47 -25 83q45 50 45 122q0 131 -124 181q-60 24 -136 24q-151 0 -219 -82q-41 -50 -41 -123q1 -70 48 -121q-24 -34 -24 -78q0 -26 8 -46h-52v-96h41q-25 -47 -25 -113zM256 416h-86q-11 13 -11 35q0 34 30 43q9 2 17 2q38 0 48 -38q3 -12 3 -24t-1 -18z
M381 626q0 28 25 37q7 3 14 3q28 0 37 -26q3 -7 3 -14q-1 -25 -21 -36q-15 4 -36 4h-7q-14 12 -15 32zM289 626q0 -35 18 -67l-5 -5q-41 40 -100 40q-11 0 -26 -2q-23 28 -23 69q0 54 62 81q38 17 87 17q87 0 119 -24q-11 3 -23 3q-57 0 -89 -44q-20 -29 -20 -68z" />
    <glyph glyph-name="si_GhR.halant" horiz-adv-x="604" 
d="M469 710h-6q-5 1 -7 1v77h6q37 -3 38 -39q-2 -38 -31 -39zM370 866v-276q-40 -9 -68 -36q-41 40 -100 40q-84 0 -120 -66q-16 -30 -16 -66q0 -26 8 -46h-52v-96h41q-25 -47 -25 -113q0 -167 100 -200q23 -7 49 -7q62 0 89 53q10 20 10 41q0 5 -5 55q-1 5 -1 9q2 21 22 22
q21 -2 22 -22q0 -7 -2 -22q-4 -24 -4 -42q0 -45 38 -74q26 -20 61 -20h5q26 -25 26 -69q0 -78 -86 -101q-29 -8 -64 -8q-105 0 -139 57q-11 19 -11 42h-110q0 -131 124 -181q60 -24 136 -24q151 0 219 82q41 50 41 123q-1 76 -38 122q47 53 47 164q-1 113 -54 166
q29 41 29 83q0 75 -57 114q-11 7 -22 12v48q5 -1 13 -1q59 0 90 52q17 30 17 68q-1 117 -120 117h-93zM417 416h-68q-2 12 -2 18q0 52 41 61q6 1 11 1q45 -6 49 -45q0 -17 -11 -37q-14 2 -20 2zM145 207q0 70 32 99q13 12 28 12h195q38 0 54 -60q6 -25 6 -51q-2 -90 -43 -92
q-16 2 -16 20q0 7 4 23q5 21 5 31q0 65 -74 75q-16 2 -34 2q-94 0 -105 -57q-2 -10 -2 -20q0 -3 8 -43q1 -7 1 -11q-2 -19 -17 -20q-42 2 -42 92zM256 416h-86q-11 13 -11 35q0 34 30 43q9 2 17 2q38 0 48 -38q3 -12 3 -24t-1 -18z" />
    <glyph glyph-name="si_GhRI" horiz-adv-x="588" 
d="M202 594q-11 0 -26 -2q-23 28 -23 69q0 58 72 81q34 11 77 11q110 0 140 -57q9 -16 9 -35q-1 -42 -23 -69q-16 2 -25 2q-60 -1 -101 -40q-41 40 -100 40zM42 661q1 -70 48 -121q-24 -34 -24 -78q0 -26 8 -46h-52v-96h41q-25 -47 -25 -113q0 -167 100 -200q23 -7 49 -7
q62 0 89 53q10 20 10 41q0 5 -5 55q-1 5 -1 9q2 21 22 22q21 -2 22 -22q0 -7 -2 -22q-4 -24 -4 -42q0 -45 38 -74q26 -20 61 -20h5q26 -25 26 -69q0 -78 -86 -101q-29 -8 -64 -8q-105 0 -139 57q-11 19 -11 42h-110q0 -131 124 -181q60 -24 136 -24q151 0 219 82
q41 50 41 123q-1 76 -38 122q47 53 47 164q-1 113 -54 166q29 41 29 83q-1 51 -27 85q47 52 47 120q0 131 -124 181q-60 24 -136 24q-151 0 -219 -82q-41 -50 -41 -123zM417 416h-68q-2 12 -2 18q0 52 41 61q6 1 11 1q45 -6 49 -45q0 -17 -11 -37q-14 2 -20 2zM145 207
q0 70 32 99q13 12 28 12h195q38 0 54 -60q6 -25 6 -51q-2 -90 -43 -92q-16 2 -16 20q0 7 4 23q5 21 5 31q0 65 -74 75q-16 2 -34 2q-94 0 -105 -57q-2 -10 -2 -20q0 -3 8 -43q1 -7 1 -11q-2 -19 -17 -20q-42 2 -42 92zM256 416h-86q-11 13 -11 35q0 34 30 43q9 2 17 2
q38 0 48 -38q3 -12 3 -24t-1 -18z" />
    <glyph glyph-name="si_GhRIi" horiz-adv-x="588" 
d="M381 626q0 28 25 37q7 3 14 3q28 0 37 -26q3 -7 3 -14q-1 -25 -21 -36q-15 4 -36 4h-7q-14 12 -15 32zM289 626q0 -35 18 -67l-5 -5q-41 40 -100 40q-11 0 -26 -2q-23 28 -23 69q0 54 62 81q38 17 87 17q87 0 119 -24q-11 3 -23 3q-57 0 -89 -44q-20 -29 -20 -68zM42 661
q1 -70 48 -121q-24 -34 -24 -78q0 -26 8 -46h-52v-96h41q-25 -47 -25 -113q0 -167 100 -200q23 -7 49 -7q62 0 89 53q10 20 10 41q0 5 -5 55q-1 5 -1 9q2 21 22 22q21 -2 22 -22q0 -7 -2 -22q-4 -24 -4 -42q0 -45 38 -74q26 -20 61 -20h5q26 -25 26 -69q0 -78 -86 -101
q-29 -8 -64 -8q-105 0 -139 57q-11 19 -11 42h-110q0 -131 124 -181q60 -24 136 -24q151 0 219 82q41 50 41 123q-1 76 -38 122q47 53 47 164q-1 113 -54 166q29 41 29 83q-1 47 -25 83q45 50 45 122q0 131 -124 181q-60 24 -136 24q-151 0 -219 -82q-41 -50 -41 -123z
M417 416h-68q-2 12 -2 18q0 52 41 61q6 1 11 1q45 -6 49 -45q0 -17 -11 -37q-14 2 -20 2zM145 207q0 70 32 99q13 12 28 12h195q38 0 54 -60q6 -25 6 -51q-2 -90 -43 -92q-16 2 -16 20q0 7 4 23q5 21 5 31q0 65 -74 75q-16 2 -34 2q-94 0 -105 -57q-2 -10 -2 -20q0 -3 8 -43
q1 -7 1 -11q-2 -19 -17 -20q-42 2 -42 92zM256 416h-86q-11 13 -11 35q0 34 30 43q9 2 17 2q38 0 48 -38q3 -12 3 -24t-1 -18z" />
    <glyph glyph-name="si_GhRa" horiz-adv-x="588" 
d="M417 416h-68q-2 12 -2 18q0 52 41 61q6 1 11 1q45 -6 49 -45q0 -17 -11 -37q-14 2 -20 2zM145 207q0 70 32 99q13 12 28 12h195q38 0 54 -60q6 -25 6 -51q-2 -90 -43 -92q-16 2 -16 20q0 7 4 23q5 21 5 31q0 65 -74 75q-16 2 -34 2q-94 0 -105 -57q-2 -10 -2 -20
q0 -3 8 -43q1 -7 1 -11q-2 -19 -17 -20q-42 2 -42 92zM38 207q0 -167 100 -200q23 -7 49 -7q62 0 89 53q10 20 10 41q0 5 -5 55q-1 5 -1 9q2 21 22 22q21 -2 22 -22q0 -7 -2 -22q-4 -24 -4 -42q0 -45 38 -74q26 -20 61 -20h9q26 -25 26 -69q0 -80 -88 -102q-29 -7 -62 -7
q-105 0 -139 57q-11 19 -11 42h-110q0 -131 124 -181q60 -24 136 -24q151 0 219 82q41 50 41 123q-1 77 -40 124q45 56 45 162q-1 113 -54 166q29 41 29 83q0 77 -58 115q-35 23 -81 23q-60 -1 -101 -40q-41 40 -100 40q-84 0 -120 -66q-16 -30 -16 -66q0 -26 8 -46h-52v-96
h41q-25 -47 -25 -113zM256 416h-86q-11 13 -11 35q0 34 30 43q9 2 17 2q38 0 48 -38q3 -12 3 -24t-1 -18z" />
    <glyph glyph-name="si_GhU" horiz-adv-x="588" 
d="M417 416h-68q-2 12 -2 18q0 52 41 61q6 1 11 1q45 -6 49 -45q0 -17 -11 -37q-14 2 -20 2zM145 207q0 70 32 99q13 12 28 12h195q38 0 54 -60q6 -25 6 -51q-2 -90 -43 -92q-16 2 -16 20q0 7 4 23q5 21 5 31q0 65 -74 75q-16 2 -34 2q-94 0 -105 -57q-2 -10 -2 -20
q0 -3 8 -43q1 -7 1 -11q-2 -19 -17 -20q-42 2 -42 92zM38 207q0 -167 100 -200q23 -7 49 -7q62 0 89 53q10 20 10 41q0 5 -5 55q-1 5 -1 9q2 21 22 22q21 -2 22 -22q0 -7 -2 -22q-4 -24 -4 -42q0 -45 38 -74q26 -20 61 -20q12 0 18 1v-99h-225q-26 2 -27 23q0 14 2 22
l-105 12q-7 -34 -7 -63q5 -99 103 -101h366v281q25 51 25 131q-1 113 -54 166q29 41 29 83q0 77 -58 115q-35 23 -81 23q-60 -1 -101 -40q-41 40 -100 40q-84 0 -120 -66q-16 -30 -16 -66q0 -26 8 -46h-52v-96h41q-25 -47 -25 -113zM256 416h-86q-11 13 -11 35q0 34 30 43
q9 2 17 2q38 0 48 -38q3 -12 3 -24t-1 -18z" />
    <glyph glyph-name="si_GhUu" horiz-adv-x="588" 
d="M417 416h-68q-2 12 -2 18q0 52 41 61q6 1 11 1q45 -6 49 -45q0 -17 -11 -37q-14 2 -20 2zM145 207q0 70 32 99q13 12 28 12h195q38 0 54 -60q6 -25 6 -51q-2 -90 -43 -92q-16 2 -16 20q0 7 4 23q5 21 5 31q0 65 -74 75q-16 2 -34 2q-94 0 -105 -57q-2 -10 -2 -20
q0 -3 8 -43q1 -7 1 -11q-2 -19 -17 -20q-42 2 -42 92zM38 207q0 -167 100 -200q23 -7 49 -7q62 0 89 53q10 20 10 41q0 5 -5 55q-1 5 -1 9q2 21 22 22q21 -2 22 -22q0 -7 -2 -22q-4 -24 -4 -42q0 -45 38 -74q26 -20 61 -20q12 0 18 1v-75q-26 21 -61 21q-50 0 -121 -29
q-35 -14 -51 -14q-19 2 -20 22q0 11 1 17l-104 15q-6 -35 -6 -62q5 -99 103 -101q27 0 103 28q53 19 79 19q52 -1 77 -47h107v281q25 51 25 131q-1 113 -54 166q29 41 29 83q0 77 -58 115q-35 23 -81 23q-60 -1 -101 -40q-41 40 -100 40q-84 0 -120 -66q-16 -30 -16 -66
q0 -26 8 -46h-52v-96h41q-25 -47 -25 -113zM256 416h-86q-11 13 -11 35q0 34 30 43q9 2 17 2q38 0 48 -38q3 -12 3 -24t-1 -18z" />
    <glyph glyph-name="si_Gha" unicode="&#xd9d;" horiz-adv-x="589" 
d="M417 416h-68q-2 12 -2 18q0 52 41 61q6 1 11 1q45 -6 49 -45q0 -17 -11 -37q-14 2 -20 2zM145 207q0 70 32 99q13 12 28 12h195q38 0 54 -60q6 -25 6 -51q-2 -90 -43 -92q-16 2 -16 20q0 7 4 23q5 21 5 31q0 65 -74 75q-16 2 -34 2q-94 0 -105 -57q-2 -10 -2 -20
q0 -3 8 -43q1 -7 1 -11q-2 -19 -17 -20q-42 2 -42 92zM38 207q0 -167 100 -200q23 -7 49 -7q62 0 89 53q10 20 10 41q0 5 -5 55q-1 5 -1 9q2 21 22 22q21 -2 22 -22q0 -7 -2 -22q-4 -24 -4 -42q0 -45 38 -74q26 -20 61 -20q122 0 145 142q5 30 5 65q-1 113 -54 166
q29 41 29 83q0 77 -58 115q-35 23 -81 23q-60 -1 -101 -40q-41 40 -100 40q-84 0 -120 -66q-16 -30 -16 -66q0 -26 8 -46h-52v-96h41q-25 -47 -25 -113zM256 416h-86q-11 13 -11 35q0 34 30 43q9 2 17 2q38 0 48 -38q3 -12 3 -24t-1 -18z" />
    <glyph glyph-name="si_Gha.reph" horiz-adv-x="588" 
d="M417 416h-68q-2 12 -2 18q0 52 41 61q6 1 11 1q45 -6 49 -45q0 -17 -11 -37q-14 2 -20 2zM145 207q0 70 32 99q13 12 28 12h195q38 0 54 -60q6 -25 6 -51q-2 -90 -43 -92q-16 2 -16 20q0 7 4 23q5 21 5 31q0 65 -74 75q-16 2 -34 2q-94 0 -105 -57q-2 -10 -2 -20
q0 -3 8 -43q1 -7 1 -11q-2 -19 -17 -20q-42 2 -42 92zM38 207q0 -167 100 -200q23 -7 49 -7q62 0 89 53q10 20 10 41q0 5 -5 55q-1 5 -1 9q2 21 22 22q21 -2 22 -22q0 -7 -2 -22q-4 -24 -4 -42q0 -45 38 -74q26 -20 61 -20q122 0 145 142q5 30 5 65q-1 113 -54 166
q29 41 29 83q0 77 -58 115q-8 6 -17 10q19 32 19 73q0 95 -80 140q-46 25 -104 25q-113 0 -161 -81q-22 -38 -22 -83t17 -75q-61 -29 -69 -100q-1 -10 -1 -18q0 -26 8 -46h-52v-96h41q-25 -47 -25 -113zM256 416h-86q-11 13 -11 35q0 34 30 43q9 2 17 2q38 0 48 -38
q3 -12 3 -24t-1 -18zM335 633q0 48 -44 72q-21 12 -45 12q-12 0 -19 -1q28 18 69 18q67 0 85 -50q4 -12 4 -27q-1 -43 -25 -69q-34 -12 -58 -34l-1 1q33 31 34 78zM197 623q0 23 21 29q5 1 8 1q22 0 28 -22q1 -4 1 -8q0 -22 -21 -28q-4 -1 -8 -1q-22 0 -28 21q-1 4 -1 8z
" />
    <glyph glyph-name="si_Gha.touch" horiz-adv-x="589" 
d="M417 416h-68q-2 12 -2 18q0 52 41 61q6 1 11 1q45 -6 49 -45q0 -17 -11 -37q-14 2 -20 2zM145 207q0 70 32 99q13 12 28 12h195q38 0 54 -60q6 -25 6 -51q-2 -90 -43 -92q-16 2 -16 20q0 7 4 23q5 21 5 31q0 65 -74 75q-16 2 -34 2q-94 0 -105 -57q-2 -10 -2 -20
q0 -3 8 -43q1 -7 1 -11q-2 -19 -17 -20q-42 2 -42 92zM38 207q0 -167 100 -200q23 -7 49 -7q62 0 89 53q10 20 10 41q0 5 -5 55q-1 5 -1 9q2 21 22 22q21 -2 22 -22q0 -7 -2 -22q-4 -24 -4 -42q0 -45 38 -74q26 -20 61 -20q122 0 145 142q5 30 5 65q-1 113 -54 166
q29 41 29 83q0 77 -58 115q-35 23 -81 23q-60 -1 -101 -40q-41 40 -100 40q-84 0 -120 -66q-16 -30 -16 -66q0 -26 8 -46h-52v-96h41q-25 -47 -25 -113zM256 416h-86q-11 13 -11 35q0 34 30 43q9 2 17 2q38 0 48 -38q3 -12 3 -24t-1 -18z" />
    <glyph glyph-name="si_H.halant" horiz-adv-x="692" 
d="M454 104q-31 1 -50 27q4 17 4 36q-1 94 -75 115q8 28 19 89q13 76 43 96q18 11 42 11q98 -2 99 -186q0 -173 -71 -187q-6 -1 -11 -1zM199 255l59 -74l18 12q10 3 12 3q14 -1 14 -26q0 -52 -59 -61q-12 -2 -24 -2q-79 0 -95 77q-3 16 -3 32q0 60 33 89q16 13 35 13h55
q-15 -42 -45 -63zM22 207q0 -96 64 -156q54 -51 133 -51q83 1 133 42q39 -42 102 -42q175 0 187 255q1 18 1 37q-1 170 -70 242v96q5 -1 13 -1q59 0 90 52q17 30 17 68q-1 117 -120 117h-93v-285q-21 3 -42 3q-92 -1 -132 -53q-44 62 -119 63q-84 0 -121 -66
q-18 -33 -18 -72q1 -45 29 -84q-54 -52 -54 -165zM140 451q0 37 36 44q7 1 14 1q35 0 47 -35q4 -12 4 -27q0 -12 -1 -18h-68q-7 0 -20 -2q-12 19 -12 37zM578 710h-6q-4 1 -7 1v76q3 1 6 1q37 -3 38 -39q-2 -38 -31 -39z" />
    <glyph glyph-name="si_HI" horiz-adv-x="664" 
d="M454 104q-31 1 -50 27q4 17 4 36q-1 94 -75 115q8 28 19 89q13 76 43 96q18 11 42 11q98 -2 99 -186q0 -173 -71 -187q-6 -1 -11 -1zM199 255l59 -74l18 12q10 3 12 3q14 -1 14 -26q0 -52 -59 -61q-12 -2 -24 -2q-79 0 -95 77q-3 16 -3 32q0 60 33 89q16 13 35 13h55
q-15 -42 -45 -63zM22 207q0 -96 64 -156q54 -51 133 -51q83 1 133 42q39 -42 102 -42q175 0 187 255q1 18 1 37q-1 186 -82 253q43 53 43 116q0 131 -124 181q-60 24 -136 24q-151 0 -219 -82q-41 -50 -41 -123q1 -45 24 -88q-59 -40 -60 -117q1 -45 29 -84
q-54 -52 -54 -165zM140 451q0 37 36 44q7 1 14 1q35 0 47 -35q4 -12 4 -27q0 -12 -1 -18h-68q-7 0 -20 -2q-12 19 -12 37zM194 661q0 58 72 81q34 11 77 11q108 0 140 -56q9 -17 9 -36q-1 -50 -32 -78q-8 1 -23 1q-92 -1 -132 -53q-31 46 -87 60q-24 27 -24 70z" />
    <glyph glyph-name="si_HIi" horiz-adv-x="664" 
d="M454 104q-31 1 -50 27q4 17 4 36q-1 94 -75 115q8 28 19 89q13 76 43 96q18 11 42 11q98 -2 99 -186q0 -173 -71 -187q-6 -1 -11 -1zM199 255l59 -74l18 12q10 3 12 3q14 -1 14 -26q0 -52 -59 -61q-12 -2 -24 -2q-79 0 -95 77q-3 16 -3 32q0 60 33 89q16 13 35 13h55
q-15 -42 -45 -63zM22 207q0 -96 64 -156q54 -51 133 -51q83 1 133 42q39 -42 102 -42q175 0 187 255q1 18 1 37q-1 184 -80 252q41 49 41 117q0 131 -124 181q-60 24 -136 24q-151 0 -219 -82q-41 -50 -41 -123q1 -45 24 -88q-59 -40 -60 -117q1 -45 29 -84
q-54 -52 -54 -165zM140 451q0 37 36 44q7 1 14 1q35 0 47 -35q4 -12 4 -27q0 -12 -1 -18h-68q-7 0 -20 -2q-12 19 -12 37zM421 625q0 29 26 39q7 2 14 2q27 0 37 -25q3 -8 3 -16q0 -28 -26 -37q-7 -3 -14 -3q-28 0 -37 26q-3 7 -3 14zM330 626q0 -34 15 -61q-25 -14 -40 -34
q-31 46 -87 60q-24 27 -24 70q0 54 62 81q38 17 87 17q88 0 120 -24q-12 3 -24 3q-57 0 -89 -44q-20 -29 -20 -68z" />
    <glyph glyph-name="si_HR.halant" horiz-adv-x="692" 
d="M578 710h-6q-4 1 -7 1v76q3 1 6 1q37 -3 38 -39q-2 -38 -31 -39zM479 866v-285q-21 3 -42 3q-92 -1 -132 -53q-43 62 -120 63q-83 0 -120 -66q-18 -32 -18 -72q1 -44 28 -83q-54 -55 -54 -166q0 -95 64 -156q55 -51 133 -51q84 1 133 42q39 -42 102 -42h14q26 -25 26 -69
q0 -80 -88 -102q-29 -7 -62 -7q-105 0 -139 57q-11 19 -11 42h-110q0 -131 124 -181q60 -24 136 -24q151 0 219 82q41 50 41 123q-1 73 -36 120q75 71 75 251q-1 170 -70 242v96q5 -1 12 -1q60 0 91 52q17 30 17 68q-1 117 -120 117h-93zM453 104q-32 1 -49 27q4 17 4 36
q-1 93 -75 115q6 21 18 89q14 73 39 93q19 14 47 14q88 0 98 -150q1 -18 1 -36q0 -169 -69 -186q-8 -2 -14 -2zM199 255l59 -74l18 12q10 3 11 3q15 -1 15 -26q0 -52 -60 -61q-12 -2 -24 -2q-76 0 -94 74q-4 17 -4 35q0 61 34 90q16 12 35 12h55q-15 -42 -45 -63zM140 451
q0 39 39 44q5 1 10 1q37 0 48 -36q4 -13 4 -26q0 -12 -2 -18h-68q-8 0 -19 -2q-12 19 -12 37z" />
    </font>
</defs>
</svg>
